<svg width="28" height="25" viewBox="0 0 28 25" fill="none" xmlns="http://www.w3.org/2000/svg">
<path d="M27.52 23.4603C27.5809 23.4609 27.6413 23.449 27.6974 23.4253C27.7535 23.4016 27.8042 23.3666 27.8462 23.3225C27.8882 23.2785 27.9207 23.2262 27.9417 23.169C27.9627 23.1119 27.9718 23.051 27.9683 22.9902C27.9683 22.6568 27.7671 22.4975 27.3544 22.4975H26.6877V24.243H26.9384V23.4821H27.2466L27.2537 23.4914L27.7319 24.243H28.0001L27.4856 23.4651L27.52 23.4603ZM27.23 23.2854H26.9392V22.6953H27.3078C27.4982 22.6953 27.7152 22.7264 27.7152 22.9757C27.7152 23.2625 27.4956 23.2854 27.2285 23.2854M20.9782 21.2729H17.422V15.7037C17.422 14.3757 17.3983 12.6662 15.5724 12.6662C13.7202 12.6662 13.4369 14.1131 13.4369 15.6071V21.2725H9.88068V9.82014H13.2946V11.3852H13.3424C13.684 10.8011 14.1777 10.3205 14.7709 9.99473C15.3641 9.66896 16.0345 9.51017 16.7108 9.53527C20.3151 9.53527 20.9796 11.9061 20.9796 14.9903L20.9782 21.2729ZM5.86813 8.25468C5.45997 8.25475 5.06096 8.13379 4.72155 7.90709C4.38213 7.68039 4.11757 7.35813 3.9613 6.98107C3.80504 6.60401 3.7641 6.18908 3.84365 5.78875C3.92321 5.38842 4.11969 5.02067 4.40825 4.732C4.69681 4.44334 5.06449 4.24673 5.46479 4.16703C5.8651 4.08733 6.28004 4.12812 6.65716 4.28425C7.03428 4.44038 7.35663 4.70483 7.58345 5.04416C7.81027 5.38349 7.93138 5.78246 7.93145 6.19062C7.9315 6.46163 7.87817 6.72999 7.77451 6.98039C7.67084 7.23079 7.51887 7.45831 7.32727 7.64998C7.13568 7.84164 6.90821 7.99369 6.65785 8.09745C6.40749 8.20121 6.13914 8.25463 5.86813 8.25468ZM7.64622 21.2729H4.08634V9.82014H7.64622V21.2729ZM22.7511 0.824877H2.29937C1.83517 0.819638 1.38789 0.998905 1.0558 1.32328C0.723708 1.64766 0.533986 2.09062 0.52832 2.55481V23.0913C0.533792 23.5557 0.723392 23.999 1.05547 24.3237C1.38755 24.6484 1.83494 24.828 2.29937 24.8231H22.7511C23.2164 24.8289 23.665 24.6498 23.9984 24.3251C24.3318 24.0004 24.5227 23.5567 24.5291 23.0913V2.55332C24.5225 2.08821 24.3315 1.64476 23.9981 1.32039C23.6647 0.996015 23.2162 0.817261 22.7511 0.823395" fill="#0077B5"/>
</svg>
