<svg width="32" height="32" viewBox="0 0 32 32" fill="none" xmlns="http://www.w3.org/2000/svg">
<g id="icons/apple-logo">
<rect width="32" height="32" fill="white"/>
<path id="Vector" d="M18.9261 9.15919C19.5963 8.29759 20.0749 7.1488 19.9313 6C18.9261 6.04787 17.7295 6.67013 17.0115 7.48386C16.3892 8.20186 15.8148 9.39853 15.9584 10.4995C17.1072 10.6431 18.2081 10.0208 18.9261 9.15919ZM19.9313 10.7867C18.3039 10.6909 16.9157 11.6961 16.1499 11.6961C15.384 11.6961 14.1874 10.8345 12.895 10.8345C11.2196 10.8824 9.6879 11.7919 8.8263 13.3236C7.1031 16.3392 8.34763 20.7908 10.0708 23.232C10.8846 24.4286 11.8898 25.7689 13.1822 25.721C14.4267 25.6732 14.9054 24.9073 16.3892 24.9073C17.8731 24.9073 18.3039 25.721 19.6441 25.6732C20.9844 25.6253 21.846 24.4765 22.6597 23.232C23.6171 21.8438 24 20.5036 24 20.4557C23.9521 20.4078 21.3673 19.4505 21.3673 16.4828C21.3195 13.9937 23.3777 12.7971 23.4735 12.7492C22.3725 11.026 20.5536 10.8345 19.9313 10.7867Z" fill="black"/>
</g>
</svg>
