<svg xmlns="http://www.w3.org/2000/svg" xmlns:xlink="http://www.w3.org/1999/xlink" width="82" height="82" viewBox="0 0 82 82">
  <defs>
    <clipPath id="clip-Artboard_2">
      <rect width="82" height="82"/>
    </clipPath>
  </defs>
  <g id="Artboard_2" data-name="Artboard – 2" clip-path="url(#clip-Artboard_2)">
    <g id="birthday" transform="translate(-71.624 6.589)">
      <path id="Path_6" data-name="Path 6" d="M177.618,56.1a1.1,1.1,0,0,0-1.1-1.1h-2.929a1.1,1.1,0,0,0,0,2.2h2.929A1.1,1.1,0,0,0,177.618,56.1Z" transform="translate(-69.011 -46.946)" fill="#fa3c7a"/>
      <path id="Path_7" data-name="Path 7" d="M262.493,56.1a1.1,1.1,0,0,0,1.1,1.1h2.929a1.1,1.1,0,1,0,0-2.2h-2.929A1.1,1.1,0,0,0,262.493,56.1Z" transform="translate(-145.831 -46.946)" fill="#fa3c7a"/>
      <path id="Path_8" data-name="Path 8" d="M192.547,80.07a1.1,1.1,0,0,0-1.553,0l-.969.969-1.1,1.1a1.1,1.1,0,0,0,1.553,1.553l1.1-1.1.969-.969A1.1,1.1,0,0,0,192.547,80.07Z" transform="translate(-82.76 -68.07)" fill="#fa3c7a"/>
      <path id="Path_9" data-name="Path 9" d="M252.563,20.055a1.1,1.1,0,0,0,1.553,0l.969-.969,1.1-1.1a1.1,1.1,0,0,0-1.553-1.553l-1.1,1.1-.969.969A1.1,1.1,0,0,0,252.563,20.055Z" transform="translate(-137.081 -13.75)" fill="#fa3c7a"/>
      <path id="Path_10" data-name="Path 10" d="M191.772,20.377a1.1,1.1,0,0,0,.777-1.875l-.969-.969-1.1-1.1a1.1,1.1,0,0,0-1.553,1.553l1.1,1.1.969.969A1.094,1.094,0,0,0,191.772,20.377Z" transform="translate(-82.762 -13.75)" fill="#fa3c7a"/>
      <path id="Path_11" data-name="Path 11" d="M252.563,80.07a1.1,1.1,0,0,0,0,1.553l.969.969,1.1,1.1a1.1,1.1,0,0,0,1.553-1.553l-1.1-1.1-.969-.969A1.1,1.1,0,0,0,252.563,80.07Z" transform="translate(-137.081 -68.071)" fill="#fa3c7a"/>
      <path id="Path_12" data-name="Path 12" d="M228.591,5.125a1.1,1.1,0,0,0,1.1-1.1V1.1a1.1,1.1,0,0,0-2.2,0V4.027A1.1,1.1,0,0,0,228.591,5.125Z" transform="translate(-115.957)" fill="#fa3c7a"/>
      <path id="Path_13" data-name="Path 13" d="M133.542,128.7l-7.309-17.645L114.874,83.636l-1.225-2.958a1.1,1.1,0,0,0-2.029,0l-1.225,2.958L99.037,111.057,91.727,128.7a1.1,1.1,0,0,0,.334,1.282,33.277,33.277,0,0,0,41.146,0A1.1,1.1,0,0,0,133.542,128.7Zm-20.907,6.208a31.161,31.161,0,0,1-18.556-6.146l2.747-6.632a33.134,33.134,0,0,0,5.322,2.3,1.1,1.1,0,0,0,1.388-.7c0-.006,0-.012,0-.018.007-.024.014-.047.02-.071a1.1,1.1,0,0,0-.722-1.3,30.952,30.952,0,0,1-5.168-2.255l2.975-7.182a33.459,33.459,0,0,0,23.977,0l2.975,7.182a31.089,31.089,0,0,1-20.608,3.32,1.1,1.1,0,0,0-1.257.791c-.006.024-.012.047-.017.072,0,.006,0,.012,0,.018a1.1,1.1,0,0,0,.882,1.279,33.319,33.319,0,0,0,21.85-3.438l2.746,6.63A31.162,31.162,0,0,1,112.635,134.911ZM104.67,103.2a33.461,33.461,0,0,0,5.693.887l.076,0a1.1,1.1,0,0,0,1.095-1.024c0-.006,0-.012,0-.019a1.1,1.1,0,0,0-1.022-1.152,31.228,31.228,0,0,1-4.991-.751l3.385-8.172a33.24,33.24,0,0,0,7.456,0l3.385,8.172a31.229,31.229,0,0,1-4.991.751,1.1,1.1,0,0,0-1.022,1.152c0,.006,0,.012,0,.019a1.1,1.1,0,0,0,1.095,1.024l.076,0a33.462,33.462,0,0,0,5.693-.887l3.184,7.686a31.283,31.283,0,0,1-22.3,0Zm5.114-12.346,2.85-6.882,2.85,6.881A31.238,31.238,0,0,1,109.784,90.85Z" transform="translate(0 -68.285)" fill="#fa3c7a"/>
    </g>
  </g>
</svg>
