<svg xmlns="http://www.w3.org/2000/svg" xmlns:xlink="http://www.w3.org/1999/xlink" width="64" height="64" viewBox="0 0 64 64">
  <defs>
    <clipPath id="clip-calendar">
      <rect width="64" height="64"/>
    </clipPath>
  </defs>
  <g id="calendar" clip-path="url(#clip-calendar)">
    <g id="download" transform="translate(-7.171 -6.9)">
      <path id="Path_1" data-name="Path 1" d="M66.284,6.9H19.076A3.341,3.341,0,0,0,15.7,10.265v5.02H69.66v-5.02A3.377,3.377,0,0,0,66.284,6.9ZM25.828,11.92a1.654,1.654,0,1,1,1.659-1.654A1.658,1.658,0,0,1,25.828,11.92Zm33.7,0a1.654,1.654,0,1,1,1.659-1.654A1.658,1.658,0,0,1,59.532,11.92Z" transform="translate(-3.664 0)" fill="#d4d4d4" fill-rule="evenodd"/>
      <path id="Path_2" data-name="Path 2" d="M70.844,21.78A3.287,3.287,0,0,0,67.47,18.7H10.562a3.423,3.423,0,0,0-3.374,3.365c1.373,7.815,3.2,25.212,3.2,25.212H67.641s1.773-17.34,3.2-25.212Z" transform="translate(0 -5.069)" fill="#3669d6" fill-rule="evenodd"/>
      <path id="Path_3" data-name="Path 3" d="M68.6,68.7H11.345S10.773,86.04,9.4,93.912a3.208,3.208,0,0,0,3.375,3.365h54.4a3.47,3.47,0,0,0,3.375-3.365C69.174,86.1,68.6,68.7,68.6,68.7Z" transform="translate(-0.958 -26.377)" fill="#3a81f4" fill-rule="evenodd"/>
      <path id="Path_4" data-name="Path 4" d="M42.2,68.7a6.152,6.152,0,0,1,3.537,2.624,7.9,7.9,0,0,1,1.084,4.107A7.82,7.82,0,0,1,44.2,81.705a9.777,9.777,0,0,1-6.674,2.282,10.146,10.146,0,0,1-6.617-2.168A6.813,6.813,0,0,1,28.4,76l.057-.114H32.22a4.729,4.729,0,0,0,1.426,3.651,5.276,5.276,0,0,0,3.879,1.369,5.51,5.51,0,0,0,3.936-1.369,5.234,5.234,0,0,0,1.426-4.05,5.412,5.412,0,0,0-1.255-3.993,5.412,5.412,0,0,0-3.993-1.255H34.216V68.7Z" transform="translate(-9.072 -26.424)" fill="#fafafa" fill-rule="evenodd"/>
      <path id="Path_5" data-name="Path 5" d="M85.3,68.7h3.936V83.588H85.3Z" transform="translate(-33.436 -26.425)" fill="#fafafa" fill-rule="evenodd"/>
      <path id="Path_6" data-name="Path 6" d="M32.62,51H28.855l-.057-.114a7.152,7.152,0,0,1,2.4-5.647A9.177,9.177,0,0,1,37.7,42.9a9.367,9.367,0,0,1,6.446,2.168,7.828,7.828,0,0,1,2.4,6.16,6.736,6.736,0,0,1-1.084,3.594A7.025,7.025,0,0,1,42.2,57.559l.171.114H34.388v-1.54H37.81a4.633,4.633,0,0,0,3.708-1.312A5.469,5.469,0,0,0,42.6,51.171a5.238,5.238,0,0,0-1.255-3.822A4.921,4.921,0,0,0,37.7,46.037,4.712,4.712,0,0,0,32.62,51Z" transform="translate(-9.244 -15.394)" fill="#e0e0e0" fill-rule="evenodd"/>
      <path id="Path_7" data-name="Path 7" d="M84.825,57.917H80.889V47.479l-5.989.057V44.684L84.825,43.6Z" transform="translate(-28.973 -15.694)" fill="#e0e0e0" fill-rule="evenodd"/>
    </g>
  </g>
</svg>
