<svg width="64" height="64" viewBox="0 0 64 64" fill="none" xmlns="http://www.w3.org/2000/svg">
<g clip-path="url(#clip0_3035_38918)">
<path fill-rule="evenodd" clip-rule="evenodd" d="M49 29H15V57H49V29ZM12 26V60H52V26H12Z" fill="black"/>
<path fill-rule="evenodd" clip-rule="evenodd" d="M32 13C27.9724 13 23 17.2323 23 22L23 25.9999L20 26L20 22C20 14.7677 26.0276 10 32 10C37.9724 10 44 14.7677 44 22V25.9993L41 26V22C41 17.2323 36.0276 13 32 13Z" fill="black"/>
<path d="M57.6731 4.67306L59.8275 6.82752L55.5186 11.1365L53.3641 8.98199L57.6731 4.67306Z" fill="black"/>
<path d="M57.853 14.9977L63.9459 14.9977L63.9459 18.0441L57.853 18.0441L57.853 14.9977Z" fill="black"/>
<path d="M46.4523 0.547687L49.4987 0.547688L49.4987 6.64052L46.4523 6.64052L46.4523 0.547687Z" fill="black"/>
</g>
<defs>
<clipPath id="clip0_3035_38918">
<rect width="64" height="64" fill="white"/>
</clipPath>
</defs>
</svg>
