<svg xmlns="http://www.w3.org/2000/svg" xmlns:xlink="http://www.w3.org/1999/xlink" width="32" height="32" viewBox="0 0 32 32">
  <defs>
    <clipPath id="clip-exclamation-rounded">
      <rect width="32" height="32"/>
    </clipPath>
  </defs>
  <g id="exclamation-rounded" clip-path="url(#clip-exclamation-rounded)">
    <circle id="Ellipse_46" data-name="Ellipse 46" cx="15" cy="15" r="15" transform="translate(1 1)" fill="none" stroke="#ed963c" stroke-width="2"/>
    <g id="Vector" transform="translate(14.5 9)">
      <path id="Path_1" data-name="Path 1" d="M2.015,10.468a1.485,1.485,0,1,0,0,2.97,1.486,1.486,0,0,0,0-2.97Z" fill="#ed963c"/>
      <path id="Path_2" data-name="Path 2" d="M1.647.042A1.615,1.615,0,0,0,.5,1.664c.036.469.065.945.1,1.414C.7,4.866.8,6.618.9,8.406A1.088,1.088,0,0,0,2.015,9.452,1.111,1.111,0,0,0,3.126,8.371c0-.368,0-.707.036-1.081.065-1.147.137-2.293.2-3.44.036-.743.1-1.485.137-2.228A1.834,1.834,0,0,0,3.363.88,1.489,1.489,0,0,0,1.647.042Z" fill="#ed963c"/>
    </g>
  </g>
</svg>
