<svg xmlns="http://www.w3.org/2000/svg" xmlns:xlink="http://www.w3.org/1999/xlink" width="82" height="82" viewBox="0 0 82 82">
  <defs>
    <clipPath id="clip-Artboard_5">
      <rect width="82" height="82"/>
    </clipPath>
  </defs>
  <g id="Artboard_5" data-name="Artboard – 5" clip-path="url(#clip-Artboard_5)">
    <path id="give-love" d="M14.769,54.911a75.53,75.53,0,0,0,6.907,3.631c3.446,1.569,7.169,2.846,10.015,2.846,2,0,5.061-1,8.538-2.615A136.725,136.725,0,0,0,62.321,45.112a16.207,16.207,0,0,0,2.815-2.585,2.014,2.014,0,0,0,.4-1.138,4.4,4.4,0,0,0-2.431-3.4,10.524,10.524,0,0,0-5.246-1.215,16.313,16.313,0,0,0-6.738,1.215H51.09c-2.631,1.415-6.369,3.754-8.738,5.277a6.092,6.092,0,0,0-5.984-4.938H33.214C29.922,34.835,25.338,32.3,20.569,32.3c0,0-3.661-.062-5.8-.092V30.635A1.543,1.543,0,0,0,13.23,29.1H5.538A1.543,1.543,0,0,0,4,30.635V55.28a1.543,1.543,0,0,0,1.538,1.538H13.23a1.543,1.543,0,0,0,1.538-1.538v-.354Zm24.614-10.43v-.062A3.02,3.02,0,0,0,36.368,41.4H32.537a1.508,1.508,0,0,1-1.154-.523c-2.738-3.108-6.677-5.523-10.815-5.507l-5.8-.092V51.327a75.244,75.244,0,0,0,8.184,4.431c3.015,1.385,6.246,2.569,8.738,2.569,1.692,0,4.277-.954,7.23-2.338A133.96,133.96,0,0,0,60.429,42.7c.723-.554,1.4-1.185,1.815-1.569a1.533,1.533,0,0,0-.523-.385,7.685,7.685,0,0,0-3.892-.877,13.141,13.141,0,0,0-5.323.877C48.46,42.9,41.752,47.3,41.752,47.3a1.46,1.46,0,0,1-.831.246l-15.676.092a1.538,1.538,0,0,1-.031-3.077l14.153-.077ZM11.692,32.158V53.727H7.077V32.158ZM45.121,29.9a19.015,19.015,0,0,0,5.846,5.169,1.531,1.531,0,0,0,1.369,0c3.154-1.523,6.184-4.969,8.077-8.384A14.537,14.537,0,0,0,62.475,20.3a6.563,6.563,0,0,0-6.4-6.615A6.265,6.265,0,0,0,54,14.036,8.5,8.5,0,0,0,45.429,5.99,8.729,8.729,0,0,0,39,8.805,8.7,8.7,0,0,0,32.568,5.99,8.482,8.482,0,0,0,24,14.313v.031c0,2.431,1.2,5.569,3.154,8.63,2.831,4.415,7.184,8.707,11.2,10.569a1.613,1.613,0,0,0,1.308,0A22.637,22.637,0,0,0,45.106,29.9Zm14.261-9.584A11.264,11.264,0,0,1,57.706,25.2a18.574,18.574,0,0,1-6.031,6.738,19.637,19.637,0,0,1-5.892-6.523A11.308,11.308,0,0,1,44,20.374a3.463,3.463,0,0,1,3.308-3.431,3.337,3.337,0,0,1,2.954,1.938,1.545,1.545,0,0,0,1.415.877,1.528,1.528,0,0,0,1.385-.923,3.309,3.309,0,0,1,3-2.061,3.469,3.469,0,0,1,3.323,3.538Zm-8.507-5.338a4.782,4.782,0,0,0,.046-.662,5.385,5.385,0,0,0-5.492-5.231A5.5,5.5,0,0,0,40.4,12.221a1.547,1.547,0,0,1-1.4.892,1.564,1.564,0,0,1-1.4-.892,5.521,5.521,0,0,0-5.031-3.138,5.4,5.4,0,0,0-5.492,5.246v.031c0,1.969,1.077,4.477,2.677,6.969C32.107,25.02,35.63,28.651,39,30.435a19.778,19.778,0,0,0,4.354-3.092c-.077-.123-.154-.262-.231-.385a14.3,14.3,0,0,1-2.2-6.646v-.062a6.555,6.555,0,0,1,6.384-6.4,6.171,6.171,0,0,1,3.554,1.123Z" transform="translate(6.232 7.311)" fill="#fa3c7a" stroke="#fff" stroke-width="1.2" fill-rule="evenodd"/>
  </g>
</svg>
