<svg width="32" height="32" viewBox="0 0 32 32" fill="none" xmlns="http://www.w3.org/2000/svg">
<g id="icons/google">
<rect width="32" height="32" fill="white"/>
<g id="Group 23">
<path id="Vector" d="M25.0019 16.3914C25.0019 15.7649 24.9507 15.1407 24.8435 14.5234H16.1836V18.0591H21.1424C20.9375 19.2004 20.276 20.209 19.3094 20.8495V23.1461H22.2698C24.0027 21.5506 25.0019 19.1865 25.0019 16.3914Z" fill="#4285F4"/>
<path id="Vector_2" d="M16.18 25.3669C18.6582 25.3669 20.7452 24.554 22.2661 23.1495L19.3057 20.8529C18.4812 21.4119 17.4214 21.731 16.18 21.731C13.7856 21.731 11.7522 20.1169 11.0255 17.9414H7.97656V20.3079C9.53479 23.4103 12.7095 25.3669 16.18 25.3669Z" fill="#34A853"/>
<path id="Vector_3" d="M11.0272 17.9398C10.6429 16.8008 10.6429 15.564 11.0272 14.425V12.0586H7.97826C6.67391 14.6533 6.67391 17.7115 7.97826 20.3063L11.0272 17.9398Z" fill="#FBBC04"/>
<path id="Vector_4" d="M16.18 10.6364C17.489 10.6155 18.7537 11.1092 19.7017 12.013L22.3244 9.39264C20.6613 7.83208 18.4602 6.97494 16.18 7.00056C12.7095 7.00056 9.53479 8.95941 7.97656 12.0596L11.0255 14.426C11.7522 12.2506 13.7856 10.6364 16.18 10.6364Z" fill="#EA4335"/>
</g>
</g>
</svg>
