<svg width="25" height="31" viewBox="0 0 25 31" fill="none" xmlns="http://www.w3.org/2000/svg">
<path d="M0 15.4167C0 15.8255 0.16462 16.2177 0.457646 16.5068C0.750672 16.7959 1.1481 16.9583 1.5625 16.9583H13.4219L9.82812 20.4887C9.68167 20.6321 9.56543 20.8026 9.48611 20.9904C9.40678 21.1783 9.36594 21.3798 9.36594 21.5833C9.36594 21.7869 9.40678 21.9884 9.48611 22.1762C9.56543 22.3641 9.68167 22.5346 9.82812 22.6779C9.97338 22.8224 10.1462 22.9371 10.3366 23.0154C10.527 23.0936 10.7312 23.1339 10.9375 23.1339C11.1438 23.1339 11.348 23.0936 11.5384 23.0154C11.7288 22.9371 11.9016 22.8224 12.0469 22.6779L18.2969 16.5112C18.4391 16.3646 18.5506 16.1917 18.625 16.0025C18.7813 15.6272 18.7813 15.2062 18.625 14.8308C18.5506 14.6416 18.4391 14.4687 18.2969 14.3221L12.0469 8.15542C11.9012 8.01167 11.7282 7.89765 11.5379 7.81986C11.3475 7.74206 11.1435 7.70202 10.9375 7.70202C10.7315 7.70202 10.5275 7.74206 10.3371 7.81986C10.1468 7.89765 9.97381 8.01167 9.82812 8.15542C9.68244 8.29916 9.56688 8.46981 9.48803 8.65762C9.40919 8.84542 9.36861 9.04672 9.36861 9.25C9.36861 9.45328 9.40919 9.65458 9.48803 9.84238C9.56688 10.0302 9.68244 10.2008 9.82812 10.3446L13.4219 13.875H1.5625C1.1481 13.875 0.750672 14.0374 0.457646 14.3265C0.16462 14.6157 0 15.0078 0 15.4167ZM20.3125 0H4.6875C3.4443 0 2.25201 0.487276 1.37294 1.35463C0.49386 2.22199 0 3.39837 0 4.625V9.25C0 9.65888 0.16462 10.051 0.457646 10.3401C0.750672 10.6292 1.1481 10.7917 1.5625 10.7917C1.9769 10.7917 2.37433 10.6292 2.66735 10.3401C2.96038 10.051 3.125 9.65888 3.125 9.25V4.625C3.125 4.21612 3.28962 3.824 3.58265 3.53488C3.87567 3.24576 4.2731 3.08333 4.6875 3.08333H20.3125C20.7269 3.08333 21.1243 3.24576 21.4174 3.53488C21.7104 3.824 21.875 4.21612 21.875 4.625V26.2083C21.875 26.6172 21.7104 27.0093 21.4174 27.2985C21.1243 27.5876 20.7269 27.75 20.3125 27.75H4.6875C4.2731 27.75 3.87567 27.5876 3.58265 27.2985C3.28962 27.0093 3.125 26.6172 3.125 26.2083V21.5833C3.125 21.1745 2.96038 20.7823 2.66735 20.4932C2.37433 20.2041 1.9769 20.0417 1.5625 20.0417C1.1481 20.0417 0.750672 20.2041 0.457646 20.4932C0.16462 20.7823 0 21.1745 0 21.5833V26.2083C0 27.435 0.49386 28.6113 1.37294 29.4787C2.25201 30.3461 3.4443 30.8333 4.6875 30.8333H20.3125C21.5557 30.8333 22.748 30.3461 23.6271 29.4787C24.5061 28.6113 25 27.435 25 26.2083V4.625C25 3.39837 24.5061 2.22199 23.6271 1.35463C22.748 0.487276 21.5557 0 20.3125 0Z" fill="black"/>
</svg>
