<svg width="29" height="32" viewBox="0 0 29 32" fill="none" xmlns="http://www.w3.org/2000/svg">
<path d="M17.4583 17.6224C17.4583 17.2135 17.2959 16.8214 17.0068 16.5323C16.7177 16.2432 16.3255 16.0807 15.9167 16.0807H8.20834C7.79946 16.0807 7.40733 16.2432 7.11821 16.5323C6.82909 16.8214 6.66667 17.2135 6.66667 17.6224C6.66667 18.0313 6.82909 18.4234 7.11821 18.7125C7.40733 19.0016 7.79946 19.1641 8.20834 19.1641H15.9167C16.3255 19.1641 16.7177 19.0016 17.0068 18.7125C17.2959 18.4234 17.4583 18.0313 17.4583 17.6224ZM12.8333 28.4141H5.125C4.71613 28.4141 4.324 28.2516 4.03488 27.9625C3.74576 27.6734 3.58333 27.2813 3.58333 26.8724V5.28906C3.58333 4.88019 3.74576 4.48806 4.03488 4.19894C4.324 3.90982 4.71613 3.7474 5.125 3.7474H12.8333V8.3724C12.8333 9.59902 13.3206 10.7754 14.188 11.6428C15.0553 12.5101 16.2317 12.9974 17.4583 12.9974H22.0833V14.5391C22.0833 14.9479 22.2458 15.3401 22.5349 15.6292C22.824 15.9183 23.2161 16.0807 23.625 16.0807C24.0339 16.0807 24.426 15.9183 24.7151 15.6292C25.0042 15.3401 25.1667 14.9479 25.1667 14.5391V11.4557C25.1667 11.4557 25.1667 11.4557 25.1667 11.3632C25.1523 11.2213 25.1212 11.0816 25.0742 10.947V10.8082C25.0041 10.6475 24.9047 10.5011 24.7813 10.3766L15.5313 1.12656C15.4038 1.00665 15.2581 0.907771 15.0996 0.833646H14.9608C14.8092 0.745005 14.6416 0.687362 14.4675 0.664062H5.125C3.89837 0.664063 2.72199 1.15134 1.85463 2.01869C0.987276 2.88605 0.5 4.06244 0.5 5.28906V26.8724C0.5 28.099 0.987276 29.2754 1.85463 30.1428C2.72199 31.0101 3.89837 31.4974 5.125 31.4974H12.8333C13.2422 31.4974 13.6343 31.335 13.9235 31.0459C14.2126 30.7567 14.375 30.3646 14.375 29.9557C14.375 29.5469 14.2126 29.1547 13.9235 28.8656C13.6343 28.5765 13.2422 28.4141 12.8333 28.4141ZM15.9167 5.92115L19.9096 9.91406H17.4583C17.0495 9.91406 16.6573 9.75164 16.3682 9.46252C16.0791 9.1734 15.9167 8.78127 15.9167 8.3724V5.92115ZM26.7083 19.1641C26.4101 19.166 26.1188 19.2544 25.8698 19.4186C25.6208 19.5828 25.4247 19.8157 25.3054 20.0891C24.3352 19.4942 23.2214 19.1745 22.0833 19.1641C21.0852 19.1626 20.1016 19.4035 19.2171 19.866C18.3326 20.3285 17.5735 20.9988 17.0052 21.8193C16.4368 22.6399 16.0761 23.5861 15.9541 24.5768C15.832 25.5674 15.9523 26.5729 16.3045 27.5068C16.6567 28.4408 17.2304 29.2752 17.9763 29.9386C18.7221 30.6019 19.6178 31.0743 20.5864 31.3152C21.5551 31.556 22.5677 31.5581 23.5374 31.3214C24.507 31.0846 25.4047 30.6159 26.1533 29.9557C26.462 29.6859 26.6509 29.3044 26.6784 28.8953C26.7058 28.4862 26.5697 28.083 26.2998 27.7743C26.0299 27.4656 25.6485 27.2767 25.2394 27.2492C24.8303 27.2218 24.427 27.358 24.1183 27.6278C23.5585 28.1291 22.8348 28.4087 22.0833 28.4141C21.615 28.4065 21.1545 28.2923 20.7368 28.0802C20.3191 27.8681 19.9553 27.5636 19.6729 27.1898C19.3905 26.8161 19.197 26.3829 19.1071 25.9232C19.0171 25.4635 19.0331 24.9893 19.1538 24.5367C19.2745 24.084 19.4967 23.6649 19.8036 23.311C20.1106 22.9571 20.4941 22.6778 20.9251 22.4943C21.3561 22.3107 21.8232 22.2278 22.291 22.2518C22.7589 22.2759 23.2151 22.4061 23.625 22.6328H23.2858C22.877 22.6328 22.4848 22.7952 22.1957 23.0844C21.9066 23.3735 21.7442 23.7656 21.7442 24.1745C21.7442 24.5834 21.9066 24.9755 22.1957 25.2646C22.4848 25.5537 22.877 25.7161 23.2858 25.7161H26.7083C27.1172 25.7161 27.5093 25.5537 27.7985 25.2646C28.0876 24.9755 28.25 24.5834 28.25 24.1745V20.7057C28.25 20.2969 28.0876 19.9047 27.7985 19.6156C27.5093 19.3265 27.1172 19.1641 26.7083 19.1641ZM8.20834 12.9974H9.75C10.1589 12.9974 10.551 12.835 10.8401 12.5459C11.1292 12.2567 11.2917 11.8646 11.2917 11.4557C11.2917 11.0469 11.1292 10.6547 10.8401 10.3656C10.551 10.0765 10.1589 9.91406 9.75 9.91406H8.20834C7.79946 9.91406 7.40733 10.0765 7.11821 10.3656C6.82909 10.6547 6.66667 11.0469 6.66667 11.4557C6.66667 11.8646 6.82909 12.2567 7.11821 12.5459C7.40733 12.835 7.79946 12.9974 8.20834 12.9974ZM8.20834 22.2474C7.79946 22.2474 7.40733 22.4098 7.11821 22.6989C6.82909 22.9881 6.66667 23.3802 6.66667 23.7891C6.66667 24.1979 6.82909 24.5901 7.11821 24.8792C7.40733 25.1683 7.79946 25.3307 8.20834 25.3307H11.2917C11.7005 25.3307 12.0927 25.1683 12.3818 24.8792C12.6709 24.5901 12.8333 24.1979 12.8333 23.7891C12.8333 23.3802 12.6709 22.9881 12.3818 22.6989C12.0927 22.4098 11.7005 22.2474 11.2917 22.2474H8.20834Z" fill="black"/>
</svg>
