<svg width="30" height="30" viewBox="0 0 30 30" fill="none" xmlns="http://www.w3.org/2000/svg">
<path d="M7.1351 6.59537L7.74237 3.55992C7.86599 2.94143 8.20016 2.38491 8.68798 1.98511C9.1758 1.5853 9.78711 1.36694 10.4178 1.36719H19.5815C20.2122 1.36694 20.8235 1.5853 21.3113 1.98511C21.7991 2.38491 22.1333 2.94143 22.2569 3.55992L22.8633 6.59537C22.9584 7.07096 23.1867 7.50977 23.5214 7.86076C23.8561 8.21175 24.2836 8.4605 24.7542 8.5781C25.8628 8.85522 26.8471 9.49496 27.5504 10.3956C28.2537 11.2963 28.6359 12.4062 28.636 13.549V23.1854C28.636 24.632 28.0613 26.0194 27.0384 27.0423C26.0155 28.0652 24.6281 28.6399 23.1815 28.6399H6.81783C5.37119 28.6399 3.98381 28.0652 2.96088 27.0423C1.93796 26.0194 1.36328 24.632 1.36328 23.1854V13.549C1.36318 12.4062 1.74507 11.2962 2.44825 10.3953C3.15143 9.49448 4.13556 8.85452 5.24419 8.57719C5.71457 8.45956 6.14193 8.21091 6.47664 7.86011C6.81135 7.50931 7.03968 7.07075 7.1351 6.59537Z" stroke="black" stroke-width="3" stroke-linecap="round" stroke-linejoin="round"/>
<path d="M20.454 17.728C20.454 18.8068 20.1341 19.8614 19.5348 20.7584C18.9354 21.6554 18.0835 22.3545 17.0868 22.7673C16.0901 23.1802 14.9934 23.2882 13.9353 23.0777C12.8773 22.8673 11.9054 22.3478 11.1425 21.5849C10.3797 20.8221 9.8602 19.8502 9.64973 18.7921C9.43927 17.734 9.54729 16.6373 9.96013 15.6406C10.373 14.6439 11.0721 13.792 11.9691 13.1927C12.8661 12.5933 13.9207 12.2734 14.9995 12.2734C16.4461 12.2734 17.8335 12.8481 18.8564 13.871C19.8793 14.894 20.454 16.2813 20.454 17.728Z" stroke="black" stroke-width="3" stroke-linecap="round" stroke-linejoin="round"/>
<path d="M13.6367 6.82031H16.364" stroke="black" stroke-width="3" stroke-linecap="round" stroke-linejoin="round"/>
</svg>
