<svg width="114" height="114" viewBox="0 0 114 114" fill="none" xmlns="http://www.w3.org/2000/svg">
<path d="M114 57C114 88.4802 88.4802 114 57 114C25.5198 114 0 88.4802 0 57C0 25.5198 25.5198 0 57 0C88.4802 0 114 25.5198 114 57ZM1.95026 57C1.95026 87.4031 26.5969 112.05 57 112.05C87.4031 112.05 112.05 87.4031 112.05 57C112.05 26.5969 87.4031 1.95026 57 1.95026C26.5969 1.95026 1.95026 26.5969 1.95026 57Z" fill="black"/>
<path fill-rule="evenodd" clip-rule="evenodd" d="M42 77H72.9681V72.5212H42V77Z" fill="black"/>
<path fill-rule="evenodd" clip-rule="evenodd" d="M68.7685 37L57.4853 55.5865L46.2034 37H42V68.0531H47.9738V50.7499L55.4064 62.951H59.5655L66.9987 50.7499V68.0531H72.97V37H68.7685Z" fill="black"/>
</svg>
