<svg width="18" height="18" viewBox="0 0 18 18" fill="none" xmlns="http://www.w3.org/2000/svg">
<path d="M6.34836 13.1516L10.0607 16.864L9.00002 17.9246L5.2877 14.2123L6.34836 13.1516Z" fill="black"/>
<path d="M11.6517 13.1516L12.7123 14.2123L9.00002 17.9246L7.93935 16.864L11.6517 13.1516Z" fill="black"/>
<path d="M11.614 4.77297L7.90168 1.06066L8.96234 0L12.6747 3.71231L11.614 4.77297Z" fill="black"/>
<path d="M6.31069 4.77297L5.25003 3.71231L8.96234 0L10.023 1.06066L6.31069 4.77297Z" fill="black"/>
<path d="M13.1517 11.6139L16.864 7.90163L17.9246 8.9623L14.2123 12.6746L13.1517 11.6139Z" fill="black"/>
<path d="M13.1517 6.31065L14.2123 5.24998L17.9246 8.9623L16.864 10.023L13.1517 6.31065Z" fill="black"/>
<path d="M11.25 8.99999C11.25 10.2426 10.2427 11.25 9.00002 11.25C7.75737 11.25 6.75002 10.2426 6.75002 8.99999C6.75002 7.75735 7.75737 6.74999 9.00002 6.74999C10.2427 6.74999 11.25 7.75735 11.25 8.99999Z" fill="black"/>
<path d="M4.77297 6.31065L1.06066 10.023L0 8.9623L3.71231 5.24998L4.77297 6.31065Z" fill="black"/>
<path d="M4.77297 11.6139L3.71231 12.6746L0 8.9623L1.06066 7.90163L4.77297 11.6139Z" fill="black"/>
</svg>
