<svg width="114" height="114" viewBox="0 0 114 114" fill="none" xmlns="http://www.w3.org/2000/svg">
<path d="M114 57C114 88.4802 88.4802 114 57 114C25.5198 114 0 88.4802 0 57C0 25.5198 25.5198 0 57 0C88.4802 0 114 25.5198 114 57ZM1.95026 57C1.95026 87.4031 26.5969 112.05 57 112.05C87.4031 112.05 112.05 87.4031 112.05 57C112.05 26.5969 87.4031 1.95026 57 1.95026C26.5969 1.95026 1.95026 26.5969 1.95026 57Z" fill="#D92832"/>
<rect width="64" height="64" transform="translate(25 25)" fill="white"/>
<path d="M44.2745 66.8995L66.9019 44.2721L69.7303 47.1005L47.1029 69.7279L44.2745 66.8995Z" fill="black"/>
<path d="M44.2745 47.1005L47.1029 44.2721L69.7303 66.8995L66.9019 69.7279L44.2745 47.1005Z" fill="black"/>
</svg>
