<svg xmlns="http://www.w3.org/2000/svg" xmlns:xlink="http://www.w3.org/1999/xlink" width="64" height="64" viewBox="0 0 64 64">
  <defs>
    <clipPath id="clip-outlook">
      <rect width="64" height="64"/>
    </clipPath>
  </defs>
  <g id="outlook" clip-path="url(#clip-outlook)">
    <g id="outlook-svgrepo-com" transform="translate(-1.153 -2)">
      <path id="Path_8" data-name="Path 8" d="M19.484,7.937V20.384l4.354,2.738a1.111,1.111,0,0,0,.477,0L43.037,10.5a2.668,2.668,0,0,0-2.179-2.563Z" transform="translate(22.055 7.555)" fill="#0072c6"/>
      <path id="Path_9" data-name="Path 9" d="M19.485,20.774l3.97,2.727a1.186,1.186,0,0,0,1.234,0c-.682.411,18.346-12.222,18.346-12.222V34.155a3.2,3.2,0,0,1-3.386,3.534H19.483V20.774Z" transform="translate(22.053 11.808)" fill="#0072c6"/>
      <path id="Path_10" data-name="Path 10" d="M12.923,12.932a3.657,3.657,0,0,0-3.227,1.9,9.388,9.388,0,0,0-1.2,5.041A9.2,9.2,0,0,0,9.7,24.9a3.636,3.636,0,0,0,6.3.05,9.122,9.122,0,0,0,1.17-5,9.929,9.929,0,0,0-1.136-5.184,3.491,3.491,0,0,0-3.1-1.838Z" transform="translate(8.063 13.912)" fill="#0072c6"/>
      <path id="Path_11" data-name="Path 11" d="M2.153,9.17V57.864L39.2,65.632V2ZM26.942,41.749a7.343,7.343,0,0,1-6.136,3.093,7.249,7.249,0,0,1-6-3,12.406,12.406,0,0,1-2.307-7.8,13.335,13.335,0,0,1,2.354-8.218A7.424,7.424,0,0,1,21.09,22.68a7.081,7.081,0,0,1,5.931,3A12.815,12.815,0,0,1,29.294,33.6a13.1,13.1,0,0,1-2.352,8.149Z" transform="translate(0)" fill="#0072c6"/>
    </g>
  </g>
</svg>
