<svg xmlns="http://www.w3.org/2000/svg" xmlns:xlink="http://www.w3.org/1999/xlink" width="82" height="82" viewBox="0 0 82 82">
  <defs>
    <clipPath id="clip-Artboard_3">
      <rect width="82" height="82"/>
    </clipPath>
  </defs>
  <g id="Artboard_3" data-name="Artboard – 3" clip-path="url(#clip-Artboard_3)">
    <g id="Group_2" data-name="Group 2" transform="translate(4.882 1.006)">
      <path id="calendar-check" d="M36.189,67.452H55.547A11.387,11.387,0,0,0,66.933,56.065V24.182A11.387,11.387,0,0,0,55.547,12.8H21.387A11.387,11.387,0,0,0,10,24.182v20.5M66.174,28.737H10M51.751,9v7.591M24.423,9v7.591" transform="translate(-1.348 0.831)" fill="none" stroke="#fa3c7a" stroke-linecap="round" stroke-width="2"/>
      <g id="clock" transform="translate(6.65 46.53)">
        <path id="Path_14" data-name="Path 14" d="M12.973,0A12.973,12.973,0,1,1,0,12.973,12.973,12.973,0,0,1,12.973,0Zm0,23.785A10.811,10.811,0,1,0,2.162,12.973,10.811,10.811,0,0,0,12.973,23.785Z" transform="translate(0 0)" fill="#fa3c7a"/>
        <path id="Path_15" data-name="Path 15" d="M11.525,14.885l4.881-2.929V6.081a1.081,1.081,0,1,1,2.162,0v6.487a1.162,1.162,0,0,1-.524.927l-5.406,3.243a1.081,1.081,0,1,1-1.114-1.853Z" transform="translate(-4.513 0.406)" fill="#fa3c7a"/>
      </g>
    </g>
  </g>
</svg>
