<svg xmlns="http://www.w3.org/2000/svg" xmlns:xlink="http://www.w3.org/1999/xlink" width="64" height="64" viewBox="0 0 64 64">
  <defs>
    <clipPath id="clip-yahoo">
      <rect width="64" height="64"/>
    </clipPath>
  </defs>
  <g id="yahoo" clip-path="url(#clip-yahoo)">
    <rect width="64" height="64" fill="#5b2a73"/>
    <path id="Path_13" data-name="Path 13" d="M96.67,97.452l.041-.007L98,96.014l-.063,0,.136-.213H80.053l.694,2.465h4.916l-8.274,7.655c-1.689-2.463-5.646-8.124-8.408-12.37h5.132V91.8l.07-.5-.07-.01v-.2H54.631v2.463h6.093c2.366,1.953,12.623,14.406,13,15.6.15,1.114.364,7.687-.078,8.182-.531.764-6.081.352-7.059.425l-.037,2.414c1.786.053,7.143,0,8.951,0,3.562,0,9.8-.092,10.679-.022l.109-2.286-7.17-.107a77.868,77.868,0,0,1-.165-8.289c.677-2.07,11.679-10.635,12.809-10.958l1.065-.24h3.324Zm-2.689,17.085,3.116.238,3.632-13.321c-.607-.022-6.117-.514-6.833-.648Zm-.539,2.135.017,3.254,1.577.131,1.7.119.5-3.184-1.8-.083Z" transform="translate(-45.631 -74.083)" fill="#fff"/>
  </g>
</svg>
