<svg width="76" height="40" viewBox="0 0 76 40" fill="none" xmlns="http://www.w3.org/2000/svg">
<g id="ACE 1" clip-path="url(#clip0_1764_36831)">
<g id="Layer_2">
<g id="Layer_1-2">
<g id="g10">
<g id="g12">
<g id="g14">
<g id="g16">
<path id="path202" d="M26.8416 18.25C26.7061 19.5983 26.7512 20.9467 27.0223 22.295C27.0223 22.295 28.4681 32.8118 39.2211 33.0365C42.3386 32.8118 43.6488 32.2276 45.2301 31.4635C51.2392 28.5422 52.2332 22.0253 52.2332 22.0253H46.5856C43.3326 29.3511 37.0073 26.8792 37.0073 26.8792L40.5765 10.2051C47.444 10.3849 47.6699 16.8118 47.6699 16.8118H53.4079C53.4079 12.4073 51.0585 8.31744 47.2181 6.07025C45.8627 5.26126 43.6488 4.67699 41.435 4.63205C41.435 4.63205 29.2362 3.868 26.8416 18.25Z" fill="white"/>
<path id="path204" d="M75.6368 6.42971L74.5072 11.5982H64.9289L63.7994 16.7668H73.4229L72.3386 21.9803H62.7151L61.6307 27.1488H71.2542L70.1247 32.3174H50.7422L56.2542 6.38477L75.6368 6.42971Z" fill="white"/>
<path id="path206" d="M14.6867 32.4065L11.5693 15.8672L0.5 32.4065H14.6867Z" fill="white"/>
<path id="path208" d="M28.2871 32.4065H17.6697L13.9648 12.3166L22.2329 -0.0429688L28.2871 32.4065Z" fill="white"/>
<path id="path230" d="M72.4746 30.9694C72.6553 30.9694 72.836 30.9694 72.836 30.6997C72.836 30.43 72.7005 30.475 72.4746 30.475H72.1583V30.9694H72.4746ZM72.2035 31.8682H71.9776V30.3402H72.5649C72.9264 30.3402 73.1071 30.475 73.1071 30.7896C73.1071 31.0143 72.9715 31.1941 72.7456 31.1941C72.7456 31.1941 72.7456 31.1941 72.7005 31.1941L73.1523 31.8682H72.8812L72.4746 31.1941H72.2035V31.8682ZM72.4746 32.1828C73.1071 32.1828 73.6041 31.6885 73.6041 31.1042C73.6041 30.475 73.1071 29.9806 72.5197 29.9806C71.8872 29.9806 71.3902 30.475 71.3902 31.0593C71.3902 31.6885 71.842 32.1828 72.4746 32.1828ZM71.1191 31.0593C71.1191 30.2952 71.7065 29.7109 72.4746 29.7109C73.2426 29.7109 73.83 30.2952 73.83 31.0593C73.83 31.8233 73.2426 32.4076 72.4746 32.4076C71.7065 32.4076 71.1191 31.8233 71.1191 31.0593Z" fill="white"/>
<path id="path232" d="M5.19931 34.1582V34.9672H3.3469V39.0121H2.26257V34.9672H0.410156V34.1582H5.19931Z" fill="white"/>
<path id="path234" d="M5.65039 34.1582H6.64437V36.1807C6.96063 35.7312 7.45762 35.4616 7.99979 35.5065C8.76786 35.4616 9.49075 36.0009 9.53593 36.8099C9.53593 36.8548 9.53593 36.8998 9.53593 36.9447V39.0121H8.54196V37.2593C8.54196 36.4503 8.18051 36.2256 7.68352 36.2256C7.09617 36.2256 6.64437 36.6751 6.64437 37.2593C6.64437 37.3043 6.64437 37.3492 6.64437 37.3942V39.0121H5.65039V34.1582Z" fill="white"/>
<path id="path236" d="M13.6492 36.9011C13.6041 36.3168 13.1523 36.0921 12.5649 36.0921C12.0227 36.0472 11.5709 36.4067 11.4806 36.9011H13.6492ZM11.5257 37.4854C11.5257 38.2045 12.1131 38.4741 12.7004 38.4741C13.0167 38.4741 13.4685 38.3842 13.5589 38.0247H14.6432C14.5529 38.8786 13.3782 39.0584 12.6553 39.0584C10.9384 39.0584 10.4414 38.1595 10.4414 37.2606C10.4414 36.3618 10.9384 35.4629 12.6553 35.4629C13.6041 35.4629 14.7336 35.9123 14.7336 37.2606V37.4854H11.5257Z" fill="white"/>
<path id="path238" d="M18.0335 34.1582H19.0274V36.1807C19.3437 35.7312 19.8407 35.4616 20.3829 35.5065C21.1509 35.4616 21.8738 36.0009 21.919 36.8099C21.919 36.8548 21.919 36.8998 21.919 36.9447V39.0121H20.925V37.2593C20.925 36.4503 20.5636 36.2256 20.0666 36.2256C19.4792 36.2256 19.0274 36.6751 19.0274 37.2593C19.0274 37.3043 19.0274 37.3492 19.0274 37.3942V39.0121H17.9883V34.1582" fill="white"/>
<path id="path240" d="M25.983 36.9011C25.9378 36.3168 25.4408 36.0921 24.8986 36.0921C24.3565 36.0472 23.9046 36.4067 23.8595 36.9011H25.983ZM23.8595 37.4854C23.8595 38.2045 24.4468 38.4741 25.0342 38.4741C25.3504 38.4741 25.8022 38.3842 25.8926 38.0247H26.9769C26.8866 38.8786 25.7119 39.0584 24.989 39.0584C23.2721 39.0584 22.8203 38.1595 22.8203 37.2606C22.8203 36.3618 23.3173 35.4629 24.989 35.4629C25.983 35.4629 27.0673 35.9123 27.0673 37.2606V37.4854H23.8595Z" fill="white"/>
<path id="path242" d="M27.8789 38.9672H28.8729V34.1582H27.8789V38.9672Z" fill="white"/>
<path id="path244" d="M31.9008 38.429C32.5334 38.4739 33.1207 38.0245 33.1659 37.3503C33.2111 36.6762 32.7593 36.1369 32.0816 36.0919C31.449 36.047 30.8617 36.4964 30.8165 37.1706C30.8165 37.2155 30.8165 37.2155 30.8165 37.2605C30.7713 37.8447 31.2231 38.3841 31.8557 38.429H31.9008ZM29.8225 36.4065C29.8225 36.1369 29.8225 35.8223 29.7773 35.5975H30.7713C30.7713 35.7324 30.8165 35.9121 30.8165 36.047C31.1328 35.6425 31.6298 35.4178 32.1719 35.4627C33.1659 35.4627 33.9791 36.2267 33.9791 37.2605C33.9791 38.2492 33.2111 39.0582 32.1719 39.0582C31.6749 39.1031 31.1328 38.8784 30.8165 38.4739V40.2267H29.8225V36.4065Z" fill="white"/>
<path id="path246" d="M35.335 36.2276H34.4766V35.5984H35.335V35.3287C35.335 34.4298 35.7868 34.1152 36.7808 34.1152C37.0519 34.1152 37.4133 34.1152 37.6392 34.1602V34.7894C37.5037 34.7894 37.3229 34.7444 37.1874 34.7444C36.5097 34.7444 36.3742 34.9692 36.3742 35.5085V35.5984H37.4133V36.2276H36.3742V38.9242H35.335V36.2276Z" fill="white"/>
<path id="path248" d="M42.251 38.1594C42.251 38.474 42.2962 38.7437 42.2962 38.9684H41.3022C41.3022 38.7886 41.2571 38.6088 41.2571 38.4291C40.9408 38.8785 40.3986 39.1482 39.8565 39.1032C39.0884 39.1931 38.3655 38.6088 38.3203 37.8448C38.3203 37.7999 38.3203 37.7549 38.3203 37.7549V35.6875H39.3143V37.4403C39.3143 38.2493 39.6757 38.474 40.1727 38.474C40.7601 38.474 41.2119 38.0246 41.2571 37.4403C41.2571 37.3954 41.2571 37.3504 41.2571 37.3055V35.6875H42.251V38.1594Z" fill="white"/>
<path id="path250" d="M43.1973 38.9672H44.2364V34.1582H43.1973V38.9672Z" fill="white"/>
<path id="path252" d="M49.7036 38.429C50.3361 38.4739 50.9235 38.0245 50.9686 37.3503C51.0138 36.7211 50.562 36.1369 49.8843 36.0919C49.2518 36.047 48.6644 36.4964 48.6192 37.1706C48.6192 37.2155 48.6192 37.2155 48.6192 37.2605C48.5741 37.8447 49.0259 38.3841 49.6584 38.429H49.7036ZM47.6253 36.4065C47.6253 36.1369 47.6253 35.8223 47.5801 35.5975H48.5741C48.5741 35.7324 48.6192 35.9121 48.6192 36.047C48.9355 35.6425 49.4325 35.4178 49.9747 35.4627C50.9686 35.4627 51.7819 36.2267 51.7819 37.2605C51.7819 38.2492 51.0138 39.0582 49.9747 39.0582C49.4325 39.1031 48.9355 38.8784 48.6192 38.4739V40.2267H47.6253V36.4065Z" fill="white"/>
<path id="path254" d="M52.5918 38.9672H53.5858V34.1582H52.5918V38.9672Z" fill="white"/>
<path id="path256" d="M56.6142 37.4404C55.8462 37.4404 55.3944 37.5752 55.3944 37.9797C55.3944 38.2045 55.5751 38.5191 56.1624 38.5191C56.795 38.564 57.3823 38.0696 57.4275 37.4404H56.6142ZM58.4667 38.3393C58.4667 38.564 58.4667 38.7438 58.5118 38.9685H57.563C57.563 38.8337 57.563 38.6539 57.563 38.5191C57.1564 38.9236 56.5691 39.1483 55.9817 39.1033C54.807 39.1033 54.4004 38.564 54.4004 38.0696C54.4004 37.0359 55.3944 36.8561 56.7046 36.8561H57.5179C57.5179 36.2719 57.1112 36.0921 56.5691 36.0921C56.0269 36.0921 55.801 36.3168 55.7558 36.5415H54.6715C54.7618 35.6876 55.7106 35.4629 56.5691 35.4629C57.5179 35.4629 58.4667 35.7326 58.4667 36.9011V38.3393Z" fill="white"/>
<path id="path258" d="M62.1709 36.8112C62.1709 36.4067 61.8094 36.0921 61.4028 36.0921H61.3576C60.8154 36.0921 60.3636 36.4516 60.3636 37.3056C60.3636 37.9348 60.6347 38.4741 61.3124 38.4741C61.7191 38.5191 62.1257 38.2494 62.1709 37.8449V37.7999H63.21C63.21 38.6988 62.3064 39.1033 61.3124 39.1033C60.0474 39.1033 59.2793 38.4741 59.2793 37.3056C59.2793 36.137 60.0925 35.5078 61.2672 35.5078C62.6227 35.5078 63.1197 36.0921 63.1648 36.8112H62.1709Z" fill="white"/>
<path id="path260" d="M67.0067 36.9011C66.9615 36.3168 66.5097 36.0921 65.9223 36.0921C65.3802 36.0472 64.9283 36.4067 64.838 36.9011H67.0067ZM64.8832 37.4854C64.8832 38.2045 65.4705 38.4741 66.0579 38.4741C66.3741 38.4741 66.8259 38.3842 66.9163 38.0247H68.0006C67.9103 38.8786 66.7356 39.0584 66.0127 39.0584C64.2958 39.0584 63.7988 38.1595 63.7988 37.2606C63.7988 36.3618 64.2958 35.4629 66.0127 35.4629C66.9615 35.4629 68.091 35.9123 68.091 37.2606V37.4854H64.8832Z" fill="white"/>
<path id="path262" d="M69.1758 38.9694H70.1247V38.0254H69.1758V38.9694Z" fill="white"/>
</g>
</g>
</g>
</g>
</g>
</g>
</g>
<defs>
<clipPath id="clip0_1764_36831">
<rect width="75" height="40" fill="white" transform="translate(0.5)"/>
</clipPath>
</defs>
</svg>
