<svg width="64" height="65" viewBox="0 0 64 65" fill="none" xmlns="http://www.w3.org/2000/svg">
<path d="M27.401 48.5655C25.8954 49.4831 26.8085 50.6129 29.3942 51.2375C31.6207 50.7204 34.6709 50.6778 37.1324 51.3437C38.0819 51.1495 38.8873 50.8852 39.405 50.5527C43.0221 48.2287 31.5754 46.0216 27.401 48.5655Z" fill="#E8E8E8"/>
<path d="M48.6787 53.5455C48.1612 53.8584 47.3884 53.6668 42.8684 53.1311C42.7337 53.1153 42.6491 53.1218 42.5437 53.1488C41.3644 53.4487 40.4348 53.5759 39.7613 53.689C39.6914 53.8336 39.5803 53.9747 39.4305 54.1139C39.3204 54.5027 39.2082 54.8912 39.094 55.2799C39.033 55.4881 38.7181 55.581 38.0576 55.5857C35.6148 55.6029 33.1718 55.6197 30.7286 55.6367C29.9628 55.6421 29.6223 55.5533 29.4756 55.3123C29.1806 54.8264 28.8821 54.341 28.5905 53.8551C28.496 53.6954 27.7272 53.7935 25.4165 53.2687C25.1274 53.203 25.462 53.1921 20.6763 53.8451C19.1438 54.0539 18.7693 53.451 15.2489 51.7027C14.9085 51.5339 14.9782 51.3871 15.4576 51.2601C19.166 50.2772 19.2605 50.3098 19.1964 50.1954C19.0099 49.8632 18.9348 49.5289 19.0181 49.1948C19.1056 48.8404 14.7293 48.2707 14.4725 47.944L14.2913 47.8877C14.2903 48.0361 14.2682 51.5233 14.2696 51.3081C14.2783 51.4818 14.6828 51.5669 14.8519 51.6114L14.8614 55.3625C14.8413 55.5333 14.9127 55.5115 19.108 57.8491C19.4572 58.0438 19.9181 58.0962 20.5003 58.0071C25.2887 57.2728 24.9539 57.2857 25.2405 57.3592C27.5297 57.9433 28.3209 57.8404 28.4146 58.0184C28.7062 58.5646 29.0046 59.1103 29.2997 59.6564C29.4463 59.9274 29.7868 60.0272 30.5527 60.0212C32.9958 60.002 35.4388 59.9831 37.8818 59.9638C38.5423 59.9584 38.8571 59.854 38.918 59.62C39.0621 59.0688 39.2074 58.5176 39.3427 57.9659C39.3991 57.7343 40.1202 57.8671 42.3677 57.2242C42.6515 57.1428 45.957 57.6571 47.4059 57.8244C47.8524 57.876 48.2892 57.8153 48.5027 57.6702C50.4664 56.3372 52.3571 55.1037 52.1255 55.1272C52.1041 54.0193 52.0524 51.3317 52.0557 51.5014C50.9316 52.1831 49.8064 52.8644 48.6787 53.5455Z" fill="#E8E8E8"/>
<path d="M51.4561 50.6058C51.391 50.5963 51.3011 50.7099 51.1992 50.8822C51.4087 50.9309 51.619 50.9791 51.8283 51.0279C51.6794 50.8415 51.5096 50.6136 51.4561 50.6058Z" fill="#E8E8E8"/>
<path d="M46.8441 17.3618C46.2194 12.0692 42.1152 7.43819 37.1044 5.79657C31.5118 3.96674 25.4087 6.29605 22.1823 10.599C17.678 16.3703 18.4462 23.858 23.0155 28.4981C23.1134 28.5961 23.2237 28.7186 23.3339 28.8044C27.4081 32.2486 24.4289 35.3865 26.7398 36.927C27.1441 36.6942 27.6097 36.5717 28.112 36.5717H39.1258C39.5179 36.5717 39.8854 36.6452 40.2162 36.7922C40.5837 36.5104 40.8288 36.1797 40.9146 35.8122C41.8579 34.1092 39.8732 31.4752 43.279 28.2899C46.1336 25.6191 47.2974 21.1351 46.8441 17.3618Z" fill="#229E79"/>
<path d="M51.9659 50.767C50.6613 50.4624 49.3521 50.1588 48.0385 49.8574C48.0675 49.6052 48.0284 49.3474 47.9235 49.084C51.5671 48.0998 51.9444 48.146 51.9916 47.6945C52.0217 47.3965 51.707 47.2403 51.572 47.1733C47.8693 45.3551 47.4733 45.1022 47.082 45.0204C46.7349 44.9757 46.409 44.9769 46.0508 45.0271C41.4956 45.6327 41.6891 45.681 41.3075 45.594C39.7237 45.2342 38.4947 45.1273 38.3655 45.0996C38.2519 44.9096 37.5885 43.8002 37.4493 43.622C37.6952 43.1988 37.8664 42.7313 37.9687 42.2358H39.1267C40.7706 42.2358 42.1077 40.9869 42.1077 39.4512V39.0706C42.1077 37.4866 40.7182 36.286 39.1267 36.286H28.1121C26.5009 36.286 25.1311 37.512 25.1311 39.0706V39.4512C25.1311 40.9869 26.4682 42.2358 28.1121 42.2358H28.8903C28.9661 42.6035 29.0831 42.9534 29.24 43.2831L28.6389 43.2871C28.1601 43.2905 27.5083 43.3463 27.38 43.7827C27.2427 44.2503 27.1054 44.7179 26.976 45.1845C24.2496 45.6039 24.2713 45.7811 23.8889 45.7425C19.6243 45.2484 18.9037 45.0773 18.2662 45.2403C17.9778 45.31 18.1929 45.2029 14.4269 47.4824C14.1613 47.6432 14.149 47.8374 14.1646 47.9389C14.2104 48.2224 14.5273 48.3318 14.7996 48.3954C18.2795 49.2087 18.6461 49.2816 18.7092 49.3005C18.6791 49.5516 18.7171 49.8106 18.8231 50.0751C17.6735 50.3775 16.5296 50.68 15.3856 50.9836C15.0898 51.0617 14.7829 51.18 14.7539 51.4668C14.7338 51.6621 14.8577 51.8273 15.1222 51.9579L19.1579 53.9601C19.5619 54.1621 20.072 54.2168 20.7159 54.1286C25.4629 53.4476 25.2238 53.5177 25.3532 53.5472C26.9043 53.8995 28.2435 54.0356 28.38 54.0583L29.2327 55.4601C29.5112 55.9176 30.1895 55.9222 30.7316 55.9222L38.0608 55.8708C38.6646 55.8664 39.2405 55.8016 39.3688 55.3597C39.4967 54.9252 39.6571 54.3815 39.7695 53.9746C39.7851 53.9713 39.8052 53.9679 39.8287 53.9646C44.2644 53.3206 40.7142 53.1836 47.005 53.9032C47.5145 53.9653 48.336 54.0853 48.8264 53.7894C50.0005 53.0807 51.1735 52.372 52.3432 51.6621C52.7086 51.4387 52.7309 50.9445 51.9659 50.767ZM25.7025 39.4512V39.0706C25.7025 37.7829 26.858 36.8574 28.1121 36.8574H39.1267C40.41 36.8574 41.5363 37.8138 41.5363 39.0706V39.4512C41.5363 40.6711 40.4548 41.6644 39.1267 41.6644H28.1121C26.784 41.6644 25.7025 40.6711 25.7025 39.4512ZM48.5307 53.3005C48.2037 53.4994 47.4045 53.3752 47.034 53.3318C40.6437 52.6129 44.188 52.7478 39.7461 53.3999C39.6066 53.4199 39.3164 53.4624 39.2438 53.7324C39.1629 54.0265 38.8598 55.0721 38.8264 55.1867C38.6268 55.4084 36.2413 55.2465 30.7271 55.3507C30.12 55.3452 29.8008 55.2949 29.7204 55.1632L28.8376 53.7112C28.6232 53.3438 28.1825 53.6027 25.4793 52.9891C25.2445 52.9378 25.5013 52.8531 20.6378 53.5617C20.12 53.6342 19.7059 53.5952 19.4124 53.449L15.5485 51.5315C19.3975 50.5119 19.3676 50.5879 19.4671 50.3474C19.5873 50.0587 19.1588 49.8142 19.2952 49.2659C19.3142 49.1911 19.2952 49.0472 19.255 48.9813C19.1063 48.7398 19.1299 48.8204 14.938 47.8418C18.4898 45.6912 18.2142 45.8421 18.4057 45.7938C18.8856 45.6725 18.9819 45.7467 23.8231 46.3095C24.3719 46.3759 24.3493 46.1461 27.0039 45.7581C27.1412 45.7391 27.4258 45.699 27.5005 45.4333C27.6367 44.9356 27.7829 44.44 27.9124 43.9746C27.9135 43.9735 28.0351 43.863 28.6434 43.8586L29.5641 43.8523C31.3437 46.5327 35.1631 46.6482 37.1092 44.1294C38.4563 46.3397 37.2967 45.2653 41.1802 46.1521C41.73 46.2747 41.785 46.1714 46.1289 45.594C46.4369 45.5516 46.7092 45.5494 46.947 45.5717C47.5571 45.7806 46.8386 45.4876 51.2003 47.6264C51.0718 47.6666 49.4222 48.0969 47.6244 48.5717C47.5307 48.5963 47.3543 48.6432 47.2829 48.8128C47.1599 49.0985 47.5908 49.3536 47.4503 49.9054C47.4302 49.9813 47.4481 50.1141 47.4883 50.1811C47.5764 50.3284 47.745 50.3764 47.909 50.4144C49.2126 50.7135 50.5128 51.0148 51.8097 51.3173C50.7193 51.9791 49.6267 52.6398 48.5307 53.3005Z" fill="white"/>
<path d="M36.3843 47.4324C33.0596 46.8844 28.9669 47.2817 27.2571 48.3208C24.9599 49.7234 27.4145 51.2241 30.2783 51.7103C32.9084 52.1533 37.504 52.1158 39.564 50.7929C41.6265 49.4694 39.5215 47.9542 36.3843 47.4324ZM39.256 50.3129C37.6968 51.3141 33.6277 51.6946 30.3732 51.1478C28.3769 50.808 25.8132 49.8684 27.554 48.8096C29.1366 47.8464 33.1366 47.4725 36.2906 47.9971C38.2221 48.3171 40.9045 49.2527 39.256 50.3129Z" fill="white"/>
<path d="M20.886 21.6866C21.3279 24.0532 22.6636 26.2269 24.552 27.6515C24.7106 27.7793 24.8391 27.8916 24.9559 27.8741C25.1391 27.8467 25.1899 27.6042 25.031 27.5064C24.9623 27.4643 24.86 27.3845 24.792 27.3324C22.9827 25.967 21.7022 23.8828 21.2788 21.6135C21.2308 21.3558 20.8374 21.4256 20.886 21.6866Z" fill="white"/>
<path d="M36.9928 8.12552C41.0182 9.442 44.1501 13.0943 44.6282 17.1188C44.6633 17.4228 45.1187 17.3655 45.0823 17.0652C44.5836 12.8691 41.3238 9.06037 37.1358 7.69116C36.8443 7.59681 36.708 8.03202 36.9928 8.12552Z" fill="white"/>
<path d="M31.9787 15.8142V18.8942C31.9787 19.1276 31.886 19.3514 31.7209 19.5165C31.5559 19.6815 31.3321 19.7742 31.0987 19.7742H28.0187C27.7853 19.7742 27.5614 19.6815 27.3964 19.5165C27.2314 19.3514 27.1387 19.1276 27.1387 18.8942V15.8142C27.1387 15.5808 27.2314 15.357 27.3964 15.192C27.5614 15.0269 27.7853 14.9342 28.0187 14.9342H31.0987C31.3321 14.9342 31.5559 15.0269 31.7209 15.192C31.886 15.357 31.9787 15.5808 31.9787 15.8142ZM37.2587 14.9342H34.1787C33.9453 14.9342 33.7214 15.0269 33.5564 15.192C33.3914 15.357 33.2987 15.5808 33.2987 15.8142V18.8942C33.2987 19.1276 33.3914 19.3514 33.5564 19.5165C33.7214 19.6815 33.9453 19.7742 34.1787 19.7742H37.2587C37.4921 19.7742 37.7159 19.6815 37.8809 19.5165C38.046 19.3514 38.1387 19.1276 38.1387 18.8942V15.8142C38.1387 15.5808 38.046 15.357 37.8809 15.192C37.7159 15.0269 37.4921 14.9342 37.2587 14.9342ZM31.0987 21.0942H28.0187C27.7853 21.0942 27.5614 21.1869 27.3964 21.352C27.2314 21.517 27.1387 21.7408 27.1387 21.9742V25.0542C27.1387 25.2876 27.2314 25.5114 27.3964 25.6765C27.5614 25.8415 27.7853 25.9342 28.0187 25.9342H31.0987C31.3321 25.9342 31.5559 25.8415 31.7209 25.6765C31.886 25.5114 31.9787 25.2876 31.9787 25.0542V21.9742C31.9787 21.7408 31.886 21.517 31.7209 21.352C31.5559 21.1869 31.3321 21.0942 31.0987 21.0942ZM35.7187 21.0942C35.24 21.0942 34.7722 21.2361 34.3742 21.502C33.9762 21.768 33.666 22.1459 33.4829 22.5881C33.2997 23.0303 33.2518 23.5169 33.3452 23.9863C33.4385 24.4558 33.669 24.887 34.0075 25.2254C34.3459 25.5638 34.7771 25.7943 35.2466 25.8877C35.716 25.9811 36.2026 25.9332 36.6448 25.75C37.087 25.5668 37.4649 25.2567 37.7308 24.8587C37.9967 24.4607 38.1387 23.9928 38.1387 23.5142C38.1387 22.8724 37.8837 22.2568 37.4299 21.803C36.976 21.3492 36.3605 21.0942 35.7187 21.0942Z" fill="white"/>
<path d="M20.5193 9.39539C20.7818 9.66308 21.1925 9.26589 20.9278 8.99584L17.9646 5.96124C17.6975 5.69142 17.2929 6.09222 17.5562 6.3608L20.5193 9.39539Z" fill="white"/>
<path d="M16.2126 19.3597L11.6267 20.4891C11.2584 20.5799 11.3973 21.1363 11.7629 21.0449L16.3488 19.9155C16.7232 19.8232 16.5678 19.2601 16.2126 19.3597Z" fill="white"/>
<path d="M19.9317 31.4614L16.2621 36.3297C16.0314 36.6328 16.4932 36.974 16.7175 36.6735L20.3871 31.8052C20.6158 31.5046 20.1575 31.1586 19.9317 31.4614Z" fill="white"/>
<path d="M46.7018 9.719L50.5824 7.24914C50.9046 7.04508 50.5898 6.56356 50.2766 6.76699L46.396 9.23686C46.0715 9.44235 46.3886 9.92031 46.7018 9.719Z" fill="white"/>
<path d="M47.5226 22.0973C51.2891 23.3028 51.4467 23.3808 51.5617 23.3808C51.8853 23.3808 51.9591 22.9239 51.6487 22.8227L47.6967 21.5526C47.3349 21.4419 47.1633 21.9802 47.5226 22.0973Z" fill="white"/>
<path d="M45.6643 30.7959C48.3633 32.9547 48.2621 32.9767 48.4545 32.9767C48.7226 32.9767 48.8429 32.6378 48.6342 32.4689L46.0237 30.3517C45.7324 30.1143 45.369 30.557 45.6643 30.7959Z" fill="white"/>
</svg>
