<svg width="56" height="45" viewBox="0 0 56 45" fill="none" xmlns="http://www.w3.org/2000/svg">
<g id="Layer_1" clip-path="url(#clip0_1426_24228)">
<path id="Vector" d="M16.3195 31.2086C12.4667 32.6486 7.41715 31.215 7.51955 26.9206L7.34675 27.2406C3.19955 29.3014 -1.77965 21.7238 1.48435 16.4246C2.87315 14.159 5.54195 12.9046 8.01875 13.3526C8.74195 8.42458 14.2779 5.78138 17.4779 8.12378C15.6475 9.18618 14.2203 11.1254 13.8939 13.3526C11.4171 12.9046 8.74835 14.159 7.35955 16.4246C4.10835 21.7046 9.06195 29.3078 13.2219 27.2406L13.4075 26.9206C13.3435 29.1606 14.6235 30.5302 16.3195 31.2086Z" fill="#E8E8E8"/>
<path id="Vector_2" d="M27.1566 33.9924C24.3278 34.6644 21.2302 33.922 18.9902 31.7396C21.9854 31.8804 22.6894 30.6644 23.867 30.6196C24.7822 31.8356 25.9022 32.7508 27.1438 33.3524C27.1566 33.5572 27.1566 33.7812 27.1566 33.9988V33.9924Z" fill="#E8E8E8"/>
<path id="Vector_3" d="M33.3782 1.25658C28.5078 1.44218 24.9878 5.49338 24.6102 9.73018C24.0214 8.07898 21.9478 6.83098 19.2598 7.40058C20.2134 4.82778 22.2678 2.72218 24.7062 1.80698C26.6902 1.09018 27.5286 1.35258 33.359 0.930176L33.3718 1.25658H33.3782Z" fill="#E8E8E8"/>
<path id="Vector_4" d="M54.4117 16.4626C52.1781 11.8226 47.2821 10.6642 45.4325 11.8418C44.6773 8.28344 42.8021 5.16024 40.2485 3.21464C34.1493 -1.47016 25.8229 1.54424 24.4469 8.80184C23.1733 6.97144 20.0693 6.26104 17.3301 7.87384C15.4165 8.98744 14.0533 10.8946 13.6565 13.0258C11.1541 12.693 8.50448 14.005 7.11568 16.277C3.78768 21.6786 8.73488 29.4866 13.1445 27.5922C13.5413 31.7266 18.9685 33.0194 22.6357 31.3234C23.0005 31.157 23.3973 30.9714 23.7365 30.9138C24.5877 32.021 25.6437 32.885 26.8661 33.5058C26.9173 35.0226 26.8789 37.333 26.6677 40.0146C26.6549 40.1746 26.7829 40.3218 26.9493 40.3218H51.4421C51.6213 40.3218 51.7557 40.1554 51.7237 39.9826C51.0837 36.6546 50.4117 33.8194 49.6565 31.3234C51.3141 30.453 52.7477 29.2498 53.7013 27.8866C55.9029 24.7442 56.1909 20.1554 54.4117 16.4626ZM27.2565 39.7522C27.7237 33.493 27.5253 26.8754 24.9653 21.1474C24.6709 20.4882 24.3317 19.8226 23.9605 19.1634L42.3541 18.7282C47.5445 24.5138 49.5669 31.957 51.0901 39.7522H27.2565ZM53.2277 27.5602C52.3445 28.821 51.0133 29.941 49.4837 30.7602C47.9157 25.749 46.1301 22.5746 43.9093 19.7074L44.4533 16.373L21.5221 17.1282L22.5205 21.3458L24.3893 21.2754C24.4021 21.3074 24.4213 21.3458 24.4405 21.3778C25.8869 24.6162 26.6677 28.3666 26.8277 32.8338C25.7589 32.2386 24.8373 31.445 24.0885 30.4402C24.0309 30.3634 23.9477 30.325 23.8453 30.325C22.7125 30.3698 21.7333 31.5794 18.9877 31.445C16.1077 31.3682 13.5989 29.9154 13.6821 26.9202C13.6821 26.7922 13.5989 26.6706 13.4773 26.6386C13.1765 26.549 13.1061 26.8946 13.0101 27.0098C9.15088 28.8146 4.50448 21.5762 7.59568 16.565C8.90128 14.4402 11.4101 13.237 13.7269 13.6146C14.0853 13.8322 14.4053 14.1138 14.6613 14.4466C14.8917 14.7474 15.3461 14.4018 15.1157 14.101C14.8597 13.7618 14.5397 13.4866 14.1941 13.2498C14.5333 11.2594 15.8261 9.39704 17.6117 8.36024C20.4661 6.67704 23.6021 7.76504 24.3317 9.81944C24.3509 9.87064 24.3893 9.90904 24.4341 9.94104C24.6389 10.4082 24.7669 10.9138 24.7733 11.4258C24.7733 11.797 25.3493 11.8034 25.3429 11.4194C25.3429 10.7922 25.1765 10.1714 24.9077 9.60184C25.3301 5.67224 28.6133 1.71704 33.3749 1.53784C35.6405 1.42904 37.9957 2.20344 39.8901 3.66264C44.2741 7.00344 44.8693 12.3602 45.0165 12.5394C44.8565 12.981 44.6773 13.4098 44.4597 13.8258C44.2869 14.1586 44.7925 14.4274 44.9653 14.0946C45.2533 13.5442 45.4965 12.9682 45.6885 12.3794C45.6885 12.3794 45.6885 12.373 45.6885 12.3666C47.1541 11.3554 51.7173 12.2066 53.8869 16.7122C55.5765 20.2258 55.3077 24.5842 53.2213 27.5602H53.2277Z" fill="white"/>
<path id="Vector_5" d="M49.5007 30.7822C47.9327 25.771 46.1471 22.5966 43.9263 19.7294L44.4703 16.395L21.5391 17.1502L22.5375 21.3678L24.4063 21.2974C24.4191 21.3294 24.4383 21.3678 24.4575 21.3998C25.9039 24.6382 26.6847 28.3886 26.8447 32.8558L26.8703 33.5214C26.9215 35.0382 26.8831 37.3486 26.6719 40.0302C26.6591 40.1902 26.7871 40.3374 26.9535 40.3374H51.4463C51.6255 40.3374 51.7599 40.171 51.7279 39.9982C51.0879 36.6702 50.4159 33.835 49.6607 31.339C49.6415 31.3454 49.6799 31.3326 49.6607 31.339" fill="#229E79"/>
<path id="Vector_6" d="M33.134 23.2152C30.8684 24.9368 30.766 28.3096 32.9036 30.7352C35.0348 33.1608 38.5996 33.7368 40.8652 32.0024C43.118 30.2808 43.2204 26.9208 41.0828 24.4824C38.9516 22.0568 35.3868 21.4808 33.134 23.2152Z" fill="white"/>
<path id="Vector_7" d="M40.3013 27.5927C40.0005 27.7911 39.6357 27.8935 39.2325 27.8935C39.2133 27.8935 39.1877 27.8935 39.1685 27.8935L38.0421 27.7655C37.9397 27.7527 37.8629 27.6695 37.8693 27.5799C37.8821 27.4903 37.9717 27.4263 38.0805 27.4391L39.1621 27.5607C39.1621 27.5607 39.1749 27.5607 39.1813 27.5607C39.5141 27.5671 39.8149 27.4839 40.0581 27.3239C40.6789 26.9079 40.7493 26.1079 40.2117 25.5383C39.6741 24.9623 38.7397 24.8343 38.1189 25.2503C37.8757 25.4103 37.7093 25.6407 37.6453 25.9159C37.6453 25.9223 37.6453 25.9351 37.6325 25.9415L36.9541 29.3783C36.9541 29.3783 36.9477 29.4103 36.9349 29.4231C36.8389 29.7495 36.6341 30.0311 36.3397 30.2295C35.5589 30.7543 34.3749 30.5943 33.7093 29.8775C33.0437 29.1607 33.1333 28.1559 33.9141 27.6311C34.2149 27.4327 34.5797 27.3303 34.9829 27.3303C35.0021 27.3303 35.0277 27.3303 35.0469 27.3303L36.1733 27.4583C36.2757 27.4711 36.3525 27.5543 36.3461 27.6439C36.3333 27.7335 36.2437 27.7975 36.1349 27.7847L35.0533 27.6631C35.0533 27.6631 35.0405 27.6631 35.0341 27.6631C34.7013 27.6567 34.4005 27.7399 34.1573 27.8999C33.5365 28.3159 33.4661 29.1159 34.0037 29.6855C34.5413 30.2615 35.4757 30.3895 36.0965 29.9735C36.3397 29.8135 36.5061 29.5831 36.5701 29.3079C36.5701 29.3015 36.5701 29.2887 36.5829 29.2823L37.2613 25.8455C37.2613 25.8455 37.2677 25.8135 37.2805 25.8007C37.3765 25.4743 37.5813 25.1927 37.8757 24.9943C38.6565 24.4695 39.8405 24.6295 40.5061 25.3463C41.1717 26.0631 41.0821 27.0679 40.3013 27.5927Z" fill="#229E79"/>
<path id="Vector_8" d="M36.2757 27.746L35.3861 28.3348C35.3029 28.386 35.1813 28.3732 35.1173 28.3028C35.0533 28.2324 35.0597 28.13 35.1429 28.0724L35.8789 27.5796L35.2709 26.9332C35.2069 26.8628 35.2133 26.7604 35.2965 26.7028C35.3797 26.6452 35.5013 26.6644 35.5653 26.7348L36.2949 27.5156C36.3589 27.586 36.3525 27.6884 36.2693 27.746H36.2757Z" fill="#229E79"/>
<path id="Vector_9" d="M38.9106 28.514C38.8274 28.5652 38.7058 28.5524 38.6418 28.482L37.9122 27.7012C37.8482 27.6308 37.8546 27.5284 37.9378 27.4708L38.8274 26.882C38.9106 26.8244 39.0322 26.8436 39.0962 26.914C39.1602 26.9844 39.1538 27.0868 39.0706 27.1444L38.3346 27.6372L38.9426 28.2836C39.0066 28.354 39.0002 28.4564 38.917 28.514H38.9106Z" fill="#229E79"/>
<path id="Vector_10" d="M25.513 37.5061L22.0698 38.0565C21.6986 38.1141 21.7818 38.6773 22.1594 38.6197L25.6026 38.0693C25.9738 38.0117 25.8906 37.4485 25.513 37.5061Z" fill="white"/>
<path id="Vector_11" d="M24.86 39.9252L23.516 41.2244C23.2408 41.4932 23.644 41.8964 23.9128 41.634L25.2568 40.3348C25.5256 40.0724 25.1352 39.6628 24.86 39.9252Z" fill="white"/>
<path id="Vector_12" d="M27.1239 41.6021L26.4775 43.8997C26.3751 44.2645 26.9255 44.4181 27.0279 44.0533L27.6743 41.7557C27.7767 41.3909 27.2263 41.2309 27.1239 41.6021Z" fill="white"/>
<line id="Line 3" x1="23.9202" y1="19.1711" x2="42.6211" y2="18.7467" stroke="white" stroke-width="0.32"/>
</g>
<defs>
<clipPath id="clip0_1426_24228">
<rect width="55.1424" height="43.328" fill="white" transform="translate(0.429688 0.930176)"/>
</clipPath>
</defs>
</svg>
