<?xml version="1.0" encoding="UTF-8"?>
<svg id="Layer_2" data-name="Layer 2" xmlns="http://www.w3.org/2000/svg" viewBox="0 0 96 89.98">
  <defs>
    <style>
      .cls-1 {
        fill: #1e1e1e;
      }

      .cls-1, .cls-2 {
        stroke-width: 0px;
      }

      .cls-2 {
        fill: #229e79;
      }
    </style>
  </defs>
  <g id="Layer_1-2" data-name="Layer 1">
    <g>
      <path class="cls-1" d="M48,87.78c-.49,0-.98-.19-1.36-.56l-3.42-3.42c-.75-.75-.75-1.97,0-2.72.75-.75,1.97-.75,2.72,0l2.06,2.06,2.06-2.06c.75-.75,1.97-.75,2.71,0,.75.75.75,1.97,0,2.72l-3.42,3.42c-.37.38-.87.56-1.36.56Z"/>
      <path class="cls-1" d="M66.19,89.98c-.49,0-.98-.19-1.36-.56-.75-.75-.75-1.96,0-2.71l2.06-2.06-2.06-2.06c-.75-.75-.75-1.97,0-2.72.75-.75,1.97-.75,2.71,0l3.42,3.42c.75.75.75,1.97,0,2.72l-3.42,3.42c-.38.38-.87.56-1.36.56Z"/>
      <path class="cls-1" d="M30.39,89.98c-.49,0-.98-.19-1.36-.56l-3.42-3.42c-.36-.36-.56-.85-.56-1.36s.2-1,.56-1.36l3.42-3.42c.75-.75,1.97-.75,2.72,0,.75.75.75,1.97,0,2.72l-2.06,2.06,2.06,2.06c.75.75.75,1.97,0,2.71-.38.38-.87.56-1.36.56Z"/>
      <path class="cls-1" d="M80.66,55.11c-.28,0-9.6-.03-9.6-.03v-3.84s9.32.03,9.6.03c6.34,0,11.5-5.16,11.5-11.5s-5.16-11.5-11.5-11.5c-2.92,0-5.72,1.11-7.86,3.11-.56.52-1.37.66-2.08.36-.7-.3-1.16-1-1.16-1.76v-.12c0-1.81-.23-3.61-.67-5.34-.26-1.03.35-2.07,1.38-2.34,1.02-.26,2.07.36,2.34,1.38.24.93.42,1.87.55,2.82,2.27-1.28,4.84-1.95,7.49-1.95,8.46,0,15.34,6.88,15.34,15.34s-6.88,15.34-15.34,15.34Z"/>
      <path class="cls-1" d="M15.34,55.11c-8.46,0-15.34-6.88-15.34-15.34s6.88-15.34,15.34-15.34c2.8,0,5.48.74,7.83,2.14,1.62-12.36,12.22-21.93,25.01-21.93,2.31,0,4.6.31,6.81.93,1.02.28,1.62,1.34,1.33,2.37-.29,1.02-1.34,1.62-2.37,1.33-1.87-.52-3.81-.79-5.77-.79-11.79,0-21.38,9.59-21.38,21.38,0,.12,0,.23,0,.34.05.8-.4,1.55-1.13,1.87-.73.33-1.59.17-2.15-.4-2.18-2.2-5.09-3.41-8.18-3.41-6.34,0-11.5,5.16-11.5,11.5s5.16,11.5,11.5,11.5c.28,0,10.01-.03,10.01-.03v3.84s-9.72.03-10.01.03Z"/>
      <path class="cls-1" d="M48,86.56c-1.06,0-1.92-.86-1.92-1.92v-17.94c0-1.06.86-1.92,1.92-1.92s1.92.86,1.92,1.92v17.94c0,1.06-.86,1.92-1.92,1.92Z"/>
      <path class="cls-1" d="M38.47,86.56h-10.01c-1.06,0-1.92-.86-1.92-1.92s.86-1.92,1.92-1.92h8.09v-16.02c0-1.06.86-1.92,1.92-1.92s1.92.86,1.92,1.92v17.94c0,1.06-.86,1.92-1.92,1.92Z"/>
      <path class="cls-1" d="M67.9,86.56h-10.01c-1.06,0-1.92-.86-1.92-1.92v-17.49c0-1.06.86-1.92,1.92-1.92s1.92.86,1.92,1.92v15.57h8.09c1.06,0,1.92.86,1.92,1.92s-.86,1.92-1.92,1.92Z"/>
      <path class="cls-2" d="M65.65,35.97H30.71c-1.07,0-1.94.87-1.94,1.94v6.02c0,1.07.87,1.94,1.94,1.94h34.94c1.07,0,1.94-.87,1.94-1.94v-6.02c0-1.07-.87-1.94-1.94-1.94ZM42.13,41.89h-9.43c-.54,0-.97-.43-.97-.97s.43-.97.97-.97h9.43c.54,0,.97.43.97.97s-.43.97-.97.97ZM55.11,41.89h-1.09c-.54,0-.97-.43-.97-.97s.43-.97.97-.97h1.09c.54,0,.97.43.97.97s-.43.97-.97.97ZM60.03,41.89h-2.14c-.54,0-.97-.43-.97-.97s.43-.97.97-.97h2.14c.54,0,.97.43.97.97s-.43.97-.97.97Z"/>
      <path class="cls-2" d="M65.65,46.83H30.71c-1.07,0-1.94.87-1.94,1.94v6.02c0,1.07.87,1.94,1.94,1.94h34.94c1.07,0,1.94-.87,1.94-1.94v-6.02c0-1.07-.87-1.94-1.94-1.94ZM42.13,52.75h-9.43c-.54,0-.97-.43-.97-.97s.43-.97.97-.97h9.43c.54,0,.97.43.97.97s-.43.97-.97.97ZM55.11,52.75h-1.09c-.54,0-.97-.43-.97-.97s.43-.97.97-.97h1.09c.54,0,.97.43.97.97s-.43.97-.97.97ZM60.03,52.75h-2.14c-.54,0-.97-.43-.97-.97s.43-.97.97-.97h2.14c.54,0,.97.43.97.97s-.43.97-.97.97Z"/>
      <path class="cls-2" d="M65.65,57.68H30.71c-1.07,0-1.94.87-1.94,1.94v6.02c0,1.07.87,1.94,1.94,1.94h34.94c1.07,0,1.94-.87,1.94-1.94v-6.02c0-1.07-.87-1.94-1.94-1.94ZM42.13,63.6h-9.43c-.54,0-.97-.43-.97-.97s.43-.97.97-.97h9.43c.54,0,.97.43.97.97s-.43.97-.97.97ZM55.11,63.6h-1.09c-.54,0-.97-.43-.97-.97s.43-.97.97-.97h1.09c.54,0,.97.43.97.97s-.43.97-.97.97ZM60.03,63.6h-2.14c-.54,0-.97-.43-.97-.97s.43-.97.97-.97h2.14c.54,0,.97.43.97.97s-.43.97-.97.97Z"/>
      <path class="cls-1" d="M65.06,25.85c-7.13,0-12.92-5.8-12.92-12.92S57.94,0,65.06,0s12.92,5.8,12.92,12.92-5.8,12.92-12.92,12.92ZM65.06,2.88c-5.54,0-10.04,4.51-10.04,10.04s4.51,10.04,10.04,10.04,10.04-4.5,10.04-10.04-4.51-10.04-10.04-10.04Z"/>
      <g>
        <path class="cls-2" d="M61.33,16.07c-.27,0-.54-.11-.75-.31l-2.1-2.11c-.2-.2-.31-.47-.31-.75s.11-.55.31-.75l2.12-2.1c.42-.41,1.09-.41,1.5,0,.41.42.41,1.09,0,1.5l-1.36,1.35,1.35,1.36c.41.42.41,1.09,0,1.5-.21.21-.48.31-.75.31Z"/>
        <path class="cls-2" d="M68.77,16.1c-.27,0-.54-.11-.75-.31-.41-.42-.41-1.09,0-1.5l1.36-1.35-1.35-1.36c-.41-.42-.41-1.09,0-1.5.42-.41,1.09-.41,1.5,0l2.1,2.11c.41.42.41,1.09,0,1.5l-2.11,2.1c-.21.21-.48.31-.75.31Z"/>
        <path class="cls-2" d="M63.7,17.72c-.12,0-.24-.02-.36-.07-.55-.2-.83-.81-.63-1.36l2.72-7.46c.2-.55.81-.84,1.36-.63.55.2.83.81.63,1.36l-2.72,7.46c-.16.43-.57.7-1,.7Z"/>
      </g>
    </g>
  </g>
</svg>