<?xml version="1.0" encoding="UTF-8"?>
<svg id="Layer_2" data-name="Layer 2" xmlns="http://www.w3.org/2000/svg" viewBox="0 0 96 81.17">
  <defs>
    <style>
      .cls-1 {
        fill: #1e1e1e;
      }

      .cls-1, .cls-2 {
        stroke-width: 0px;
      }

      .cls-2 {
        fill: #229e79;
      }
    </style>
  </defs>
  <g id="Layer_1-2" data-name="Layer 1">
    <g>
      <path class="cls-1" d="M65.77,65.88H4.94c-2.73,0-4.94-2.22-4.94-4.94V4.94C0,2.22,2.22,0,4.94,0h72.45c2.72,0,4.94,2.22,4.94,4.94v44.94c0,.91-.74,1.65-1.65,1.65s-1.65-.74-1.65-1.65V4.94c0-.91-.74-1.65-1.65-1.65H4.94c-.91,0-1.65.74-1.65,1.65v56c0,.91.74,1.65,1.65,1.65h60.83c.91,0,1.65.74,1.65,1.65s-.74,1.65-1.65,1.65Z"/>
      <path class="cls-2" d="M92.51,62.17l-4.22,2.22c-.79.42-.99,1.46-.4,2.14l7.19,8.33c1.38,1.59,1.2,4-.39,5.38h0c-1.59,1.38-4,1.2-5.38-.39l-7.18-8.31c-.58-.68-1.64-.63-2.17.09l-2.83,3.86c-1.57,2.15-4.95,1.32-5.35-1.31l-1.34-8.84-1.72-11.3c-.33-2.17,1.72-3.94,3.82-3.3l10.93,3.34,8.53,2.61c2.55.78,2.87,4.25.52,5.49Z"/>
      <path class="cls-1" d="M75.89,18.22H4.77c-.91,0-1.65-.74-1.65-1.65s.74-1.65,1.65-1.65h71.13c.91,0,1.65.74,1.65,1.65s-.74,1.65-1.65,1.65Z"/>
      <path class="cls-2" d="M17.33,10.58h-8.58c-.91,0-1.65-.74-1.65-1.65s.74-1.65,1.65-1.65h8.58c.91,0,1.65.74,1.65,1.65s-.74,1.65-1.65,1.65Z"/>
      <circle class="cls-2" cx="59.97" cy="8.93" r="1.44"/>
      <circle class="cls-2" cx="65.24" cy="8.93" r="1.44"/>
      <circle class="cls-2" cx="70.52" cy="8.93" r="1.44"/>
      <path class="cls-2" d="M55.28,52.46h-24.42c-1.42,0-2.67-.87-3.18-2.21l-9.31-24.12c-.05-.13-.16-.22-.28-.22h-3.8c-.91,0-1.65-.74-1.65-1.65s.74-1.65,1.65-1.65h3.8c1.49,0,2.81.91,3.35,2.33l9.31,24.12c.03.07.08.1.11.1h24.42c.91,0,1.65.74,1.65,1.65s-.74,1.65-1.65,1.65Z"/>
      <path class="cls-2" d="M52.85,47.93h-24.93c-.91,0-1.65-.74-1.65-1.65s.74-1.65,1.65-1.65h24.93c.27,0,.53-.26.63-.64l3.72-13.59c.12-.44-.01-.83-.18-1.05-.09-.12-.24-.26-.45-.26H20.71c-.91,0-1.65-.74-1.65-1.65s.74-1.65,1.65-1.65h35.85c1.2,0,2.32.57,3.07,1.56.84,1.1,1.11,2.56.74,3.92l-3.72,13.59c-.5,1.83-2.03,3.06-3.81,3.06Z"/>
      <path class="cls-2" d="M48.56,47.4c-.12,0-.23-.01-.35-.04-.89-.19-1.45-1.07-1.26-1.96l3.99-18.31c.19-.89,1.07-1.45,1.96-1.26.89.19,1.45,1.07,1.26,1.96l-3.99,18.31c-.17.77-.85,1.3-1.61,1.3Z"/>
      <path class="cls-2" d="M34.6,47.67c-.76,0-1.44-.53-1.61-1.3l-4.04-18.58c-.19-.89.37-1.77,1.26-1.96.89-.19,1.77.37,1.96,1.26l4.04,18.58c.19.89-.37,1.77-1.26,1.96-.12.03-.24.04-.35.04Z"/>
      <path class="cls-2" d="M40.83,47.4c-.91,0-1.65-.74-1.65-1.65v-18.31c0-.91.74-1.65,1.65-1.65s1.65.74,1.65,1.65v18.31c0,.91-.74,1.65-1.65,1.65Z"/>
      <path class="cls-2" d="M57.01,38.25H24.65c-.91,0-1.65-.74-1.65-1.65s.74-1.65,1.65-1.65h32.36c.91,0,1.65.74,1.65,1.65s-.74,1.65-1.65,1.65Z"/>
      <path class="cls-2" d="M48.52,59.14c-1.63,0-2.96-1.33-2.96-2.96s1.33-2.96,2.96-2.96,2.96,1.33,2.96,2.96-1.33,2.96-2.96,2.96ZM48.52,55.85c-.18,0-.33.15-.33.33s.15.33.33.33.33-.15.33-.33-.15-.33-.33-.33Z"/>
      <path class="cls-2" d="M35.39,59.14c-1.63,0-2.96-1.33-2.96-2.96s1.33-2.96,2.96-2.96,2.96,1.33,2.96,2.96-1.33,2.96-2.96,2.96ZM35.39,55.85c-.18,0-.33.15-.33.33s.15.33.33.33.33-.15.33-.33-.15-.33-.33-.33Z"/>
    </g>
  </g>
</svg>