<svg width="64" height="64" viewBox="0 0 64 64" fill="none" xmlns="http://www.w3.org/2000/svg">
<g id="Layer_1">
<g id="_x33_6">
<g id="Group">
<g id="Group_2">
<g id="Group_3">
<g id="Group_4">
<g id="Group_5">
<path id="Vector" d="M56.7031 30.4101L55.6289 34.1815C55.5769 34.3803 55.6193 34.9264 54.9775 35.5873C53.3637 37.1391 60.8235 29.9656 39.1946 50.7644C38.3603 51.5758 37.0232 51.5758 36.1889 50.7758L33.1832 47.8958C31.7295 46.5023 38.4786 52.9721 18.8175 34.1244C18.4746 33.793 18.2575 33.3472 18.1775 32.9015L16.1546 21.2215L15.9603 20.033L15.9032 19.713C15.8918 19.6101 15.9146 19.3816 15.9832 19.073C16.2803 17.4387 17.4232 13.4844 17.4232 13.4844L17.6061 13.5187C17.3889 13.9072 17.3089 14.3873 17.3775 14.8673C20.3532 33.1288 19.3269 26.8304 19.5489 28.1929C19.6175 28.6616 19.846 29.0844 20.1889 29.4158C43.9791 52.2507 35.7739 44.3749 37.5489 46.0787C38.6527 46.9614 39.6271 46.8187 40.566 46.0672C57.4369 29.8321 56.4174 30.8866 56.7031 30.4101Z" fill="#E8E8E8"/>
</g>
</g>
</g>
<g id="Group_6">
<g id="Group_7">
<path id="Vector_2" d="M48.9647 30.9968L40.7831 38.8574C40.4772 39.1514 40.0215 39.2102 39.7253 38.9926L25.1839 28.3104C24.7189 27.9688 24.6739 27.3193 25.0912 26.9184L34.699 17.6873C35.0583 17.3422 35.606 17.3357 35.9662 17.6702L49.0525 29.822C49.3619 30.1093 49.32 30.6554 48.9647 30.9968Z" fill="#229E79"/>
</g>
</g>
</g>
</g>
<g id="Group_8">
<path id="Vector_3" d="M56.3958 27.4405L39.2201 13.1905C38.7948 12.8334 38.2747 12.6381 37.7167 12.6236L20.3953 12.0882C18.7722 10.3644 16.453 9.22319 14.2881 8.94836C11.3796 8.58229 8.61793 10.0432 7.41201 12.5912C5.1604 17.3488 8.80906 22.5092 13.6524 24.3465L11.238 34.4567C11.1009 34.9938 11.1466 35.5424 11.3523 35.9996L20.7466 58.1596C21.1931 59.2233 22.5776 59.9842 23.878 59.4967L44.358 51.771C44.9295 51.5538 45.3981 51.1424 45.6723 50.6052C45.6723 50.5939 45.6838 50.5824 45.6838 50.571L47.1324 47.8178C47.7888 47.1756 47.9999 46.1587 47.5457 45.2874L46.8039 43.8349L55.1626 35.7876C55.4351 35.5258 55.0384 35.1143 54.7664 35.3769C50.3916 39.5844 39.1182 50.4593 38.8647 50.664L39.3806 46.9391C39.8819 46.8702 40.367 46.6536 40.7586 46.2731L56.537 31.0923C57.515 30.1173 57.5597 28.3962 56.3958 27.4405ZM46.1966 48.3706C45.1966 50.0497 45.194 50.85 44.1523 51.2339L23.6723 58.9595C23.3995 59.0626 23.1163 59.0897 22.8406 59.0641C24.487 56.2372 24.6192 56.3359 24.5053 56.0656C24.9497 56.2014 25.4382 56.2046 25.9076 56.0272L37.5125 51.6478C38.2768 51.7012 38.9159 51.4295 39.3908 50.9718L39.4469 50.9178L46.1966 48.3706ZM19.9066 35.5547L32.8877 48.0077L28.9553 49.481C28.5529 49.6395 28.1141 49.5053 27.9312 49.1884L19.9066 35.5547ZM36.383 50.5689L19.0125 33.9048C18.7195 33.6336 18.5225 33.2597 18.4572 32.8524C18.4315 32.6961 18.2781 32.5901 18.1296 32.6147L16.1552 21.2235L13.644 31.3172C13.5342 31.7683 13.5708 32.2436 13.7537 32.6825L23.1403 54.8448C23.3448 55.3313 23.7115 55.697 24.1488 55.9215C23.9445 56.0087 24.1533 55.851 22.2592 58.9227C21.8283 58.7376 21.4654 58.3968 21.2723 57.9424L11.878 35.771C11.718 35.4167 11.6838 35.0053 11.7866 34.5939L14.2513 24.2731C14.252 24.2712 14.254 24.2706 14.2546 24.2687C14.2556 24.2659 14.2534 24.2635 14.2542 24.2608L14.8952 21.5767C14.918 21.5196 15.0438 21.2339 15.9581 20.0339L15.9009 19.7138C15.8895 19.611 15.9123 19.3824 15.9809 19.0738C15.9581 19.0738 15.9352 19.0967 15.9237 19.1195C14.438 21.0396 14.3695 21.3139 14.3466 21.4396L13.7864 23.7853C9.26226 22.027 5.84509 17.2384 7.92876 12.8345C9.02753 10.5109 11.561 9.17938 14.2156 9.51532C16.087 9.75305 18.0818 10.671 19.5764 12.0649C17.9413 12.0668 16.8742 13.4701 17.0923 14.9182L19.2619 28.2408C19.3434 28.7553 19.6029 29.2463 19.9924 29.6225L37.3517 46.2865C37.7644 46.6813 38.2773 46.8944 38.8028 46.9476L38.2881 50.6626C38.2719 50.7794 38.3416 50.8717 38.4367 50.9291C37.759 51.2255 36.9484 51.1089 36.383 50.5689ZM40.3612 45.8624C39.6302 46.5722 38.4818 46.5789 37.7474 45.8736L20.3886 29.2106C20.0884 28.9205 19.8886 28.5443 19.8261 28.1504L17.6564 14.8301C17.475 13.6217 18.4706 12.5659 19.5716 12.6347L20.1533 12.6527C20.6913 13.2593 21.1289 13.9403 21.4397 14.6781C20.1092 15.1924 19.3743 16.5914 19.7964 17.8846C20.2338 19.2247 21.7411 19.9341 23.1644 19.4696C24.5877 19.005 25.3876 17.5427 24.9502 16.2025C24.5549 14.9913 23.2842 14.3041 21.9924 14.5244C21.7196 13.8611 21.3497 13.2425 20.9027 12.6759L37.7005 13.195C38.1296 13.2062 38.5281 13.3557 38.854 13.6292L56.032 27.8814C57.0305 28.7013 56.7494 30.0742 56.1369 30.6838L40.3612 45.8624Z" fill="#5D5D5D"/>
<path id="Vector_4" d="M39.2345 33.0648L37.2858 24.9197C37.1965 24.549 36.6425 24.6877 36.73 25.0536L38.6787 33.1987C38.7665 33.5656 39.3226 33.4332 39.2345 33.0648Z" fill="white"/>
<path id="Vector_5" d="M41.0146 26.6006C40.0325 26.9209 39.4973 27.9901 39.821 28.9823C40.1491 29.9889 41.2207 30.5218 42.191 30.2022C43.1726 29.8819 43.7083 28.8138 43.3841 27.8205C43.0581 26.8206 41.993 26.2787 41.0146 26.6006ZM42.0135 29.6598C41.3369 29.8788 40.5946 29.509 40.3645 28.806C40.138 28.1118 40.5096 27.3662 41.1921 27.143C41.8835 26.9194 42.6148 27.3071 42.8405 27.9968C43.0671 28.691 42.696 29.4365 42.0135 29.6598Z" fill="white"/>
<path id="Vector_6" d="M33.8896 27.4425C32.9075 27.7628 32.3723 28.832 32.696 29.8241C33.0272 30.8403 34.1062 31.3609 35.0654 31.044C36.0476 30.7237 36.5827 29.6545 36.2591 28.6623C35.9321 27.6593 34.8638 27.1212 33.8896 27.4425ZM35.7155 28.8387C35.9421 29.5329 35.571 30.2784 34.888 30.5016C34.2102 30.721 33.4691 30.3495 33.2395 29.6478C33.013 28.9536 33.3846 28.2081 34.0671 27.9849C34.7571 27.7617 35.4894 28.1475 35.7155 28.8387Z" fill="white"/>
<path id="Vector_7" d="M37.9347 9.1804L37.7417 4.62571C37.7235 4.23053 37.1546 4.28361 37.1702 4.65027L37.3633 9.20495C37.3799 9.5847 37.9509 9.56104 37.9347 9.1804Z" fill="white"/>
<path id="Vector_8" d="M40.382 9.7312L40.8647 8.48344C41.0013 8.13274 40.468 7.92153 40.3312 8.27808L39.8485 9.52585C39.7113 9.87849 40.2454 10.0841 40.382 9.7312Z" fill="white"/>
<path id="Vector_9" d="M42.4672 11.895L44.1262 10.5222C44.4207 10.2791 44.0459 9.83993 43.7624 10.0825L42.1034 11.4553C41.809 11.6983 42.1837 12.1337 42.4672 11.895Z" fill="white"/>
</g>
</g>
</g>
</svg>
