<svg width="64" height="65" viewBox="0 0 64 65" fill="none" xmlns="http://www.w3.org/2000/svg">
<g id="Layer_1">
<g id="_x33_6">
<g id="Group">
<g id="Group_2">
<g id="Group_3">
<g id="Group_4">
<g id="Group_5">
<path id="Vector" d="M56.7031 31.0058L55.6289 34.7772C55.5769 34.976 55.6193 35.5221 54.9775 36.183C53.3637 37.7348 60.8235 30.5613 39.1946 51.3601C38.3603 52.1715 37.0232 52.1715 36.1889 51.3715L33.1832 48.4915C31.7295 47.098 38.4786 53.5678 18.8175 34.7201C18.4746 34.3887 18.2575 33.9429 18.1775 33.4972L16.1546 21.8172L15.9603 20.6287L15.9032 20.3087C15.8918 20.2058 15.9146 19.9773 15.9832 19.6687C16.2803 18.0344 17.4232 14.0801 17.4232 14.0801L17.6061 14.1144C17.3889 14.5029 17.3089 14.983 17.3775 15.463C20.3532 33.7245 19.3269 27.4261 19.5489 28.7886C19.6175 29.2573 19.846 29.6801 20.1889 30.0115C43.9791 52.8464 35.7739 44.9706 37.5489 46.6744C38.6527 47.5571 39.6271 47.4144 40.566 46.6629C57.4369 30.4278 56.4174 31.4823 56.7031 31.0058Z" fill="#E8E8E8"/>
</g>
</g>
</g>
<g id="Group_6">
<g id="Group_7">
<path id="Vector_2" d="M48.9647 31.592L40.7831 39.4527C40.4772 39.7466 40.0215 39.8054 39.7253 39.5878L25.1839 28.9056C24.7189 28.564 24.6739 27.9145 25.0912 27.5136L34.699 18.2825C35.0583 17.9374 35.606 17.931 35.9662 18.2654L49.0525 30.4172C49.3619 30.7045 49.32 31.2506 48.9647 31.592Z" fill="#229E79"/>
</g>
</g>
</g>
</g>
<g id="Group_8">
<path id="Vector_3" d="M56.3958 28.0351L39.2201 13.7851C38.7948 13.428 38.2747 13.2327 37.7167 13.2182L20.3953 12.6828C18.7722 10.959 16.453 9.81779 14.2881 9.54296C11.3796 9.17689 8.61793 10.6378 7.41201 13.1858C5.1604 17.9434 8.80906 23.1038 13.6524 24.9411L11.238 35.0513C11.1009 35.5884 11.1466 36.137 11.3523 36.5942L20.7466 58.7542C21.1931 59.818 22.5776 60.5788 23.878 60.0913L44.358 52.3656C44.9295 52.1484 45.3981 51.737 45.6723 51.1998C45.6723 51.1885 45.6838 51.177 45.6838 51.1656L47.1324 48.4124C47.7888 47.7702 47.9999 46.7533 47.5457 45.882L46.8039 44.4295L55.1626 36.3822C55.4351 36.1204 55.0384 35.7089 54.7664 35.9715C50.3916 40.179 39.1182 51.0539 38.8647 51.2586L39.3806 47.5338C39.8819 47.4648 40.367 47.2482 40.7586 46.8677L56.537 31.6869C57.515 30.7119 57.5597 28.9908 56.3958 28.0351ZM46.1966 48.9652C45.1966 50.6443 45.194 51.4446 44.1523 51.8285L23.6723 59.5541C23.3995 59.6572 23.1163 59.6844 22.8406 59.6588C24.487 56.8319 24.6192 56.9306 24.5053 56.6602C24.9497 56.796 25.4382 56.7992 25.9076 56.6219L37.5125 52.2424C38.2768 52.2958 38.9159 52.0241 39.3908 51.5664L39.4469 51.5124L46.1966 48.9652ZM19.9066 36.1493L32.8877 48.6023L28.9553 50.0756C28.5529 50.2341 28.1141 50.1 27.9312 49.783L19.9066 36.1493ZM36.383 51.1635L19.0125 34.4994C18.7195 34.2282 18.5225 33.8543 18.4572 33.447C18.4315 33.2907 18.2781 33.1847 18.1296 33.2093L16.1552 21.8181L13.644 31.9118C13.5342 32.3629 13.5708 32.8382 13.7537 33.2771L23.1403 55.4394C23.3448 55.9259 23.7115 56.2916 24.1488 56.5161C23.9445 56.6033 24.1533 56.4456 22.2592 59.5173C21.8283 59.3322 21.4654 58.9914 21.2723 58.537L11.878 36.3656C11.718 36.0113 11.6838 35.5999 11.7866 35.1885L14.2513 24.8677C14.252 24.8659 14.254 24.8652 14.2546 24.8633C14.2556 24.8606 14.2534 24.8581 14.2542 24.8554L14.8952 22.1713C14.918 22.1142 15.0438 21.8285 15.9581 20.6285L15.9009 20.3084C15.8895 20.2056 15.9123 19.977 15.9809 19.6684C15.9581 19.6684 15.9352 19.6913 15.9237 19.7141C14.438 21.6342 14.3695 21.9085 14.3466 22.0342L13.7864 24.3799C9.26226 22.6216 5.84509 17.833 7.92876 13.4291C9.02753 11.1055 11.561 9.77399 14.2156 10.1099C16.087 10.3476 18.0818 11.2656 19.5764 12.6595C17.9413 12.6615 16.8742 14.0647 17.0923 15.5128L19.2619 28.8354C19.3434 29.3499 19.6029 29.841 19.9924 30.2171L37.3517 46.8811C37.7644 47.2759 38.2773 47.489 38.8028 47.5422L38.2881 51.2572C38.2719 51.374 38.3416 51.4663 38.4367 51.5237C37.759 51.8201 36.9484 51.7035 36.383 51.1635ZM40.3612 46.457C39.6302 47.1668 38.4818 47.1735 37.7474 46.4682L20.3886 29.8052C20.0884 29.5151 19.8886 29.1389 19.8261 28.745L17.6564 15.4247C17.475 14.2163 18.4706 13.1605 19.5716 13.2293L20.1533 13.2473C20.6913 13.8539 21.1289 14.5349 21.4397 15.2727C20.1092 15.787 19.3743 17.186 19.7964 18.4792C20.2338 19.8193 21.7411 20.5287 23.1644 20.0642C24.5877 19.5996 25.3876 18.1373 24.9502 16.7971C24.5549 15.5859 23.2842 14.8987 21.9924 15.119C21.7196 14.4557 21.3497 13.8371 20.9027 13.2705L37.7005 13.7896C38.1296 13.8008 38.5281 13.9503 38.854 14.2238L56.032 28.476C57.0305 29.2959 56.7494 30.6689 56.1369 31.2785L40.3612 46.457Z" fill="#5D5D5D"/>
<path id="Vector_4" d="M39.2345 33.6589L37.2858 25.5138C37.1965 25.1431 36.6425 25.2818 36.73 25.6477L38.6787 33.7928C38.7665 34.1597 39.3226 34.0273 39.2345 33.6589Z" fill="white"/>
<path id="Vector_5" d="M41.0146 27.1958C40.0325 27.5161 39.4973 28.5853 39.821 29.5775C40.1491 30.5841 41.2207 31.117 42.191 30.7974C43.1726 30.4771 43.7083 29.409 43.3841 28.4157C43.0581 27.4158 41.993 26.8739 41.0146 27.1958ZM42.0135 30.255C41.3369 30.474 40.5946 30.1042 40.3645 29.4012C40.138 28.707 40.5096 27.9615 41.1921 27.7382C41.8835 27.5146 42.6148 27.9023 42.8405 28.592C43.0671 29.2862 42.696 30.0318 42.0135 30.255Z" fill="white"/>
<path id="Vector_6" d="M33.8896 28.0372C32.9075 28.3575 32.3723 29.4267 32.696 30.4189C33.0272 31.435 34.1062 31.9556 35.0654 31.6387C36.0476 31.3184 36.5827 30.2492 36.2591 29.257C35.9321 28.254 34.8638 27.7159 33.8896 28.0372ZM35.7155 29.4334C35.9421 30.1276 35.571 30.8731 34.888 31.0963C34.2102 31.3158 33.4691 30.9442 33.2395 30.2425C33.013 29.5483 33.3846 28.8028 34.0671 28.5796C34.7571 28.3564 35.4894 28.7423 35.7155 29.4334Z" fill="white"/>
<path id="Vector_7" d="M37.9347 9.77513L37.7417 5.22044C37.7235 4.82526 37.1546 4.87834 37.1702 5.24499L37.3633 9.79968C37.3799 10.1794 37.9509 10.1558 37.9347 9.77513Z" fill="white"/>
<path id="Vector_8" d="M40.382 10.3254L40.8647 9.07767C41.0013 8.72698 40.468 8.51577 40.3312 8.87232L39.8485 10.1201C39.7113 10.4727 40.2454 10.6783 40.382 10.3254Z" fill="white"/>
<path id="Vector_9" d="M42.4672 12.4907L44.1262 11.118C44.4207 10.8748 44.0459 10.4356 43.7624 10.6782L42.1034 12.051C41.809 12.294 42.1837 12.7294 42.4672 12.4907Z" fill="white"/>
</g>
</g>
</g>
</svg>
