<svg width="144" height="30" viewBox="0 0 144 30" fill="none" xmlns="http://www.w3.org/2000/svg">
<g id="logo (1) 1" clip-path="url(#clip0_1764_37160)">
<path id="Vector" fill-rule="evenodd" clip-rule="evenodd" d="M60.0123 14.346H65.8671V17.8546C64.5666 18.9009 62.8759 19.62 60.7931 19.62C56.4036 19.62 53.0199 16.2194 53.0199 11.7715C53.0199 7.42292 56.2719 3.92446 60.5985 3.92446C62.8424 3.92446 64.7612 4.90477 66.1274 6.27923L68.9575 3.27C66.9082 1.27569 64.0125 0 60.6306 0C53.5414 0 48.6295 5.20015 48.6295 11.7715C48.6295 18.3448 53.6052 23.5454 60.6958 23.5454C64.8585 23.5454 68.2418 21.7449 70.258 19.1635V10.422H60.0123V14.346ZM33.942 13.0246L37.0635 4.83231L40.1654 13.0246H33.942ZM34.1577 0.266769L25.7781 23.2177H30.3632L32.6318 16.9763H41.5375L43.7975 23.2177H48.383L40.0024 0.266769H34.1577ZM130.887 18.2659C130.337 18.8899 129.49 19.2822 127.961 19.2822H123.571V13.0523H127.961C129.49 13.0523 130.337 13.4465 130.887 14.07C131.409 14.6262 131.701 15.3475 131.701 16.1677C131.701 16.9869 131.409 17.7083 130.887 18.2659ZM123.571 4.20092H126.66C128.025 4.20092 128.645 4.52862 129.099 5.02015C129.49 5.44662 129.75 6.03646 129.75 6.65954C129.75 7.28262 129.49 7.87339 129.099 8.29893C128.645 8.79093 128.025 9.11816 126.66 9.11816H123.571V4.20092ZM132.676 10.3311C133.423 9.54462 134.141 8.004 134.141 6.49569C134.141 4.62739 133.295 2.98892 132.026 1.87292C130.92 0.888462 129.49 0.266769 126.921 0.266769H119.179V23.2172H128.059C130.985 23.2172 132.742 22.4303 134.01 21.1514C135.278 19.9052 136.092 18.1352 136.092 16.2009C136.092 13.644 134.694 11.3488 132.676 10.3311ZM139.123 23.2172H143.526V7.34862H139.123V23.2172ZM78.2359 10.3431V4.23692H82.6374C84.1702 4.23692 85.019 4.62139 85.5717 5.23246C86.0945 5.77939 86.3879 6.48554 86.3879 7.28954C86.3879 8.09262 86.0945 8.80016 85.5717 9.34616C85.019 9.95677 84.1702 10.3431 82.6374 10.3431H78.2359ZM84.9432 14.2034C86.6881 13.9135 87.8917 13.2378 88.8296 12.2945C89.4881 11.6445 90.0116 10.8695 90.3697 10.0145C90.7278 9.15939 90.9133 8.24131 90.9155 7.31354C90.9155 5.37969 90.1012 3.57785 88.8296 2.33262C87.5575 1.05415 85.7961 0.266769 82.8614 0.266769H73.9727V23.2172H78.3622V14.3608H79.9597L86.4094 23.2177H91.561L84.9262 14.2048L84.9432 14.2034ZM0.387637 29.8297H23.1523V26.52H0.387637V29.8302V29.8297ZM102.219 13.0246L105.223 4.78662L108.227 13.0251H102.219V13.0246ZM102.3 0.266769L93.9192 23.2177H98.5056L100.784 16.9763H109.667L111.939 23.2177H116.525L108.144 0.266769H102.3ZM20.0642 0.266769L11.77 14.0035L3.47663 0.266769H0.386719V23.2172H4.77806V10.4289L10.2418 19.4465H13.2991L18.7632 10.4289V23.2172H23.1527V0.266769H20.0642ZM139.123 4.22354H143.525V0.267692H139.123V4.224V4.22354Z" fill="white"/>
</g>
<defs>
<clipPath id="clip0_1764_37160">
<rect width="143.226" height="30" fill="white" transform="translate(0.386719)"/>
</clipPath>
</defs>
</svg>
