<svg width="64" height="65" viewBox="0 0 64 65" fill="none" xmlns="http://www.w3.org/2000/svg">
<g id="coding_12534849 2">
<g id="106">
<path id="Vector" d="M38.2055 47.7187C39.0764 49.0021 39.7066 50.4115 40.0848 51.9126C40.1306 52.0845 39.9931 52.2449 39.8212 52.2449C32.7627 52.0501 28.7408 51.8782 24.2261 52.0386C24.0198 52.0386 23.8938 51.8324 23.9855 51.649C24.7303 50.2396 25.5553 48.8761 26.4491 47.5698C26.4949 47.501 26.5866 47.4552 26.6668 47.4552L37.9878 47.6042C38.0795 47.6042 38.1597 47.65 38.2055 47.7187Z" fill="#E8E8E8"/>
<g id="Group">
<path id="Vector_2" d="M44.4955 38.9904L14.1303 38.6352C12.5948 31.3704 10.1885 23.2922 8.18328 14.9045C7.93119 13.8617 8.69891 12.8534 9.76456 12.8076C24.9701 12.2346 42.4559 12.2346 57.7416 12.8076C58.8302 12.8534 59.6094 13.9076 59.3 14.9618C57.6614 20.7025 55.8395 26.5578 53.9603 32.5392L51.955 39.0706M52.0123 39.655C54.9343 43.9176 57.0655 48.65 58.3489 53.7376C58.4291 54.0699 58.2343 54.4136 57.7531 54.4595C32.8536 53.8751 22.6325 53.2219 6.25824 53.7605C5.83427 53.749 5.51343 53.3251 5.73114 52.9126C8.21765 48.2031 11.0135 43.5967 14.0272 39.2081L44.633 39.5633M54.4988 32.7569C56.378 26.7526 58.2114 20.8858 59.85 15.1222C60.2625 13.7128 59.2312 12.2919 57.7645 12.2346C42.4559 11.6617 24.9586 11.6617 9.74164 12.2346C8.30932 12.2919 7.28951 13.644 7.62181 15.0305C9.60414 23.3265 12.0219 31.4621 13.5917 38.8529C10.5552 43.2644 7.74785 47.9052 5.23842 52.6376C5.03217 53.0157 5.03217 53.474 5.35301 53.8865C5.35301 53.8865 5.35301 53.8865 5.35301 53.898C6.17803 55.2959 6.23021 55.3173 6.96356 56.3027C7.69691 57.2767 8.85422 57.8611 10.0574 57.8611L53.3873 58.4814C53.7655 58.4814 54.1207 58.3898 54.4301 58.195C55.4728 57.5762 57.8791 55.8918 58.6239 54.6199C58.6239 54.6199 58.6239 54.6199 58.6239 54.6084C58.6354 54.597 58.6583 54.5855 58.6697 54.5741C58.8989 54.2876 58.9791 53.9324 58.8875 53.5772C57.5926 48.4208 55.427 43.6197 52.4592 39.3112L53.0321 37.4549" fill="white"/>
<path id="Vector_3" d="M9.31968 10.2181L9.62906 7.51391C9.67489 7.13578 9.10196 7.06703 9.05613 7.44516L8.74675 10.1494C8.70091 10.5275 9.27384 10.5963 9.31968 10.2181Z" fill="white"/>
<path id="Vector_4" d="M6.62668 10.8481C6.85585 11.146 7.31419 10.8137 7.08502 10.5043L5.87041 8.88869C5.64124 8.59077 5.1829 8.93452 5.41207 9.23245L6.62668 10.8481Z" fill="white"/>
<path id="Vector_5" d="M6.40849 12.739C5.77827 12.7963 5.17096 12.9108 4.58658 13.0598C4.2199 13.1515 4.36886 13.7129 4.73554 13.6098C5.28555 13.4609 5.86994 13.3692 6.46578 13.3119C6.83246 13.2775 6.79808 12.716 6.40849 12.739Z" fill="white"/>
</g>
</g>
<g id="Group_2">
<path id="Vector_6" d="M53.339 24.6923L55.9057 16.803C55.9985 16.1522 55.4622 15.5702 54.7682 15.5702C42.774 14.9077 24.8253 14.8477 13.6 15.6282C12.9086 15.6282 12.38 16.2103 12.4638 16.861C13.6 23.7919 15.2783 29.7174 16.4971 34.2255C16.6191 35.124 17.4351 35.7976 18.4023 35.7976L46.9629 36.3184C47.9275 36.3184 49.9142 36.6949 50.0374 35.7976L51.8983 29.8548C52.1957 28.4796 53.0403 26.0675 53.339 24.6923Z" fill="#229E79"/>
</g>
<path id="Vector_7" d="M29.88 31.3429L38.4603 20.4657C38.6964 20.1679 38.2439 19.8156 38.0117 20.1119L29.4313 30.9891C29.1969 31.2849 29.6434 31.6398 29.88 31.3429Z" fill="white"/>
<path id="Vector_8" d="M40.4351 22.7461C40.1501 22.5015 39.7765 22.9408 40.069 23.1836L43.8145 26.3231C42.319 26.9961 40.5824 27.9967 39.2755 28.9459C38.9684 29.1675 39.3062 29.6309 39.6103 29.4079C41.0121 28.3906 42.9172 27.3136 44.463 26.6641C44.6629 26.5799 44.6974 26.3163 44.5355 26.1814L40.4351 22.7461Z" fill="white"/>
<path id="Vector_9" d="M23.9093 26.0852C25.4573 26.7364 27.3624 27.8129 28.7631 28.8285C29.0638 29.049 29.4065 28.5892 29.0979 28.3664C27.7921 27.4183 26.0555 26.4183 24.5566 25.7442L28.3033 22.6053C28.5947 22.362 28.224 21.9228 27.9372 22.1667L23.8367 25.6025C23.6741 25.738 23.7103 26.0025 23.9093 26.0852Z" fill="white"/>
<path id="Vector_10" d="M39.2842 42.41C39.1895 42.4052 25.8793 42.0094 25.7836 42.0113C25.4749 42.0027 25.4629 42.3038 25.7714 42.3194C25.8661 42.3243 39.1763 42.7201 39.272 42.7181C39.5807 42.7267 39.5926 42.4257 39.2842 42.41Z" fill="#E8E8E8"/>
<path id="Vector_11" d="M33.2589 44.868H30.7477C30.157 44.868 30.157 45.1399 30.7477 45.1399H33.2589C33.8495 45.1399 33.8495 44.868 33.2589 44.868Z" fill="#E8E8E8"/>
</g>
</svg>
