<svg width="56" height="53" viewBox="0 0 56 53" fill="none" xmlns="http://www.w3.org/2000/svg">
<g clip-path="url(#clip0_1426_24276)">
<path d="M16.9676 4.11035C16.8753 3.75319 16.5868 3.51124 16.2637 3.49972C13.5749 3.40755 10.9899 3.5458 8.13957 3.60341C7.62027 3.60341 7.29716 4.191 7.4241 4.73251C7.86261 6.58746 8.22035 8.25806 8.80888 11.0462C8.9012 11.4956 9.27048 11.749 9.5936 11.7145C12.0978 11.4841 15.4443 11.5532 18.0062 11.3573C18.537 11.3112 18.814 10.6891 18.6409 10.1591C18.0523 8.36175 17.4984 6.1266 16.956 4.12187L16.9676 4.11035Z" fill="white"/>
<path d="M37.9096 20.9777C33.9514 21.3579 32.2666 25.2176 34.6323 29.2501C34.6438 29.2731 34.6554 29.2962 34.6669 29.3192C35.9247 31.4391 38.1404 33.248 40.6446 33.9854C44.4873 35.1029 47.9147 33.3171 47.9147 29.6418C47.9147 24.9526 42.4909 20.5168 37.9096 20.9892V20.9777ZM44.8451 33.3863C43.818 33.7895 42.4102 33.9047 40.76 33.4093C40.6792 33.0406 40.7023 33.0406 40.5869 32.9369C37.8519 18.996 38.5443 22.9248 38.325 21.8879C38.302 21.7496 38.175 21.669 38.025 21.6575L37.7134 21.6805C37.7596 21.7496 37.7827 21.8188 37.7827 21.8994C37.7827 21.934 37.7827 21.9685 37.7827 22.0031C37.7827 22.0031 37.7827 22.0262 37.7827 22.0377V22.0146C37.7827 22.0377 37.7827 22.0607 37.7827 22.0838C37.7827 22.0722 37.7827 22.0492 37.7827 22.0377C37.7827 22.0377 37.7827 22.0377 37.7827 22.0492C37.7827 22.1183 37.8057 22.1875 37.8057 22.2566C39.2944 29.8261 39.9175 33.0061 40.1022 33.1904C38.1519 32.4415 36.4556 31.0244 35.3593 29.3768C36.1902 29.3538 37.1018 29.2846 38.2443 29.1579C38.6251 29.1233 38.5558 28.5473 38.1866 28.5818C36.9056 28.7201 35.9247 28.7892 35.0246 28.8123C34.0668 27.0956 33.686 24.9756 34.7708 23.3281H34.7938C34.8285 23.2474 34.8862 23.1898 34.9669 23.1322C35.0131 23.0746 35.0477 23.0285 35.0939 22.9824C35.117 22.9594 35.14 22.9248 35.1631 22.9018L35.1862 22.8787C35.2093 22.8326 35.2554 22.7866 35.29 22.7405H35.2785C35.4401 22.5907 35.6132 22.4409 35.7978 22.3142C41.9139 21.381 48.307 29.227 44.8335 33.4093L44.8451 33.3863Z" fill="white"/>
<path d="M48.0583 39.7463L46.5004 37.4075C45.958 36.6586 44.1232 37.972 44.6655 38.7209L46.1773 40.8409C46.7196 40.4031 47.412 39.9998 48.0583 39.7463Z" fill="white"/>
<path d="M19.459 33.7781C18.9166 33.9048 18.4089 34.0661 17.9242 34.0892C17.6242 34.0892 17.2318 33.9855 17.2549 33.8703C17.3357 33.49 16.2971 33.4324 16.2163 33.8011C16.1701 34.0085 16.2971 34.2044 16.5856 34.3657C17.3934 34.8265 18.3858 34.6768 19.4244 34.4118C21.5016 33.8818 22.8056 34.2735 29.6718 34.1237C29.6256 33.9855 29.6141 33.7896 29.6141 33.5361C22.8979 33.6859 21.4208 33.3403 19.459 33.7666V33.7781Z" fill="white"/>
<path d="M23.3364 8.52332C23.0133 8.59245 22.7017 8.68462 22.3902 8.75375C22.0324 8.8344 21.6054 8.8344 21.3977 8.47724C21.317 8.33898 21.1785 8.29289 21.0169 8.28137C20.8554 8.28137 20.6823 8.31594 20.6015 8.45419C20.5438 8.54636 20.5438 8.68462 20.5899 8.78831C20.6361 8.89201 20.7169 8.98418 20.8092 9.05331C21.1439 9.3183 21.5939 9.42199 22.0209 9.41047C22.6787 9.38743 23.2903 9.13396 23.925 9.00722C24.2712 8.93809 24.6289 8.90353 24.9751 8.89201C26.0137 8.84592 27.0523 8.89201 28.0909 8.90353C28.6909 8.90353 29.2795 8.90353 29.8796 8.90353C30.2373 8.90353 30.5835 8.90353 30.9412 8.90353C31.0566 8.90353 32.1298 8.8344 32.1298 8.88049C32.0952 8.74223 32.0837 8.54636 32.0837 8.29289C30.3642 8.33898 28.6563 8.33898 26.9369 8.31594C25.9214 8.30441 24.8943 8.29289 23.8903 8.43115C23.7057 8.45419 23.5211 8.48876 23.3364 8.53484V8.52332Z" fill="white"/>
<path d="M40.82 18.3624C37.2542 17.3255 33.2613 17.844 31.2765 20.9548C31.1149 21.07 30.5841 21.7497 29.3839 23.1669C29.3609 23.1669 29.3609 23.213 29.3493 23.2014C29.3147 23.2475 29.2685 23.2821 29.2224 23.3167C29.1993 23.3512 29.1647 23.3858 29.1301 23.4203C29.0954 23.4664 29.0724 23.5356 29.0262 23.5816C28.9916 23.6508 28.9916 23.6623 28.9339 23.7199C28.9223 23.7429 28.9339 23.7545 28.9108 23.7775C28.9108 23.789 28.8877 23.8121 28.8877 23.8236V23.8812C27.9992 25.3675 27.803 27.0611 28.0915 28.8239C28.0684 28.8239 28.0569 28.8469 28.0453 28.8584L28.1723 29.4576C28.1723 29.4576 28.1953 29.446 28.2069 29.4345C28.53 30.8401 29.1762 32.2342 30.0533 33.5361C29.9148 33.5361 29.7878 33.5361 29.6494 33.5477C29.6494 33.8011 29.6494 33.997 29.684 34.1353C29.9263 34.1353 30.1802 34.1122 30.4456 34.1007C31.6688 35.7252 33.2729 37.1654 35.1077 38.2369C24.4218 38.6862 15.3861 38.9973 6.41955 39.1125C6.16567 37.9488 3.90386 3.70722 3.37302 0.942084C3.37302 0.942084 3.3961 0.942084 3.40764 0.942084H4.93091C4.29621 0.573399 3.66152 0.354492 3.02682 0.354492C2.92296 0.377535 2.77295 0.435142 2.71525 0.527313C2.64601 0.619485 1.24968 2.4053 0.338028 3.56896C0.280329 3.63809 0.257249 3.73026 0.280329 3.81091L3.23454 42.9491C3.25762 43.0874 3.37302 43.1796 3.5115 43.1796C15.5245 43.6058 27.9068 43.2026 39.8506 42.3731C39.966 42.3731 40.0583 42.3039 40.1045 42.2002L41.0739 39.8268C40.8777 39.8153 40.67 39.8038 40.4622 39.7692L39.6314 41.8085C26.5682 42.6957 14.936 42.9606 4.07695 42.6265C4.71165 41.7163 5.42712 40.5181 6.16568 39.677C6.16568 39.677 6.18875 39.677 6.20029 39.677C6.22337 39.677 6.24645 39.677 6.25799 39.677C15.5476 39.5734 24.918 39.2277 36.1117 38.7553C36.7002 39.0434 38.212 39.654 38.4543 39.654C38.789 39.654 38.8467 39.1816 38.5351 39.0895C33.019 37.4765 28.5415 32.2457 28.5415 27.4067C28.5415 25.2292 29.407 24.2268 29.4416 24.0195L30.4918 22.7521C28.9685 28.5243 34.5077 35.0915 40.6469 36.8658C46.2553 38.5019 51.229 35.9211 51.229 30.5867C51.229 25.2522 46.5553 20.0331 40.82 18.3509V18.3624ZM5.70408 39.5964C4.97707 40.4259 4.29621 41.3016 3.67306 42.2002L0.868863 3.82243C1.90745 2.49747 2.48445 1.7601 2.79603 1.35685L5.90026 39.4581C5.90026 39.4581 5.93488 39.4927 5.93488 39.5157C5.84256 39.5157 5.76178 39.5273 5.70408 39.5964ZM40.8084 36.3243C35.2808 34.7228 30.8034 29.4921 30.8149 24.6531C30.8149 19.6644 35.4886 17.4062 40.6584 18.9155C46.1745 20.5285 50.652 25.7707 50.652 30.5982C50.652 35.4256 45.886 37.7991 40.8084 36.3128V36.3243Z" fill="white"/>
<path d="M21.9678 29.1351C20.3176 28.1558 19.7406 30.2412 17.5711 30.8633C15.7362 31.3933 13.4629 30.5868 13.4975 29.3079C13.509 28.9508 12.5397 28.8816 12.5281 29.3079C12.4704 31.0246 15.5401 32.1076 17.9981 31.3933C19.2905 31.0246 20.0637 30.2988 20.9407 29.6075C21.0561 29.5153 21.1254 29.4808 21.1254 29.4692C21.3215 29.5499 22.7294 30.5522 24.622 30.437C25.7875 30.3909 26.6299 30.0107 28.1532 29.4692L27.9454 28.8701C25.9029 29.5614 24.345 30.5868 21.9678 29.1466V29.1351Z" fill="white"/>
<path d="M26.8942 4.11045C25.4979 3.13113 25.0017 5.21651 23.1669 5.83866C21.609 6.36865 19.6818 5.56215 19.7164 4.28327C19.7164 3.92611 18.9086 3.85698 18.8971 4.28327C18.8509 5.99996 21.4589 7.08297 23.5361 6.36865C24.6324 5.99996 25.2902 5.27411 26.0287 4.58283C26.1211 4.49066 26.1903 4.45609 26.1903 4.44457C26.3634 4.52522 27.552 5.52758 29.1561 5.41237C30.1485 5.36628 30.864 4.98608 32.1449 4.44457L31.9718 3.84546C30.2408 4.53674 28.9137 5.56215 26.9058 4.12197L26.8942 4.11045Z" fill="white"/>
<path d="M29.4614 18.559C29.623 18.9046 30.1423 18.6627 29.9922 18.317L28.6651 15.4136C28.5036 15.0565 27.9843 15.31 28.1343 15.6556L29.4614 18.559Z" fill="white"/>
<path d="M34.6472 16.4431L33.7757 14.3619C33.6287 14.0096 33.0955 14.2375 33.2425 14.5898L34.114 16.671C34.261 17.0233 34.7976 16.8064 34.6472 16.4431Z" fill="white"/>
<path d="M40.4732 16.0581L41.3502 14.1456C41.5118 13.8 40.9809 13.558 40.8194 13.9036L39.9423 15.8162C39.7808 16.1618 40.3116 16.4038 40.4732 16.0581Z" fill="white"/>
<path d="M38.074 18.4546L37.9932 17.8901L34.1158 0.354492H3.02734L3.37354 0.930562H33.6658L37.3701 17.8785L37.4509 18.4546" fill="white"/>
<g clip-path="url(#clip1_1426_24276)">
<path d="M39.6088 18.4281C34.2456 17.5833 30.252 20.6361 30.252 24.3737C30.252 29.3849 35.2504 36.9049 40.7032 36.9049C46.156 36.9049 49.7016 36.7257 50.9816 30.6713C51.084 25.6857 44.9912 19.2793 39.6024 18.4281H39.6088ZM44.844 33.3849L44.8568 33.3593C43.8328 33.7625 42.4248 33.8777 40.7736 33.3849C40.7736 33.3721 40.7736 33.3721 40.7736 33.3593C40.5048 33.3593 40.2872 33.2825 40.1208 33.1609C38.1688 32.4121 36.4728 30.9977 35.3784 29.3465L35.0456 28.7833C34.0856 27.0681 33.708 24.9497 34.7896 23.2985H34.8152C34.8152 23.2985 34.8536 23.2537 34.8728 23.2345C34.9112 23.1577 34.9624 23.0937 35.0136 23.0297C35.0648 22.9657 35.1288 22.9017 35.1992 22.8505C35.2248 22.8185 35.2504 22.7801 35.2824 22.7481C35.2888 22.7353 35.3016 22.7289 35.308 22.7161H35.2952C35.4552 22.5689 35.628 22.4153 35.8136 22.2873C36.4856 22.1849 37.164 22.1913 37.836 22.2873C38.092 22.2873 38.3096 22.3385 38.5144 22.4153C43.6088 23.5993 47.8136 29.8201 44.8568 33.3849H44.844Z" fill="#1B8763"/>
<path d="M49.2525 35.1448C49.2525 35.1448 48.3757 36.1496 47.6141 37.0136C47.1277 37.7176 46.7629 38.0056 46.4109 38.3512C46.4109 38.3512 46.3981 38.3512 46.3661 38.3384C43.6525 40.5144 39.5821 40.092 36.4205 38.5944C36.5229 38.4472 36.4205 38.1784 36.1645 38.1784C36.1389 38.1784 35.7037 38.204 35.6461 38.204C30.2125 35.26 26.3725 28.6104 29.1373 23.9704C29.1501 23.9 29.1629 23.868 29.1629 23.868C30.6285 21.9992 31.8189 20.4824 31.7101 20.6168C31.7101 20.6168 31.7357 20.6296 31.7997 20.6616C27.9533 25.6856 33.1245 34.396 40.7277 36.5976C44.2605 37.6216 47.3773 36.956 49.2077 35.1L49.2525 35.1448Z" fill="#229E79"/>
<path d="M36.4209 38.5881C36.1649 38.4729 35.9025 38.3449 35.6465 38.1977C35.7041 38.1977 36.1457 38.1721 36.1649 38.1721C36.4081 38.1721 36.5233 38.4345 36.4209 38.5881Z" fill="#E8E8E8"/>
<path d="M51.0071 51.7466L45.2855 42.473C44.5687 41.2762 49.2407 38.569 49.9383 39.7338L55.5447 48.8026C57.3239 51.5354 52.7991 54.4858 51.0071 51.753V51.7466Z" fill="#229E79"/>
<path d="M37.9096 20.9818V20.969C33.9544 21.3466 32.2648 25.2058 34.6328 29.2442C34.6456 29.2698 34.6584 29.289 34.6648 29.3146C35.9256 31.433 38.14 33.2442 40.6424 33.9802C44.4824 35.1002 47.9128 33.3146 47.9128 29.6346C47.9128 24.9434 42.492 20.5082 37.9096 20.9818ZM44.8344 33.4042L44.8472 33.3786C43.8232 33.7818 42.4152 33.897 40.764 33.4042C40.764 33.3914 40.764 33.3914 40.764 33.3786C40.4952 33.3786 40.2776 33.3018 40.1112 33.1802C38.1592 32.4314 36.4632 31.017 35.3688 29.3658L35.036 28.8026C34.076 27.0874 33.6984 24.969 34.78 23.3178H34.8056C34.8056 23.3178 34.844 23.273 34.8632 23.2538C34.9016 23.177 34.9528 23.113 35.004 23.049C35.0552 22.985 35.1192 22.921 35.1896 22.8698C35.2152 22.8378 35.2408 22.7994 35.2728 22.7674C35.2792 22.7546 35.292 22.7482 35.2984 22.7354H35.2856C35.4456 22.5882 35.6184 22.4346 35.804 22.3066C36.476 22.2042 37.1544 22.2106 37.8264 22.3066C38.0824 22.3066 38.3 22.3578 38.5048 22.4346C43.4951 23.68 47.5191 29.6346 44.8472 33.4042H44.8344Z" fill="url(#paint0_linear_1426_24276)"/>
<path d="M48.0561 39.7403L46.5009 37.4043C45.9569 36.6555 44.1265 37.9675 44.6641 38.7163L46.1745 40.8347C46.7185 40.3995 47.4097 39.9963 48.0561 39.7403Z" fill="white"/>
<path d="M36.109 38.7482C36.6978 39.0362 38.2082 39.6442 38.4514 39.6442C38.7842 39.6442 38.8418 39.1706 38.5346 39.081C33.0178 37.4682 28.5442 32.2394 28.5442 27.401C28.5442 25.225 29.4082 24.2202 29.4466 24.0154L30.4962 22.7482C28.973 28.521 34.509 35.0874 40.653 36.8602C46.2594 38.4986 51.2322 35.913 51.2322 30.5818C51.2322 25.2506 46.5538 20.0282 40.8194 18.345V18.3578C37.2546 17.321 33.261 17.8394 31.277 20.9498C31.117 21.065 30.5858 21.7434 29.3826 23.1642C29.357 23.1642 29.357 23.209 29.3506 23.1962C29.3186 23.241 29.2674 23.2794 29.2226 23.3114C29.197 23.3434 29.165 23.3818 29.133 23.4138C29.101 23.4586 29.0754 23.529 29.0306 23.5738C28.9986 23.6442 28.9986 23.657 28.941 23.7146C28.9282 23.7402 28.941 23.7466 28.9154 23.7722C28.9154 23.785 28.8898 23.8042 28.8898 23.817V23.8746C28.0002 25.3594 27.8018 27.0554 28.0898 28.8154C28.0642 28.8154 28.0578 28.841 28.045 28.8474L28.173 29.449C28.173 29.449 28.1986 29.4362 28.205 29.4234C28.525 30.8314 29.1714 32.2202 30.0482 33.5258C30.1762 33.7562 30.4386 34.089 30.4386 34.089C31.661 35.7146 33.2674 37.1546 35.0978 38.2234M40.8066 36.3098V36.3226C35.277 34.7226 30.8034 29.4874 30.8162 24.649C30.8162 19.657 35.4882 17.3978 40.6594 18.9082C46.1762 20.521 50.6498 25.7626 50.6498 30.5882C50.6498 35.4138 45.8818 37.7882 40.8066 36.3034V36.3098Z" fill="#229E79"/>
</g>
<path d="M0.585938 3.55445L2.82594 1.31445L6.23256 39.5098L3.46594 42.5945L0.585938 3.55445Z" fill="white"/>
</g>
<defs>
<linearGradient id="paint0_linear_1426_24276" x1="35.4326" y1="29.4108" x2="47.4829" y2="28.3231" gradientUnits="userSpaceOnUse">
<stop stop-color="white"/>
<stop offset="0.792549" stop-color="#EEEEEE"/>
</linearGradient>
<clipPath id="clip0_1426_24276">
<rect width="55.68" height="52.48" fill="white" transform="translate(0.265625 0.354492)"/>
</clipPath>
<clipPath id="clip1_1426_24276">
<rect width="27.9808" height="34.9632" fill="white" transform="translate(27.9668 17.8713)"/>
</clipPath>
</defs>
</svg>
