<?xml version="1.0" encoding="UTF-8"?>
<svg id="Layer_2" data-name="Layer 2" xmlns="http://www.w3.org/2000/svg" viewBox="0 0 96 90.1">
  <defs>
    <style>
      .cls-1 {
        fill: #1e1e1e;
      }

      .cls-1, .cls-2 {
        stroke-width: 0px;
      }

      .cls-2 {
        fill: #229e79;
      }
    </style>
  </defs>
  <g id="Layer_1-2" data-name="Layer 1">
    <g>
      <path class="cls-1" d="M69.08,66.04H7.53c-.53,0-.97-.36-.97-.78V14.45c0-.42.44-.77.97-.77h11.1c1.05,0,1.91-.85,1.91-1.89s-.86-1.89-1.91-1.89H7.53c-2.64,0-4.79,2.04-4.79,4.56v50.82c0,2.51,2.15,4.56,4.79,4.56h61.56c1.05,0,1.91-.85,1.91-1.89s-.86-1.89-1.91-1.89Z"/>
      <path class="cls-1" d="M89.43,9.89h-28.02c-1.05,0-1.91.85-1.91,1.89s.86,1.89,1.91,1.89h28.03v52.37s0,0-.01,0h-15.8c-1.05,0-1.91.85-1.91,1.89s.86,1.89,1.91,1.89h15.8c2.11,0,3.83-1.65,3.83-3.67V13.56c0-2.02-1.72-3.67-3.83-3.67Z"/>
      <path class="cls-2" d="M62.35,10.52C52.22-1.79,34.02-3.55,21.72,6.59s-14.07,28.33-3.93,40.64c10.14,12.31,28.33,14.07,40.64,3.93s14.07-28.33,3.93-40.64ZM54.81,46.77c-9.88,8.14-24.49,6.73-32.63-3.16-8.14-9.88-6.73-24.49,3.16-32.63,9.88-8.14,24.49-6.73,32.63,3.16s6.73,24.49-3.16,32.63Z"/>
      <path class="cls-1" d="M82.07,83.2H6.73c-1.81,0-2.81-.78-2.88-1v-7.09h69.22c1.06,0,1.92-.86,1.92-1.92s-.86-1.92-1.92-1.92H1.92c-1.06,0-1.92.86-1.92,1.92v9.01c0,2.72,2.95,4.84,6.73,4.84h75.34c1.06,0,1.92-.86,1.92-1.92s-.86-1.92-1.92-1.92Z"/>
      <rect class="cls-2" x="59.14" y="48.62" width="6.92" height="15.19" transform="translate(-21.46 52.62) rotate(-39.48)"/>
      <path class="cls-1" d="M94.08,71.27h-13.69c-1.06,0-1.92.86-1.92,1.92s.86,1.92,1.92,1.92h11.77v7.06c-.07.25-1.08,1.03-2.88,1.03h-2.83c-1.06,0-1.92.86-1.92,1.92s.86,1.92,1.92,1.92h2.83c3.77,0,6.73-2.13,6.73-4.84v-9.01c0-1.06-.86-1.92-1.92-1.92Z"/>
      <rect class="cls-2" x="71.56" y="55.15" width="11.61" height="37.33" rx="4.46" ry="4.46" transform="translate(-29.28 66.02) rotate(-39.48)"/>
      <path class="cls-1" d="M53.21,21.02c-.51-.68-1.29-1.11-2.13-1.17-.85-.06-1.68.25-2.28.85l-11.74,11.74-6-4.69c-.67-.52-1.53-.73-2.36-.57-.83.16-1.55.68-1.98,1.42-.72,1.25-.35,2.9.85,3.84l9.22,7.21.78.53,15.25-15.25c1.08-1.08,1.25-2.77.38-3.92Z"/>
      <path class="cls-1" d="M59.14,72.4h-22.28c-.79,0-1.44.69-1.44,1.53v1.46c0,2.58,1.94,4.68,4.32,4.68h16.51c2.38,0,4.32-2.1,4.32-4.68v-1.46c0-.84-.65-1.53-1.44-1.53ZM56.26,77.02h-16.51c-.77,0-1.41-.69-1.44-1.55h19.39c-.03.86-.67,1.55-1.44,1.55Z"/>
      <path class="cls-1" d="M82.31,27.78h-10.15c-1.06,0-1.92.86-1.92,1.92s.86,1.92,1.92,1.92h10.15c1.06,0,1.92-.86,1.92-1.92s-.86-1.92-1.92-1.92Z"/>
      <path class="cls-1" d="M82.31,37.4h-10.15c-1.06,0-1.92.86-1.92,1.92s.86,1.92,1.92,1.92h10.15c1.06,0,1.92-.86,1.92-1.92s-.86-1.92-1.92-1.92Z"/>
      <path class="cls-1" d="M82.31,32.59h-6.09c-1.06,0-1.92.86-1.92,1.92s.86,1.92,1.92,1.92h6.09c1.06,0,1.92-.86,1.92-1.92s-.86-1.92-1.92-1.92Z"/>
      <path class="cls-1" d="M18.35,57.71h-6.09c-1.06,0-1.92.86-1.92,1.92s.86,1.92,1.92,1.92h6.09c1.06,0,1.92-.86,1.92-1.92s-.86-1.92-1.92-1.92Z"/>
      <path class="cls-1" d="M82.31,42.22h-3.78c-1.06,0-1.92.86-1.92,1.92s.86,1.92,1.92,1.92h3.78c1.06,0,1.92-.86,1.92-1.92s-.86-1.92-1.92-1.92Z"/>
      <path class="cls-1" d="M16.25,52.9h-3.78c-1.06,0-1.92.86-1.92,1.92s.86,1.92,1.92,1.92h3.78c1.06,0,1.92-.86,1.92-1.92s-.86-1.92-1.92-1.92Z"/>
    </g>
  </g>
</svg>