<svg width="88" height="40" viewBox="0 0 88 40" fill="none" xmlns="http://www.w3.org/2000/svg">
<g id="#000000ff">
<path id="Vector" d="M0.39989 0C3.42156 0.00106217 6.44322 -9.89223e-10 9.46489 0.00106217C11.0164 0.012746 12.5819 0.521525 13.7173 1.50085C14.6598 2.2996 15.2595 3.4563 15.2188 4.64168C15.256 5.7166 14.8865 6.81488 14.1264 7.64444C13.5209 8.32529 12.6725 8.79158 11.7753 9.08049C12.7132 9.32479 13.6162 9.79852 14.1706 10.5505C14.6075 11.1156 14.7726 11.8156 14.7795 12.4986C14.7807 13.7583 14.7819 15.018 14.7784 16.2778C13.5011 16.2756 12.2239 16.2778 10.9467 16.2767C10.9443 15.2655 10.949 14.2543 10.9455 13.2431C10.9188 12.5209 10.7386 11.7508 10.1668 11.2197C9.56135 10.6663 8.66996 10.4996 7.84481 10.4656C6.98015 10.456 6.11665 10.4645 5.25199 10.4624C5.25548 9.52236 5.24269 8.5834 5.25896 7.64338C6.50482 7.654 7.75068 7.64444 8.99653 7.64869C9.86701 7.64763 10.7073 7.15584 11.0768 6.43463C11.5824 5.48505 11.4301 4.18176 10.5132 3.48073C9.99368 3.09198 9.30683 2.94327 8.64672 2.94646C7.10683 2.94965 5.5681 2.9454 4.02938 2.94858C4.03054 6.41763 4.02938 9.88668 4.02938 13.3568C2.81955 13.3568 1.60856 13.3568 0.398728 13.3568C0.398728 8.90417 0.397566 4.45262 0.39989 0Z" fill="white"/>
<path id="Vector_2" d="M46.3042 0C47.5524 0.00106217 48.8005 0.00106217 50.0499 0C50.0499 3.50516 50.0511 7.01032 50.0499 10.5155C51.0087 10.5165 51.9675 10.5155 52.9274 10.5165C54.1535 10.5325 55.2576 9.5744 55.375 8.47081C55.5772 7.30773 54.7021 6.03844 53.4051 5.83025C52.7183 5.74103 52.0209 5.80901 51.3306 5.78883C51.3295 4.84137 51.3306 3.89498 51.3295 2.94858C52.1337 2.9454 52.9379 2.94965 53.7421 2.94646C55.4285 2.91459 57.0764 3.72078 58.0643 4.95821C59.0568 6.18608 59.388 7.81014 59.0638 9.29717C58.6059 11.1549 56.8638 12.5676 54.9148 13.1072C53.9351 13.3993 52.8926 13.3876 51.8745 13.3823C50.0174 13.3823 48.1602 13.3823 46.303 13.3823C46.303 8.92117 46.3019 4.46111 46.3042 0Z" fill="white"/>
<path id="Vector_3" d="M75.7344 0.000796628C76.993 -0.000265543 78.2517 -0.000265543 79.5115 0.000796628C79.5115 2.12407 79.5103 4.24842 79.5115 6.37276C80.2994 6.34726 81.099 6.43649 81.88 6.30478C82.6122 6.16669 83.2049 5.65154 83.4582 5.01743C83.7604 4.35357 83.7383 3.62067 83.7639 2.91645C85.0004 2.92814 86.237 2.91752 87.4747 2.92176C87.4433 4.02217 87.4538 5.19693 86.8251 6.17732C86.287 7.03343 85.2712 7.50715 84.2787 7.79925C85.4537 8.10091 86.5973 8.74883 87.1226 9.79294C87.7339 10.8997 87.5235 12.1648 87.5596 13.3565C86.3102 13.3565 85.0609 13.3565 83.8127 13.3565C83.7406 12.3698 84.0347 11.2906 83.4536 10.392C83.005 9.64955 82.0671 9.27567 81.1734 9.22256C80.6202 9.20131 80.0647 9.22043 79.5115 9.21406C79.5103 10.5949 79.5103 11.9757 79.5115 13.3555C78.2517 13.3565 76.993 13.3565 75.7344 13.3555C75.7355 8.90391 75.7344 4.45235 75.7344 0.000796628Z" fill="white"/>
<path id="Vector_4" d="M65.6624 2.91285C67.5137 2.61544 69.5092 2.76414 71.1874 3.58095C72.4681 4.20338 73.4699 5.29104 73.8813 6.56565C74.388 8.14085 74.1823 9.9476 73.134 11.3061C72.2508 12.4734 70.8259 13.2297 69.3279 13.5367C67.5811 13.8904 65.6938 13.7788 64.0632 13.0789C62.4989 12.415 61.2228 11.1362 60.7963 9.59283C60.3582 8.00276 60.6871 6.2077 61.8156 4.91185C62.7604 3.82738 64.1852 3.15821 65.6624 2.91285ZM66.5851 5.56084C65.237 5.86887 64.2352 7.10842 64.3317 8.37877C64.3863 9.28374 64.9558 10.1526 65.8135 10.6115C66.6642 11.0969 67.7787 11.1415 68.6782 10.7379C70.0624 10.1537 70.7864 8.54872 70.2053 7.25075C69.6963 5.95384 68.0344 5.17102 66.5851 5.56084Z" fill="white"/>
<path id="Vector_5" d="M17.3585 5.3738C18.3417 3.92712 20.1396 2.9786 22.0061 2.95099C24.4304 2.94355 26.8536 2.94993 29.2767 2.9478C29.2593 3.9643 29.3127 4.98823 29.2511 5.99835C28.462 7.1455 27.6543 8.28308 26.8594 9.42704C25.6553 9.42385 24.4525 9.43235 23.2496 9.42279C24.0457 8.21298 24.8453 7.00423 25.6309 5.78911C24.6594 5.78698 23.6878 5.79123 22.715 5.78698C21.8364 5.76043 20.9845 6.22566 20.5313 6.90438C19.9874 7.69251 20.0199 8.77911 20.6243 9.53326C21.1112 10.1812 21.9677 10.5572 22.822 10.5434C24.9731 10.5434 27.1255 10.5423 29.2767 10.5434C29.2767 11.4898 29.2779 12.4362 29.2767 13.3826C27.2045 13.3836 25.1324 13.3826 23.0602 13.3836C22.2095 13.3847 21.339 13.3921 20.5185 13.1563C18.8949 12.723 17.5305 11.5737 16.9053 10.1398C16.2173 8.60598 16.3823 6.7748 17.3585 5.3738Z" fill="white"/>
<path id="Vector_6" d="M33.3485 3.95574C34.2968 3.30356 35.4776 2.95942 36.6607 2.94774C39.0432 2.94668 41.4257 2.94774 43.807 2.94774C43.8093 3.96317 43.8035 4.97861 43.8104 5.99404C43.0097 7.138 42.2113 8.28408 41.4082 9.42698C40.2065 9.42591 39.006 9.42698 37.8043 9.42698C38.5888 8.20973 39.3942 7.00417 40.1845 5.78904C39.1234 5.79117 38.0623 5.78161 37.0012 5.79223C35.5915 5.89632 34.4816 7.21448 34.7164 8.48696C34.871 9.58843 35.9564 10.5072 37.1767 10.5369C39.3965 10.5508 41.6163 10.5401 43.8349 10.5423C43.8383 11.4886 43.8349 12.435 43.8372 13.3825C41.4501 13.3772 39.0629 13.3952 36.6758 13.374C35.2068 13.3729 33.7425 12.828 32.7151 11.8647C31.4925 10.7802 30.88 9.16568 31.066 7.62235C31.2159 6.17886 32.0666 4.80972 33.3485 3.95574Z" fill="white"/>
<path id="Vector_7" d="M63.0327 20.4769C71.2028 19.6516 79.4008 19.0632 87.6023 18.582C83.1675 19.6145 78.7175 20.6087 74.3244 21.7908C68.1556 23.4 62.1401 25.4521 56.1991 27.6508C53.0902 25.9737 49.9698 24.3156 46.8633 22.6353C52.2105 21.6772 57.6204 21.041 63.0327 20.4769Z" fill="white"/>
<path id="Vector_8" d="M3.95703 19.0391C14.1807 19.0507 24.4056 19.0253 34.6269 19.0518C36.8607 20.0789 39.0142 21.2505 41.1933 22.3711C49.6353 26.8035 58.0321 31.3093 66.387 35.8766C68.3952 36.977 70.4046 38.0742 72.392 39.2065C72.8278 39.4678 73.288 39.6983 73.6925 40.001C64.6646 36.5341 55.717 32.8834 46.5637 29.699C38.7597 26.9692 30.7918 24.6303 22.6925 22.7524C18.2216 21.704 13.7135 20.7927 9.18684 19.9685C7.44822 19.6403 5.68984 19.3875 3.95703 19.0391Z" fill="white"/>
<path id="Vector_9" d="M15.169 32.701C19.4156 30.156 24.105 28.2919 28.8769 26.7422C31.7208 27.4432 34.5158 28.3089 37.3178 29.1384C33.5919 30.4885 30.0112 32.2049 26.7862 34.3887C24.7245 35.8057 22.7383 37.3618 21.1693 39.245C16.5415 39.2471 11.9137 39.2492 7.28711 39.2439C9.48479 36.6745 12.1915 34.4897 15.169 32.701Z" fill="white"/>
<path id="Vector_10" d="M29.3023 36.3844C32.4995 33.7279 36.2231 31.6323 40.1617 30.0273C42.3861 30.7379 44.5943 31.4931 46.7931 32.2685C44.8906 33.506 42.9963 34.7837 41.4145 36.3653C40.5034 37.2575 39.698 38.2347 38.953 39.2459C34.7669 39.2502 30.5807 39.2449 26.3945 39.2491C27.2383 38.1944 28.2575 37.2703 29.3023 36.3844Z" fill="white"/>
</g>
</svg>
