<?xml version="1.0" encoding="UTF-8"?>
<svg id="Layer_2" data-name="Layer 2" xmlns="http://www.w3.org/2000/svg" viewBox="0 0 96 88.82">
  <defs>
    <style>
      .cls-1 {
        fill: #1e1e1e;
      }

      .cls-1, .cls-2 {
        stroke-width: 0px;
      }

      .cls-2 {
        fill: #229e79;
      }
    </style>
  </defs>
  <g id="Layer_1-2" data-name="Layer 1">
    <g>
      <path class="cls-1" d="M17.56,8.12c-3.5,0-6.35,2.85-6.35,6.35s2.85,6.35,6.35,6.35,6.35-2.85,6.35-6.35-2.85-6.35-6.35-6.35ZM17.56,17.03c-1.41,0-2.56-1.15-2.56-2.56s1.15-2.56,2.56-2.56,2.57,1.15,2.57,2.56-1.15,2.56-2.57,2.56Z"/>
      <path class="cls-1" d="M73.07,8.12h-16.78c-3.5,0-6.35,2.85-6.35,6.35s2.85,6.35,6.35,6.35h16.78c3.5,0,6.35-2.85,6.35-6.35s-2.85-6.35-6.35-6.35ZM73.07,17.03h-16.78c-1.41,0-2.56-1.15-2.56-2.56s1.15-2.56,2.56-2.56h16.78c1.41,0,2.56,1.15,2.56,2.56s-1.15,2.56-2.56,2.56Z"/>
      <path class="cls-1" d="M34.01,8.12c-3.5,0-6.35,2.85-6.35,6.35s2.85,6.35,6.35,6.35,6.35-2.85,6.35-6.35-2.85-6.35-6.35-6.35ZM34.01,17.03c-1.41,0-2.56-1.15-2.56-2.56s1.15-2.56,2.56-2.56,2.57,1.15,2.57,2.56-1.15,2.56-2.57,2.56Z"/>
      <path class="cls-2" d="M30.92,38.74c-1.02-.24-2.04.38-2.28,1.4l-3.75,15.71c-.24,1.02.38,2.04,1.4,2.28.15.04.3.05.44.05.86,0,1.63-.58,1.84-1.45l3.75-15.71c.24-1.02-.38-2.04-1.4-2.28Z"/>
      <path class="cls-2" d="M37.87,56.29c.36.32.81.48,1.26.48.52,0,1.04-.21,1.41-.63l5.31-5.96c.88-.97.88-2.5,0-3.47l-5.31-5.96c-.7-.78-1.89-.85-2.67-.15-.78.7-.85,1.89-.15,2.67l4.61,5.18-4.61,5.18c-.7.78-.63,1.98.15,2.67h0Z"/>
      <path class="cls-2" d="M19.34,40.59c-.78-.7-1.98-.63-2.67.15l-5.31,5.96c-.88.97-.88,2.5,0,3.47l5.31,5.96c.37.42.89.63,1.41.63.45,0,.9-.16,1.26-.48.78-.7.85-1.89.15-2.67l-4.61-5.18,4.61-5.18c.69-.78.63-1.98-.15-2.67h0Z"/>
      <path class="cls-1" d="M89.24,51.69V10.24c0-5.65-3.98-10.24-8.88-10.24H8.88C3.98,0,0,4.59,0,10.24v52.14c0,5.65,3.98,10.24,8.88,10.24h11.1c1.05,0,1.89-.84,1.89-1.89s-.84-1.89-1.89-1.89h-11.1c-2.76,0-5.09-2.95-5.09-6.46V28.8h81.68l.14,20.24,3.64,2.65ZM3.78,25.01v-14.77c0-3.5,2.33-6.46,5.09-6.46h71.49c2.76,0,5.09,2.95,5.09,6.46v14.77H3.78Z"/>
      <path class="cls-1" d="M28.42,68.83h-.04c-1.05,0-1.89.85-1.89,1.89s.85,1.89,1.89,1.89h.04c1.05,0,1.89-.85,1.89-1.89s-.85-1.89-1.89-1.89Z"/>
      <path class="cls-1" d="M56.16,68.83h-19.17c-1.27,0-2.31.9-2.31,2s1.03,2,2.31,2h19.17c1.27,0,2.31-.9,2.31-2s-1.03-2-2.31-2Z"/>
      <path class="cls-2" d="M95,59.98h-2.98c-.43,0-.8-.28-.95-.68-.24-.69-.52-1.36-.84-2.02-.19-.39-.12-.85.18-1.16l2.11-2.11c.39-.39.39-1.02,0-1.42l-6.62-6.62c-.39-.39-1.02-.39-1.42,0l-2.11,2.11c-.3.3-.77.37-1.15.18-.65-.31-1.32-.59-2.01-.84-.41-.14-.69-.52-.69-.95v-2.98c0-.55-.45-1-1-1h-9.37c-.55,0-1,.45-1,1v3.02c0,.43-.28.8-.68.94-.68.24-1.34.52-1.98.83-.39.19-.85.12-1.16-.18l-2.15-2.15c-.39-.39-1.02-.39-1.42,0l-6.62,6.62c-.39.39-.39,1.02,0,1.42l2.19,2.19c.3.3.37.76.19,1.15-.3.63-.57,1.28-.81,1.94-.14.41-.52.68-.95.68h-3.09c-.55,0-1,.45-1,1v9.37c0,.55.45,1,1,1h3.08c.43,0,.8.28.95.69.23.67.5,1.32.81,1.95.19.39.12.85-.19,1.15l-2.17,2.17c-.39.39-.39,1.02,0,1.42l6.62,6.62c.39.39,1.02.39,1.42,0l2.12-2.12c.31-.31.77-.37,1.16-.18.65.32,1.32.6,2.01.85.4.14.68.52.68.94v2.98c0,.55.45,1,1,1h9.37c.55,0,1-.45,1-1v-2.95c0-.43.28-.8.69-.95.7-.24,1.38-.53,2.04-.85.39-.19.85-.12,1.15.18l2.08,2.08c.39.39,1.02.39,1.42,0l6.62-6.62c.39-.39.39-1.02,0-1.42l-2.1-2.1c-.3-.3-.37-.77-.18-1.15.32-.66.6-1.33.84-2.03.14-.41.52-.69.95-.69h2.96c.55,0,1-.45,1-1v-9.37c0-.55-.45-1-1-1ZM72.9,76.78c-6.11,0-11.06-4.97-11.06-11.09s4.95-11.09,11.06-11.09,11.06,4.97,11.06,11.09-4.95,11.09-11.06,11.09Z"/>
    </g>
  </g>
</svg>