<svg width="64" height="65" viewBox="0 0 64 65" fill="none" xmlns="http://www.w3.org/2000/svg">
<path d="M23.7741 30.8586C23.2601 31.8556 21.7972 31.7464 21.0059 31.8127C19.1633 31.9672 17.2739 33.4848 17.6093 35.493C17.8381 36.8634 19.0158 38.0711 20.2813 38.6581C20.9318 37.7858 22.0338 37.2028 23.1316 37.1106C23.8674 37.0524 25.5067 37.1613 25.9498 36.0538C26.1632 35.5197 26.0478 35.6738 23.808 29.9102C23.808 29.9102 23.7679 29.916 23.7365 29.9205C23.9078 30.1841 23.9642 30.49 23.7741 30.8586Z" fill="#E8E8E8"/>
<path d="M1.76881 46.5514C1.80768 46.5623 1.84329 46.5775 1.8819 46.5888C2.74071 46.252 4.53394 45.9171 4.63867 44.7961C4.67754 44.3796 4.39235 44.0381 4.09598 43.7483C3.1533 42.8269 1.97126 42.0889 0.634245 41.5815C0.490361 41.5269 0.414678 41.3921 0.393263 41.246C0.377008 41.2533 0.345703 41.2674 0.345703 41.2674L2.43112 46.3118C2.1775 46.495 1.93789 46.6078 1.76881 46.5514Z" fill="#E8E8E8"/>
<path d="M34.0213 38.1079C34.155 38.4564 34.0813 38.6147 33.8587 38.8309C31.9757 40.658 29.9207 42.327 27.9861 44.0973C27.7396 44.3228 27.5539 44.6159 27.4946 44.9447C27.222 46.457 29.9705 45.8205 30.7244 46.0805C32.5711 46.718 32.1317 49.1607 31.1156 50.3035C29.9224 51.6458 27.0118 53.3816 25.6681 51.267C25.2908 50.6733 25.4119 49.9887 25.3664 49.3274C25.2346 47.41 23.5605 47.9335 22.5663 48.8021C20.1097 50.9485 19.1312 54.111 17.9828 54.2224C17.2041 54.298 16.1062 52.8613 15.5515 52.4127C14.6053 51.6476 13.652 50.8913 12.6916 50.144C11.3372 49.0899 9.64488 47.5851 7.77206 47.9635C6.286 48.2637 6.72359 49.2807 6.29348 50.3151C5.6591 51.841 2.49527 52.1085 0.87482 49.9785C0.867165 49.9997 0.855469 50.0318 0.855469 50.0318L2.48997 54.1745C2.8026 55.9872 5.48282 57.4287 7.36544 56.5841C9.43997 55.641 7.84901 53.6653 9.90177 53.2586C11.7759 52.8782 13.4668 54.3859 14.8195 55.4427C15.7776 56.1895 16.7358 56.9505 17.6799 57.7113C18.2295 58.1622 19.3286 59.5994 20.1035 59.5149C21.2485 59.4179 22.3357 56.1437 24.6972 54.1041C25.6835 53.2305 27.3604 52.7091 27.4871 54.6254C27.5435 55.2877 27.4167 55.9782 27.7972 56.57C29.1358 58.6836 32.0526 56.9363 33.2362 55.5977C33.969 54.7804 34.4058 53.3009 33.9126 52.2864L32.1935 47.5518C32.5432 47.2444 36.0609 44.2042 36.1954 43.846C36.2658 43.5994 36.3791 43.9654 34.0213 38.1079Z" fill="#E8E8E8"/>
<path d="M32.9267 36.4182C31.7562 35.459 30.2665 33.6725 28.5505 33.5089C27.5249 33.4135 26.5714 33.9502 26.2295 34.8171C25.8471 35.7859 26.3761 37.182 24.6852 38.1818C20.9741 40.3744 16.2987 36.2646 18.45 33.5025C19.0357 32.7478 20.0278 32.2265 21.0367 32.1414C22.0185 32.0629 23.488 32.1425 24.0698 31.0112C24.2634 30.6371 24.4517 29.9107 23.5486 29.2424C21.8117 27.9572 20.7688 27.4543 19.864 26.6712C17.5077 24.6299 17.1704 25.4324 14.8492 27.9239C13.8867 28.9625 12.4327 30.53 11.3193 29.8385C10.6463 29.4219 10.8162 28.1385 9.92855 27.5459C7.90561 26.199 5.55238 28.0529 4.63509 28.9096C3.64813 29.8359 3.0237 31.277 3.85455 32.4123C4.87237 33.8024 6.72612 32.7265 7.06056 33.4444C7.8532 35.1534 1.90788 38.7879 0.279556 40.6305C-0.17684 41.1331 0.066716 41.7174 0.520813 41.8897C1.80967 42.3786 2.96693 43.1024 3.86874 43.9849C4.10355 44.2132 4.33964 44.4854 4.31384 44.7667C4.2515 45.4635 3.11835 45.828 2.46635 46.0375C1.48713 46.3523 0.377607 46.7096 0.0537806 48.1056C-0.468294 50.343 2.9226 52.6929 5.37305 51.5825C7.63775 50.5414 6.12045 48.6357 7.83981 48.2875C9.53216 47.949 11.1162 49.3239 12.4908 50.4046C15.1409 52.469 15.4228 52.7203 15.8658 53.1719C18.3372 55.6852 18.6268 54.535 20.5929 51.6431C21.4121 50.5163 23.2903 47.8776 24.5769 48.401C25.403 48.7433 24.7234 50.3927 25.391 51.4432C26.7527 53.5854 29.711 52.3829 31.3643 50.5233C32.6669 49.0585 32.8031 46.4491 30.8328 45.7678C30.2192 45.5547 28.2867 45.8589 27.8809 45.3756C27.6688 45.1198 27.9315 44.5965 28.2112 44.3409C30.6693 42.0914 34.2023 39.215 34.3807 38.6514C34.6452 37.8257 33.6118 36.9781 32.9267 36.4182ZM30.1426 41.7452C27.7043 43.8762 27.3118 44.114 27.1714 44.8867C26.821 46.8379 30.0116 46.1838 30.6186 46.3923C32.1321 46.9144 31.8161 49.0212 30.8715 50.0846C30.0161 51.0458 28.4499 52.0018 27.2707 51.9192C26.7069 51.8728 26.2747 51.6019 25.9483 51.0897C25.3924 50.2139 26.1886 48.3529 24.8297 47.7908C24.0195 47.4566 22.9913 47.9933 22.3514 48.5533C19.8606 50.73 18.8682 53.8067 17.952 53.8931C17.5714 53.9396 16.7883 53.1681 16.338 52.7088C15.8048 52.1663 16.0465 52.3577 12.5527 49.6137C11.118 48.4806 9.53024 47.2754 7.70821 47.6398C6.44129 47.8966 6.31099 48.6745 6.19616 49.3622C6.0587 50.1908 5.94155 50.5934 5.09825 50.9813C3.12887 51.8785 0.308448 49.926 0.696273 48.2552C0.93624 47.2244 1.73871 46.9651 2.66891 46.6658C3.62018 46.3597 4.87403 45.9029 4.97182 44.8273C5.02342 44.2661 4.65573 43.8301 4.33061 43.5127C2.4628 41.6848 0.633443 41.3618 0.694983 41.184C0.705304 41.153 0.731107 41.1156 0.771102 41.0717C0.771102 41.0704 0.772392 41.0704 0.772392 41.0692C2.66269 38.9763 8.7587 35.5267 7.65919 33.1658C7.04158 31.8475 5.20775 33.1396 4.38867 32.0227C3.71134 31.0977 4.50865 29.934 5.08664 29.3921C5.71236 28.8051 7.88754 26.9821 9.56215 28.0955C10.2005 28.522 10.0212 29.8103 10.971 30.401C13.3923 31.8956 16.106 26.8664 17.5585 26.2261C18.2763 25.9116 19.4098 27.2541 20.0949 27.702C23.7535 30.0367 23.7621 30.1718 23.4828 30.708C23.0679 31.5163 21.7329 31.4209 20.9825 31.4834C19.7943 31.5828 18.6241 32.2007 17.9287 33.0974C16.1844 35.3384 18.0481 38.3021 20.6651 39.1675C22.0624 39.6306 23.8157 39.4616 25.0207 38.7508C27.0152 37.5706 26.5366 35.847 26.8437 35.0597C27.1481 34.2872 28.218 33.7813 29.611 34.5514C30.7292 35.1675 31.5988 36.1942 32.5087 36.9291C32.8828 37.2362 33.8788 38.0515 33.7511 38.4515C33.6878 38.6553 30.2749 41.6298 30.1426 41.7452Z" fill="#229E79"/>
<path d="M32.9267 36.4181C31.7562 35.459 30.2665 33.6725 28.5505 33.5089C27.5249 33.4134 26.5714 33.9501 26.2295 34.8171C25.847 35.7858 26.3761 37.1819 24.6852 38.1818C20.9741 40.3743 16.2987 36.2646 18.45 33.5024C19.0357 32.7477 20.0278 32.2265 21.0367 32.1413C22.0185 32.0628 23.488 32.1424 24.0698 31.0112C24.2634 30.637 24.4517 29.9107 23.5486 29.2424C21.8117 27.9571 20.7688 27.4543 19.864 26.6711C17.5077 24.6299 17.1704 25.4324 14.8492 27.9239C13.8867 28.9624 12.4327 30.5299 11.3193 29.8384C10.6463 29.4218 10.8162 28.1384 9.92855 27.5459C7.90561 26.199 5.55238 28.0529 4.63509 28.9095C3.64813 29.8359 3.0237 31.2769 3.85455 32.4123C4.87237 33.8023 6.72612 32.7264 7.06056 33.4444C7.8532 35.1533 1.90788 38.7879 0.279556 40.6304C-0.17684 41.1331 0.066716 41.7174 0.520813 41.8896C1.80967 42.3786 2.96693 43.1024 3.86874 43.9848C4.10355 44.2132 4.33964 44.4854 4.31384 44.7666C4.25149 45.4634 3.11835 45.828 2.46635 46.0374C1.48713 46.3522 0.377607 46.7096 0.0537806 48.1055C-0.468294 50.343 2.9226 52.6928 5.37305 51.5824C7.63775 50.5414 6.12045 48.6356 7.83981 48.2874C9.53216 47.949 11.1162 49.3238 12.4908 50.4045C15.1409 52.4689 15.4228 52.7203 15.8658 53.1719C18.3372 55.6851 18.6268 54.5349 20.5929 51.6431C21.4121 50.5163 23.2903 47.8776 24.5769 48.401C25.403 48.7432 24.7234 50.3927 25.3909 51.4431C26.7527 53.5853 29.711 52.3829 31.3643 50.5232C32.6669 49.0585 32.8031 46.449 30.8328 45.7678C30.2192 45.5546 28.2867 45.8588 27.8809 45.3756C27.6688 45.1198 27.9315 44.5964 28.2112 44.3409C30.6693 42.0914 34.2023 39.215 34.3807 38.6514C34.6452 37.8257 33.6118 36.9781 32.9267 36.4181Z" fill="#229E79"/>
<path d="M63.9697 24.4263C63.3824 22.5539 62.036 17.3624 60.1277 16.7036C58.6086 16.1748 58.2369 18.6059 55.8392 18.8259C55.0911 18.8966 54.3858 18.6966 53.8091 18.3221C54.3482 18.1589 54.9151 18.0626 55.4434 18.0457C55.9084 18.0176 57.0639 18.0316 56.9933 17.3411L57.2526 12.2678C58.1248 11.4868 56.6978 10.3558 55.5322 7.75775C54.5088 5.4759 53.8363 5.41983 52.2642 5.93478C50.6517 6.46887 47.2713 6.70628 46.8508 8.49442C46.7904 8.75229 46.8123 9.12151 47.1102 9.51193L47.0085 13.9174C45.103 14.4572 43.2955 13.736 42.8939 12.9983C42.4263 12.141 43.6908 11.5698 43.0681 10.7135C41.8656 9.054 37.4441 11.586 34.3144 12.4964C32.9162 12.9092 31.1187 13.602 31.9831 14.7735C32.011 14.8111 32.0401 14.8516 32.0681 14.8894L31.8835 19.9621H31.8976C31.925 20.1535 32.0247 20.266 32.1487 20.4413C28.9946 19.6889 26.8674 22.1383 27.9243 25.2745C27.8951 26.4943 27.8615 27.9462 27.8393 28.6983C27.2516 31.7027 30.1226 34.5192 33.1517 34.1797C35.9004 33.8513 35.4175 31.6417 37.0407 31.2629C38.0975 31.0234 38.7739 31.6997 39.4221 32.3901C40.7651 33.8439 41.224 37.3063 41.9302 37.8714C42.6488 38.5056 44.5089 37.2797 45.2416 37.0261C46.4534 36.5892 47.6652 36.1665 48.8771 35.7579C49.524 35.5153 50.737 35.3875 50.737 34.6024L50.9791 29.6267C51.0712 29.5433 51.1326 29.4465 51.1791 29.3435C52.7273 28.9368 54.3083 29.1951 54.8093 30.6711C55.2421 31.9238 54.1579 32.5582 54.2597 33.2215C54.3161 33.7146 54.8375 33.7992 55.2743 33.7852C56.9088 33.6866 58.5152 32.8834 59.9947 32.2493C60.4749 32.0461 63.3815 30.9279 63.4752 30.4597V30.4315C63.4893 30.4174 63.4752 30.3893 63.4752 30.3752C63.5818 28.1142 63.7274 25.0255 63.7181 25.2215C63.952 25.0318 64.0562 24.7232 63.9697 24.4263ZM30.5136 20.9997C31.7628 20.7699 32.8446 21.4274 34.1351 21.6732C34.4318 21.7325 35.4472 21.8654 35.9877 21.2216C36.7102 20.3585 35.9103 19.1884 35.5259 18.6272C34.4292 17.0222 33.4449 15.6328 32.5147 14.3787C32.1074 13.8341 33.7824 13.3429 34.5015 13.1299C37.0376 12.3815 41.7364 10.0091 42.5339 11.1005C42.6337 11.2401 42.5363 11.4156 42.423 11.6204C41.5015 13.2791 42.9619 14.4075 44.7968 14.7C47.7506 15.1687 49.8154 13.4343 49.8762 11.6514C49.9518 9.48324 47.2478 9.74052 47.4933 8.64536C47.6145 8.13189 48.4854 7.61583 49.0672 7.44037C49.9819 7.16816 50.9276 6.9527 51.8165 6.75531C53.5045 6.37787 53.8295 5.57534 54.9297 8.02868C55.5601 9.43821 57.0214 11.5267 56.852 11.7688C56.7066 11.9731 56.0092 11.992 55.6418 12.0036C53.6447 12.081 52.3261 12.7699 51.8281 13.9969C51.2682 15.3721 51.7791 16.9268 52.4423 17.9228C53.1699 19.0142 54.482 19.609 55.9011 19.4838C57.8758 19.3011 58.834 17.7909 59.3174 17.439C60.9317 16.2771 62.7771 22.7102 63.335 24.6108C63.3857 24.7731 62.5358 25.2752 59.4594 26.5138C58.0918 27.1137 56.6778 27.7343 55.2457 27.7523C55.2432 27.7523 55.2393 27.7523 55.2354 27.7523C55.1477 27.7523 55.0264 27.7368 54.9232 27.6685C54.376 27.2968 55.8635 26.3903 55.3386 24.8637C53.986 20.9176 46.0424 24.511 47.6739 27.6336C48.3716 28.9666 50.3076 28.6771 50.5909 29.0747C50.506 29.3417 49.1721 29.6663 48.9808 29.7327C44.9981 31.1151 45.3161 30.9932 44.6111 31.3363C43.9105 31.6795 42.7365 32.2549 42.3507 31.9169C42.0609 31.6697 41.5719 30.0933 41.4657 29.7611C41.0864 28.5729 40.6942 27.3446 39.8762 26.4661C39.0958 25.627 38.344 24.9755 37.1734 25.2404C35.3278 25.665 35.922 27.8374 33.3249 28.1394C31.9573 28.2903 30.4466 27.7097 29.4648 26.6441C27.7892 24.8212 27.7444 21.5267 30.5136 20.9997Z" fill="white"/>
<path d="M21.7142 18.4154C22.0956 18.6306 22.417 18.055 22.0393 17.84L16.782 14.8534C16.4082 14.6385 16.0735 15.2106 16.4568 15.4288L21.7142 18.4154Z" fill="white"/>
<path d="M24.0493 16.7965L23.5126 14.5272C23.4121 14.0968 22.7689 14.2562 22.8701 14.6794L23.4068 16.9488C23.5087 17.3781 24.1508 17.2208 24.0493 16.7965Z" fill="white"/>
<path d="M26.8648 15.8882L27.2222 12.0656C27.2614 11.6406 26.6063 11.5511 26.5642 12.0036L26.2069 15.8263C26.1664 16.2652 26.8222 16.3249 26.8648 15.8882Z" fill="white"/>
<path d="M9.14503 43.0315C8.77046 42.8086 8.42881 43.3684 8.80185 43.5966C9.90751 44.2674 10.968 45.0286 11.9563 45.8608C12.2889 46.1379 12.7173 45.6375 12.382 45.355C11.368 44.5022 10.2791 43.7204 9.14503 43.0315Z" fill="#229E79"/>
</svg>
