<svg width="80" height="30" viewBox="0 0 80 30" fill="none" xmlns="http://www.w3.org/2000/svg">
<g clip-path="url(#clip0_671_3745)">
<g clip-path="url(#clip1_671_3745)">
<path d="M78.1156 19.8409C77.1132 20.8303 75.8893 21.325 74.4444 21.325C72.9993 21.325 71.7756 20.8303 70.7732 19.8409C69.7837 18.8385 69.2891 17.6148 69.2891 16.1697C69.2891 14.7247 69.7837 13.5074 70.7732 12.518C71.7756 11.5156 72.9993 11.0144 74.4444 11.0144C75.8893 11.0144 77.1132 11.5156 78.1156 12.518C79.118 13.5074 79.6192 14.7247 79.6192 16.1697C79.6192 17.6148 79.118 18.8385 78.1156 19.8409ZM72.5502 18.103C73.0578 18.6107 73.6893 18.8645 74.4444 18.8645C75.1993 18.8645 75.8308 18.6107 76.3384 18.103C76.8462 17.5952 77.1001 16.9508 77.1001 16.1697C77.1001 15.3886 76.8462 14.7442 76.3384 14.2365C75.8308 13.7288 75.1993 13.4749 74.4444 13.4749C73.6893 13.4749 73.0578 13.7288 72.5502 14.2365C72.0554 14.7442 71.808 15.3886 71.808 16.1697C71.808 16.9508 72.0554 17.5952 72.5502 18.103Z" fill="#F7F7F7"/>
<path d="M60.9877 17.2049C61.3262 18.4287 62.244 19.0405 63.7411 19.0405C64.7045 19.0405 65.4335 18.7151 65.9282 18.0642L67.9591 19.2358C66.9958 20.6288 65.5768 21.3253 63.7021 21.3253C62.0878 21.3253 60.7925 20.8371 59.816 19.8607C58.8397 18.8843 58.3516 17.6541 58.3516 16.17C58.3516 14.6989 58.8333 13.4751 59.7965 12.4988C60.7599 11.5094 61.9967 11.0146 63.5069 11.0146C64.9389 11.0146 66.117 11.5094 67.0414 12.4988C67.9787 13.4882 68.4473 14.7119 68.4473 16.17C68.4473 16.4954 68.4147 16.8404 68.3496 17.2049H60.9877ZM60.9487 15.2522H65.9282C65.7851 14.5882 65.4857 14.0935 65.03 13.7681C64.5873 13.4426 64.0797 13.2799 63.5069 13.2799C62.8298 13.2799 62.2701 13.4556 61.8274 13.8071C61.3849 14.1456 61.092 14.6273 60.9487 15.2522Z" fill="#F7F7F7"/>
<path d="M53.7588 11.0146C54.8263 11.0146 55.7051 11.3727 56.395 12.0887C57.0981 12.8047 57.4495 13.7941 57.4495 15.0569V21.0519H54.9305V15.3693C54.9305 14.7184 54.7546 14.2237 54.4032 13.8852C54.0517 13.5337 53.5831 13.358 52.9971 13.358C52.3463 13.358 51.8256 13.5598 51.435 13.9633C51.0444 14.3669 50.8492 14.9723 50.8492 15.7794V21.0519H48.3301V11.2881H50.8492V12.3816C51.4611 11.4703 52.4309 11.0146 53.7588 11.0146Z" fill="#F7F7F7"/>
<path d="M39.8531 17.2049C40.1916 18.4287 41.1094 19.0405 42.6065 19.0405C43.5699 19.0405 44.2989 18.7151 44.7936 18.0642L46.8245 19.2358C45.8611 20.6288 44.4422 21.3253 42.5675 21.3253C40.9532 21.3253 39.6578 20.8371 38.6814 19.8607C37.7051 18.8843 37.2168 17.6541 37.2168 16.17C37.2168 14.6989 37.6985 13.4751 38.6619 12.4988C39.6253 11.5094 40.8621 11.0146 42.3721 11.0146C43.8043 11.0146 44.9824 11.5094 45.9066 12.4988C46.844 13.4882 47.3127 14.7119 47.3127 16.17C47.3127 16.4954 47.2801 16.8404 47.2151 17.2049H39.8531ZM39.814 15.2522H44.7936C44.6503 14.5882 44.3511 14.0935 43.8954 13.7681C43.4527 13.4426 42.945 13.2799 42.3721 13.2799C41.6952 13.2799 41.1355 13.4556 40.6928 13.8071C40.2501 14.1456 39.9572 14.6273 39.814 15.2522Z" fill="#F7F7F7"/>
<path d="M37.9143 21.0521H34.9853L31.4313 16.6193V21.0521H28.9121V8.01367H31.4313V15.5844L34.7899 11.2883H37.7971L33.8722 16.1116L37.9143 21.0521Z" fill="#F7F7F7"/>
<path d="M24.8521 11.2881H27.3712V21.0519H24.8521V19.8998C24.097 20.8501 23.036 21.3253 21.6691 21.3253C20.3672 21.3253 19.2476 20.8306 18.3103 19.8412C17.3861 18.8387 16.9238 17.615 16.9238 16.17C16.9238 14.7249 17.3861 13.5077 18.3103 12.5183C19.2476 11.5159 20.3672 11.0146 21.6691 11.0146C23.036 11.0146 24.097 11.4898 24.8521 12.4402V11.2881ZM20.2045 18.1618C20.7123 18.6695 21.3565 18.9234 22.1377 18.9234C22.9188 18.9234 23.5633 18.6695 24.0709 18.1618C24.5918 17.6411 24.8521 16.9771 24.8521 16.17C24.8521 15.3628 24.5918 14.7054 24.0709 14.1977C23.5633 13.6769 22.9188 13.4166 22.1377 13.4166C21.3565 13.4166 20.7123 13.6769 20.2045 14.1977C19.6967 14.7054 19.4428 15.3628 19.4428 16.17C19.4428 16.9771 19.6967 17.6411 20.2045 18.1618Z" fill="#F7F7F7"/>
<path fill-rule="evenodd" clip-rule="evenodd" d="M2.99903 8.76196C1.82273 8.76196 0.869141 9.71555 0.869141 10.8919V19.9439C0.869141 21.1202 1.82273 22.0738 2.99903 22.0738H12.0511C13.2274 22.0738 14.181 21.1202 14.181 19.9439V10.8919C14.181 9.71555 13.2274 8.76196 12.0511 8.76196H2.99903ZM9.95671 19.7015C9.95676 19.7019 9.95683 19.7023 9.95688 19.7026L9.95726 19.7019C9.95708 19.7018 9.95689 19.7017 9.95671 19.7015ZM9.95671 19.7015C9.92836 19.5225 9.92292 19.1722 9.95583 18.674C9.97609 18.3675 10.0571 18.0679 10.1544 17.7765C10.3137 17.2989 10.553 16.857 10.7919 16.4158C10.8084 16.3853 10.8249 16.3548 10.8414 16.3244C10.8534 16.3021 10.8655 16.2798 10.8776 16.2574C11.1164 15.8164 11.375 15.3391 11.4399 14.8388C11.5295 14.1474 11.0482 13.4623 10.6347 12.9543C10.0677 12.2575 9.37423 11.6609 8.65035 11.1331C8.7184 11.7931 8.75098 12.4885 8.70327 13.1627C8.6579 13.7999 8.51659 14.4242 8.31517 15.0296C8.20398 15.3635 8.07511 15.6912 7.9291 16.0114C7.88292 16.1126 7.87861 16.1152 7.76768 16.1049C7.6824 16.0968 7.5972 16.0877 7.51212 16.0775C7.33247 16.056 7.15353 16.0295 6.97528 15.9982C6.34342 15.8873 5.71623 15.7188 5.12913 15.458C4.43699 15.1509 3.78706 14.7453 3.17666 14.299C3.24796 14.9751 3.37151 15.6505 3.56227 16.3033C3.73707 16.902 3.96376 17.5125 4.34385 18.0133C4.53386 18.2638 4.77338 18.4869 5.07461 18.5924C5.34341 18.6865 5.63412 18.7254 5.91675 18.7512C6.19768 18.7773 6.4796 18.7853 6.76154 18.7932C7.08279 18.8023 7.40405 18.8114 7.72383 18.8473C8.53596 18.938 9.29103 19.2253 9.95671 19.7015Z" fill="#994AFF"/>
</g>
</g>
<defs>
<clipPath id="clip0_671_3745">
<rect width="79" height="28.2143" fill="white" transform="translate(0.765625 0.892822)"/>
</clipPath>
<clipPath id="clip1_671_3745">
<rect width="79" height="14.4833" fill="white" transform="translate(0.765625 7.7583)"/>
</clipPath>
</defs>
</svg>
