<svg width="81" height="30" viewBox="0 0 81 30" fill="none" xmlns="http://www.w3.org/2000/svg">
<g clip-path="url(#clip0_671_3737)">
<g clip-path="url(#clip1_671_3737)">
<path d="M18.3467 5.38744C18.3338 5.27109 18.2304 5.21937 18.1528 5.20644C18.0752 5.19352 16.5238 5.18059 16.5238 5.18059C16.5238 5.18059 15.218 3.9136 15.0887 3.78431C14.9595 3.65503 14.7138 3.69381 14.6104 3.71967C14.6104 3.71967 14.3647 3.79724 13.951 3.92653C13.8864 3.70674 13.783 3.43525 13.6408 3.16375C13.1753 2.27168 12.503 1.80626 11.6756 1.80626C11.6239 1.80626 11.5593 1.80626 11.5076 1.81919C11.4817 1.79333 11.4558 1.76747 11.43 1.72869C11.068 1.34084 10.6155 1.15984 10.0725 1.17277C9.01237 1.19862 7.96516 1.9614 7.09895 3.33182C6.49132 4.28852 6.03882 5.49087 5.90954 6.42172C4.69426 6.79664 3.84098 7.05521 3.82805 7.06814C3.22042 7.26207 3.19456 7.275 3.11699 7.85678C3.05235 8.28342 1.44922 20.7077 1.44922 20.7077L14.9077 23.0348L20.7385 21.5868C20.7385 21.5868 18.3596 5.49087 18.3467 5.38744ZM13.2788 4.13338C12.9685 4.22388 12.6194 4.34024 12.2316 4.45659C12.2186 3.92653 12.154 3.17668 11.9083 2.53025C12.7228 2.68539 13.1107 3.59039 13.2788 4.13338ZM11.5334 4.67638C10.8223 4.89616 10.0596 5.12887 9.28386 5.37451C9.50365 4.54709 9.91736 3.71967 10.4216 3.17668C10.6155 2.96982 10.8741 2.75004 11.1843 2.62075C11.4817 3.22839 11.5334 4.0946 11.5334 4.67638ZM10.0854 1.88383C10.3311 1.88383 10.5379 1.93554 10.7189 2.0519C10.4345 2.19411 10.1501 2.4139 9.8915 2.69832C9.21922 3.42232 8.70208 4.53416 8.49523 5.62015C7.8488 5.81408 7.22824 6.00801 6.64646 6.18901C7.03431 4.48245 8.45644 1.93554 10.0854 1.88383Z" fill="#95BF47"/>
<path d="M18.1532 5.20649C18.0757 5.19356 16.5243 5.18063 16.5243 5.18063C16.5243 5.18063 15.2185 3.91364 15.0892 3.78436C15.0375 3.73264 14.9728 3.70679 14.9082 3.70679V23.0348L20.7389 21.5868C20.7389 21.5868 18.3601 5.50384 18.3472 5.38749C18.3213 5.27113 18.2308 5.21942 18.1532 5.20649Z" fill="#5E8E3E"/>
<path d="M11.6765 8.20601L11.0042 10.74C11.0042 10.74 10.2543 10.3909 9.34935 10.4556C8.03065 10.5331 8.01772 11.3606 8.03065 11.5803C8.10822 12.718 11.0818 12.9637 11.2498 15.614C11.3791 17.7084 10.138 19.1306 8.35386 19.2469C6.20774 19.3762 5.03125 18.1221 5.03125 18.1221L5.48375 16.1958C5.48375 16.1958 6.67316 17.0879 7.61694 17.0361C8.23751 16.9974 8.45729 16.4932 8.43143 16.1312C8.34093 14.6573 5.91038 14.7349 5.75524 12.3173C5.62596 10.2746 6.97052 8.20601 9.93113 8.01208C11.0947 7.90866 11.6765 8.20601 11.6765 8.20601Z" fill="white"/>
<path d="M28.638 13.61C27.9657 13.248 27.6166 12.9377 27.6166 12.5111C27.6166 11.9681 28.095 11.619 28.8578 11.619C29.7369 11.619 30.5126 11.981 30.5126 11.981L31.1332 10.0935C31.1332 10.0935 30.5643 9.65392 28.8965 9.65392C26.5694 9.65392 24.9534 10.9856 24.9534 12.8602C24.9534 13.9203 25.7032 14.7348 26.7116 15.3166C27.5261 15.782 27.8106 16.1052 27.8106 16.5965C27.8106 17.1007 27.4098 17.5015 26.647 17.5015C25.5222 17.5015 24.4621 16.9197 24.4621 16.9197L23.8027 18.8073C23.8027 18.8073 24.7853 19.4666 26.4272 19.4666C28.819 19.4666 30.5385 18.2901 30.5385 16.1699C30.5514 15.0192 29.6852 14.2047 28.638 13.61ZM38.1792 9.62806C37.0027 9.62806 36.0718 10.184 35.3608 11.0373L35.322 11.0243L36.3433 5.67195H33.6801L31.0944 19.2856H33.7576L34.6497 14.6314C34.9988 12.8731 35.9038 11.7871 36.7571 11.7871C37.3518 11.7871 37.5845 12.1879 37.5845 12.7697C37.5845 13.1317 37.5457 13.5842 37.4681 13.9462L36.4597 19.2727H39.123L40.1702 13.7652C40.2865 13.1834 40.3641 12.4853 40.3641 12.0328C40.3641 10.546 39.5625 9.62806 38.1792 9.62806ZM46.3888 9.62806C43.1825 9.62806 41.0622 12.524 41.0622 15.7562C41.0622 17.8247 42.3421 19.4795 44.7339 19.4795C47.8755 19.4795 50.0087 16.6611 50.0087 13.3515C49.9958 11.451 48.871 9.62806 46.3888 9.62806ZM45.07 17.4369C44.1651 17.4369 43.7772 16.6611 43.7772 15.7044C43.7772 14.1789 44.5658 11.6837 46.0138 11.6837C46.9576 11.6837 47.2679 12.4982 47.2679 13.2868C47.2679 14.9287 46.4792 17.4369 45.07 17.4369ZM56.8091 9.62806C55.012 9.62806 53.9907 11.2053 53.9907 11.2053H53.9519L54.107 9.77028H51.7541C51.6377 10.7399 51.4308 12.2008 51.2111 13.2997L49.3623 23.0478H52.0256L52.7625 19.1046H52.8142C52.8142 19.1046 53.3572 19.4537 54.3785 19.4537C57.5072 19.4537 59.5499 16.2474 59.5499 13.0024C59.5628 11.2312 58.7613 9.62806 56.8091 9.62806ZM54.2622 17.4756C53.564 17.4756 53.1633 17.0878 53.1633 17.0878L53.6028 14.5926C53.9131 12.9377 54.7793 11.8259 55.7102 11.8259C56.5247 11.8259 56.7703 12.5757 56.7703 13.2997C56.7703 15.0192 55.749 17.4756 54.2622 17.4756ZM63.3638 5.81417C62.5105 5.81417 61.8383 6.48645 61.8383 7.36558C61.8383 8.15422 62.3425 8.69721 63.0923 8.69721H63.1311C63.9585 8.69721 64.6825 8.14129 64.6954 7.1458C64.6954 6.37009 64.1783 5.81417 63.3638 5.81417ZM59.6404 19.2856H62.3037L64.1137 9.84785H61.4245L59.6404 19.2856ZM70.8882 9.82199H69.0394L69.1299 9.38242C69.285 8.47743 69.828 7.66294 70.7072 7.66294C71.1855 7.66294 71.5605 7.79222 71.5605 7.79222L72.0776 5.71074C72.0776 5.71074 71.6122 5.47803 70.6296 5.47803C69.6858 5.47803 68.7421 5.74952 68.0181 6.37009C67.1131 7.1458 66.6864 8.25765 66.4666 9.38242L66.3891 9.82199H65.1479L64.7601 11.8259H66.0012L64.592 19.2856H67.2553L68.6645 11.8259H70.5003L70.8882 9.82199ZM77.3007 9.84785C77.3007 9.84785 75.6329 14.0496 74.8831 16.3379H74.8443C74.7926 15.601 74.1849 9.84785 74.1849 9.84785H71.3924L72.9955 18.5228C73.0343 18.7168 73.0084 18.8331 72.9438 18.9624C72.6335 19.5571 72.1164 20.1389 71.4958 20.5655C70.9916 20.9275 70.4357 21.1602 69.9832 21.3154L70.7201 23.5779C71.2631 23.4615 72.375 23.0219 73.3317 22.1299C74.5469 20.9922 75.6717 19.2339 76.8223 16.8421L80.0803 9.84785H77.3007Z" fill="white"/>
</g>
</g>
<defs>
<clipPath id="clip0_671_3737">
<rect width="80" height="29" fill="white" transform="translate(0.765625 0.5)"/>
</clipPath>
<clipPath id="clip1_671_3737">
<rect width="80" height="23.75" fill="white" transform="translate(0.765625 0.5)"/>
</clipPath>
</defs>
</svg>
