<svg width="16" height="17" viewBox="0 0 16 17" fill="none" xmlns="http://www.w3.org/2000/svg">
<g id="Frame" clip-path="url(#clip0_1426_24406)">
<path id="Vector" d="M12.3662 16.5942H3.60435C1.71191 16.5916 0.178432 15.0581 0.175781 13.1657V4.02281C0.178432 2.13037 1.71191 0.596889 3.60435 0.594238H9.31864C11.2111 0.596889 12.7446 2.13037 12.7472 4.02281V5.92753C12.7472 6.34842 13.0883 6.68952 13.5091 6.68952H14.2711C15.1126 6.68952 15.7948 7.37172 15.7948 8.21324V13.1657C15.7923 15.0581 14.2586 16.5916 12.3662 16.5942ZM3.60435 1.3561C2.13267 1.35875 0.94029 2.55113 0.93764 4.02281V13.1657C0.94029 14.6373 2.13267 15.8297 3.60435 15.8324H12.3662C13.8379 15.8297 15.0303 14.6373 15.0329 13.1657V8.21324C15.0329 7.79248 14.6918 7.45138 14.2711 7.45138H13.5091C12.6676 7.45138 11.9854 6.76918 11.9854 5.92753V4.02281C11.9827 2.55113 10.7903 1.35875 9.31864 1.3561H3.60435Z" fill="white"/>
<path id="Vector_2" d="M7.98647 7.07038H4.93876C4.20243 7.07038 3.60547 6.47342 3.60547 5.7371C3.60547 5.00077 4.20243 4.40381 4.93876 4.40381H7.98647C8.7228 4.40381 9.31976 5.00077 9.31976 5.7371C9.31976 6.47342 8.7228 7.07038 7.98647 7.07038ZM4.93876 5.16567C4.62319 5.16567 4.36733 5.42153 4.36733 5.7371C4.36733 6.05266 4.62319 6.30852 4.93876 6.30852H7.98647C8.30204 6.30852 8.5579 6.05266 8.5579 5.7371C8.5579 5.42153 8.30204 5.16567 7.98647 5.16567H4.93876Z" fill="white"/>
<path id="Vector_3" d="M11.034 12.7847H4.93876C4.20243 12.7847 3.60547 12.1878 3.60547 11.4515C3.60547 10.7151 4.20243 10.1182 4.93876 10.1182H11.034C11.7704 10.1182 12.3673 10.7151 12.3673 11.4515C12.3673 12.1878 11.7704 12.7847 11.034 12.7847ZM4.93876 10.88C4.62319 10.88 4.36733 11.1359 4.36733 11.4515C4.36733 11.767 4.62319 12.0229 4.93876 12.0229H11.034C11.3496 12.0229 11.6055 11.767 11.6055 11.4515C11.6055 11.1359 11.3496 10.88 11.034 10.88H4.93876Z" fill="white"/>
</g>
<defs>
<clipPath id="clip0_1426_24406">
<rect width="16" height="16" fill="white" transform="translate(0 0.594238)"/>
</clipPath>
</defs>
</svg>
