<?xml version="1.0" encoding="UTF-8"?>
<svg id="Layer_2" data-name="Layer 2" xmlns="http://www.w3.org/2000/svg" viewBox="0 0 96 94.11">
  <defs>
    <style>
      .cls-1 {
        fill: #229e79;
        stroke-width: 0px;
      }
    </style>
  </defs>
  <g id="Layer_1-2" data-name="Layer 1">
    <g>
      <path class="cls-1" d="M91.33,32.03h-2.09l.17-6.11c.05-1.69-.85-3.24-2.34-4.04l-8.88-4.8c-.06-.03-.11-.08-.14-.14l-4.8-8.88c-.8-1.49-2.36-2.38-4.04-2.34l-10.09.29c-.07.01-.13-.02-.19-.05L50.34.67c-1.44-.89-3.23-.89-4.67,0l-8.6,5.29c-.06.04-.12.06-.19.05l-10.09-.29c-1.67-.03-3.24.85-4.04,2.34l-4.8,8.88c-.03.06-.08.11-.14.14l-8.88,4.8c-1.49.8-2.38,2.35-2.34,4.04l.17,6.11h-2.09c-2.58,0-4.67,2.09-4.67,4.67v20.88c0,2.58,2.09,4.67,4.67,4.67h1.73c.09,0,.18.04.25.1s.1.16.1.25l-.16,5.75c-.05,1.69.85,3.24,2.34,4.04l8.88,4.8c.06.03.11.08.14.14l4.8,8.88c.8,1.49,2.35,2.38,4.04,2.34l10.09-.29c.07,0,.14.02.19.05l8.08,4.97c.88.54,1.87.81,2.85.81s1.97-.27,2.85-.81l8.08-4.97c.06-.03.13-.06.19-.05l10.09.29c1.68.04,3.24-.85,4.04-2.34l4.8-8.88c.03-.06.08-.11.14-.14l8.88-4.8c1.49-.8,2.38-2.35,2.34-4.04l-.16-5.75c0-.09.03-.18.1-.25s.15-.1.25-.1h1.73c2.57,0,4.67-2.09,4.67-4.67v-20.88c0-2.58-2.1-4.67-4.67-4.67ZM26.16,9.67c.06-.11.19-.19.31-.18l11.13.32c.27,0,.51-.06.74-.2l9.48-5.84c.11-.07.25-.07.36,0l9.48,5.84c.22.14.45.2.74.2l11.13-.32c.13-.01.25.07.31.18l5.29,9.8c.12.23.31.41.54.54l9.8,5.29c.11.06.18.18.18.31l-.17,6.09c0,.19-.16.33-.34.33h-5.03c-.13,0-.24-.07-.3-.19-5.84-12.14-18.33-19.99-31.8-19.99-6.1,0-12.11,1.58-17.39,4.58-.31.18-.53.47-.63.82-.09.35-.04.73.15,1.03l.29.49c.52.87,1.64,1.16,2.54.67,4.59-2.5,9.79-3.81,15.04-3.81,11.3,0,21.79,6.1,27.39,15.91.08.14.02.27,0,.32-.06.11-.18.18-.3.18H20.92c-.13,0-.24-.07-.3-.18-.03-.05-.09-.18,0-.32,2.03-3.55,4.69-6.64,7.91-9.17.81-.64.98-1.78.39-2.6l-.33-.46c-.21-.29-.54-.49-.89-.54-.36-.05-.71.04-1,.25-4.45,3.37-8.08,7.81-10.5,12.83-.06.12-.17.19-.3.19h-5.03c-.19,0-.34-.15-.34-.33l-.17-6.09c0-.13.07-.25.18-.31l9.8-5.29c.23-.13.42-.31.54-.54l5.29-9.8ZM69.84,84.61c-.06.12-.17.21-.31.18l-11.13-.32c-.26,0-.52.06-.74.2l-9.48,5.84c-.11.07-.25.07-.36,0l-9.48-5.84c-.21-.13-.45-.2-.7-.2-.01,0-.03,0-.04,0l-11.34.32-5.39-9.98c-.12-.23-.31-.42-.54-.54l-9.98-5.39.19-6.63h5.57c5.82,12.27,18.3,20.18,31.9,20.18s26.08-7.91,31.9-20.18h5.57l.18,6.42c0,.13-.07.25-.18.31l-9.79,5.29c-.23.12-.42.31-.54.54l-5.29,9.79ZM51.68,60.36c0,1.04.85,1.89,1.89,1.89h22.1c-5.53,10.14-16.06,16.41-27.66,16.41s-22.13-6.27-27.66-16.41h22.1c1.04,0,1.89-.85,1.89-1.89s-.85-1.89-1.89-1.89H4.67c-.49,0-.9-.4-.9-.9v-20.88c0-.49.4-.9.9-.9h86.66c.49,0,.9.4.9.9v20.88c0,.49-.4.9-.9.9h-37.76c-1.04,0-1.89.85-1.89,1.89Z"/>
      <circle class="cls-1" cx="48" cy="60.36" r="1.89"/>
      <circle class="cls-1" cx="57.74" cy="22.09" r="1.89"/>
      <circle class="cls-1" cx="63.31" cy="24.87" r="1.89"/>
      <path class="cls-1" d="M45.13,39.63l-5.37,14.09,3.53,1.34,1.26-3.32h4.2l1.25,3.31,3.53-1.33-5.32-14.1h-3.08ZM47.32,47.97h-1.33l.67-1.76.66,1.76Z"/>
      <polygon class="cls-1" points="61.68 47.28 66.21 54.48 69.63 54.48 69.63 39.61 65.86 39.61 65.86 46.83 61.33 39.63 57.91 39.63 57.91 54.65 61.68 54.65 61.68 47.28"/>
      <path class="cls-1" d="M79.17,54.32c3.58-.06,6.18-3.16,6.18-7.36s-2.53-7.36-6.3-7.36h-4.98v14.71h5.11ZM77.83,50.54v-7.16h1.21c.59,0,2.53.26,2.53,3.58,0,2.42-1.27,3.55-2.46,3.58h-1.28Z"/>
      <path class="cls-1" d="M20.29,44.11c0-2.47-2.01-4.48-4.48-4.48h-5.16v15.04h5.73c2.71,0,4.92-2.21,4.92-4.93,0-1.35-.55-2.63-1.52-3.56.33-.64.51-1.35.51-2.07ZM15.81,44.82h-1.39v-1.42h1.39c.39,0,.71.32.71.71s-.32.71-.71.71ZM17.53,49.74c0,.64-.51,1.16-1.15,1.16h-1.96v-2.31h1.96c.63,0,1.15.51,1.15,1.15Z"/>
      <path class="cls-1" d="M35.6,44.44c0-2.66-2.23-4.82-4.98-4.82h-4.88v15.04s3.77,0,3.77,0v-3.81s3.64,4.31,3.64,4.31l2.88-2.44-3.32-3.92c1.73-.78,2.88-2.49,2.88-4.37ZM31.83,44.44c0,.57-.56,1.04-1.22,1.04h-1.1s0-2.09,0-2.09h1.11c.64,0,1.21.49,1.21,1.04Z"/>
    </g>
  </g>
</svg>