<?xml version="1.0" encoding="UTF-8"?>
<svg id="Layer_2" data-name="Layer 2" xmlns="http://www.w3.org/2000/svg" viewBox="0 0 95.75 96">
  <defs>
    <style>
      .cls-1 {
        fill: #229e79;
        stroke-width: 0px;
      }
    </style>
  </defs>
  <g id="Layer_1-2" data-name="Layer 1">
    <g>
      <path class="cls-1" d="M77.96,10.57c-3.94,0-7.15,3.18-7.18,7.12,0,1.04.85,1.89,1.89,1.89s1.89-.85,1.89-1.89c0-1.87,1.53-3.39,3.4-3.38,1.87,0,3.39,1.53,3.38,3.4,0,1.87-1.52,3.38-3.39,3.38-1.04,0-1.89.85-1.89,1.89s.85,1.89,1.89,1.89c3.96,0,7.18-3.21,7.18-7.17,0-3.96-3.21-7.18-7.17-7.18h0v.04Z"/>
      <path class="cls-1" d="M95.69,14.07c.13-.48.06-1-.18-1.44l-4.32-7.56c-.53-.9-1.68-1.21-2.58-.69l-3.17,1.84c-.4-.26-.81-.5-1.23-.71V1.89c0-1.04-.85-1.89-1.89-1.89h-8.64c-1.04,0-1.89.85-1.89,1.89v3.62c-.37.19-.73.4-1.08.63l-3.19-1.85c-.9-.53-2.05-.23-2.58.67l-4.43,7.47c-.53.9-.23,2.06.66,2.59l3.11,1.84v1.6l-3.13,1.8c-.43.25-.75.66-.88,1.15-.13.48-.06,1,.18,1.44l4.32,7.56c.26.43.67.75,1.16.88.48.12.99.04,1.42-.22l3.13-1.82c.4.26.81.5,1.23.71v3.62c0,1.04.85,1.89,1.89,1.89h8.64c1.04,0,1.89-.85,1.89-1.89h0v-3.62c.38-.19.75-.4,1.08-.63l3.12,1.85c.9.53,2.05.23,2.58-.67l4.52-7.42c.26-.43.33-.94.21-1.43-.12-.49-.43-.91-.86-1.17l-3.1-1.84v-1.59l3.13-1.8c.45-.26.77-.7.89-1.2h0ZM87.92,17.69c0,.52-.05,1.05-.13,1.57-.13.77.23,1.54.9,1.93l2.54,1.5-2.51,4.23-2.54-1.5c-.68-.42-1.54-.36-2.16.14-.74.58-1.57,1.05-2.44,1.39-.72.28-1.19.98-1.19,1.75v3.04h-4.87v-2.99c0-.78-.48-1.47-1.2-1.76-.92-.35-1.77-.85-2.54-1.46-.62-.5-1.48-.56-2.16-.15l-2.55,1.47-2.45-4.25,2.56-1.48c.67-.39,1.04-1.15.92-1.91-.06-.5-.09-1.01-.08-1.51,0-.53.05-1.06.14-1.59.11-.76-.25-1.52-.91-1.91l-2.54-1.5,2.51-4.21,2.54,1.55c.68.41,1.54.36,2.16-.14.74-.58,1.57-1.05,2.44-1.39.72-.28,1.2-.98,1.2-1.76v-2.94h4.91v2.94c0,.78.48,1.48,1.2,1.76.91.36,1.76.85,2.53,1.46.61.51,1.48.57,2.16.16l2.56-1.47,2.45,4.25-2.64,1.47c-.67.39-1.04,1.15-.93,1.91.07.47.11.95.12,1.43h0Z"/>
      <path class="cls-1" d="M1.89,68.91h5.85c.55,1.77,1.28,3.49,2.16,5.12l-4.16,4.17c-.73.74-.73,1.93,0,2.67l9.39,9.39c.73.74,1.92.75,2.66.02,0,0,.01-.01.02-.02l4.14-4.17c1.63.89,3.34,1.61,5.11,2.16v5.86c0,1.04.85,1.89,1.89,1.89h13.29c1.04,0,1.89-.85,1.89-1.89v-5.91c1.77-.55,3.48-1.28,5.11-2.16l4.13,4.13c.72.74,1.91.75,2.64.03,0,0,.02-.02.03-.03l9.4-9.39c.35-.35.55-.83.55-1.33-.03-.47-.24-.92-.58-1.24l-4.14-4.14c.88-1.63,1.61-3.34,2.16-5.11h5.86c1.04,0,1.89-.83,1.89-1.87,0,0,0-.01,0-.02v-13.31c0-1.04-.85-1.89-1.89-1.89h-5.9c-.56-1.77-1.28-3.48-2.16-5.11l4.13-4.13c.74-.73.75-1.92.02-2.66,0,0-.01-.01-.02-.02l-9.39-9.39c-.75-.7-1.92-.7-2.67,0l-4.13,4.14c-1.63-.88-3.35-1.61-5.12-2.16v-5.81c0-1.04-.85-1.89-1.89-1.89h-13.24c-1.04,0-1.89.85-1.89,1.89v5.85c-1.77.56-3.48,1.28-5.11,2.16l-4.13-4.14c-.76-.7-1.92-.7-2.68,0l-9.37,9.35c-.74.74-.74,1.94,0,2.68l4.14,4.13c-.88,1.63-1.61,3.34-2.16,5.11H1.89c-1.04,0-1.89.85-1.89,1.89v13.28c0,1.04.85,1.89,1.89,1.89h0ZM3.78,55.63h5.4c.87,0,1.62-.59,1.84-1.43.6-2.4,1.55-4.7,2.82-6.82.44-.74.32-1.69-.29-2.3l-3.81-3.81,6.71-6.72,3.81,3.81c.61.62,1.56.74,2.3.28,2.12-1.26,4.42-2.21,6.82-2.81.84-.21,1.43-.97,1.43-1.84v-5.4h9.51v5.4c0,.87.59,1.62,1.44,1.84,2.4.6,4.69,1.55,6.82,2.81.74.46,1.69.34,2.3-.28l3.81-3.81,6.71,6.72-3.79,3.81c-.62.61-.74,1.56-.29,2.3,1.27,2.12,2.22,4.42,2.82,6.82.21.83.94,1.41,1.79,1.43h5.4v9.5h-5.4c-.87,0-1.63.59-1.84,1.44-.6,2.4-1.55,4.69-2.82,6.81-.43.76-.29,1.71.33,2.31l3.78,3.81-6.71,6.71-3.81-3.8c-.61-.62-1.56-.74-2.3-.29-2.12,1.27-4.42,2.22-6.82,2.82-.84.21-1.43.97-1.43,1.84v5.4h-9.51v-5.4c0-.87-.59-1.62-1.43-1.83-2.4-.6-4.7-1.55-6.82-2.82-.74-.44-1.69-.32-2.3.29l-3.81,3.8-6.71-6.72,3.8-3.81c.61-.61.73-1.57.29-2.31-1.27-2.12-2.22-4.41-2.82-6.81-.21-.84-.97-1.44-1.84-1.44H3.77v-9.5Z"/>
      <path class="cls-1" d="M35.56,81.21c11.5,0,20.83-9.31,20.84-20.81,0-4.53-1.47-8.93-4.2-12.55-.97-1.29-2.09-2.46-3.33-3.49-.81-.67-2-.56-2.67.25s-.56,2,.25,2.67c7.23,6.01,8.22,16.75,2.21,23.98-6.01,7.23-16.75,8.22-23.98,2.21-7.23-6.01-8.22-16.75-2.21-23.98,3.23-3.89,8.03-6.14,13.09-6.14,1.04,0,1.89-.85,1.89-1.89s-.85-1.89-1.89-1.89c-11.5,0-20.82,9.32-20.82,20.82s9.32,20.82,20.82,20.82Z"/>
      <path class="cls-1" d="M35.78,46.48c-1.04,0-1.89.85-1.89,1.89v.75h-.63c-4.04,0-7.33,2.89-7.33,6.42v.25c.12,2.64,2,4.86,4.58,5.4l3.37.69v5.81h-.63c-1.92,0-3.54-1.22-3.54-2.66,0-1.04-.85-1.89-1.89-1.89s-1.89.85-1.89,1.89c0,3.54,3.24,6.48,7.33,6.48h.63v.95c0,1.04.85,1.89,1.89,1.89s1.89-.85,1.89-1.89v-.95c4.02,0,7.28-2.91,7.28-6.48v-.24c-.1-2.67-2.04-4.92-4.67-5.4l-2.62-.64v-5.86c1.9,0,3.51,1.22,3.51,2.64,0,1.04.85,1.89,1.89,1.89s1.89-.85,1.89-1.89h0c0-3.52-3.24-6.4-7.29-6.42v-.75c0-1.04-.85-1.89-1.89-1.89h0ZM33.89,58l-2.58-.53c-.82-.19-1.45-.85-1.59-1.69v-.27c0-1.43,1.62-2.64,3.54-2.64h.63v5.12ZM39.45,63c.92.12,1.63.85,1.72,1.77v.24c0,1.43-1.6,2.64-3.5,2.66v-5.04l1.78.37Z"/>
      <path class="cls-1" d="M94.65,36.75c.17-1.03-.53-2-1.56-2.17-.81-.13-1.61.27-1.98.99-4.14,11.6-9.42,22.75-15.77,33.3-1.35,2.25-2.76,4.48-4.17,6.63-.59.86-.37,2.03.49,2.61,0,0,0,0,0,0,.32.21.7.32,1.08.31.63,0,1.23-.32,1.58-.84,1.45-2.16,2.89-4.47,4.26-6.78,6.48-10.8,11.86-22.21,16.08-34.07Z"/>
      <path class="cls-1" d="M57.14,1.86c-1.08.48-25.45,11.61-37.12,20.32-.84.63-1.01,1.81-.38,2.65.35.46.88.74,1.46.76.39-.01.77-.14,1.08-.37C33.63,16.74,58.46,5.41,58.69,5.31c.95-.43,1.37-1.56.94-2.51-.43-.95-1.56-1.37-2.51-.94h.02Z"/>
    </g>
  </g>
</svg>