<svg width="16" height="17" viewBox="0 0 16 17" fill="none" xmlns="http://www.w3.org/2000/svg">
<g id="Frame" clip-path="url(#clip0_1426_24412)">
<path id="Vector" d="M7.99999 11.8608C9.61974 11.8608 10.9375 10.5431 10.9375 8.92332V3.53173C10.9375 1.91198 9.61974 0.594238 7.99999 0.594238C6.38025 0.594238 5.0625 1.91198 5.0625 3.53173V8.92332C5.0625 10.5431 6.38025 11.8608 7.99999 11.8608ZM7.99999 1.21924C9.27514 1.21924 10.3125 2.25659 10.3125 3.53173V6.11437H5.6875V3.53173C5.6875 2.25659 6.72485 1.21924 7.99999 1.21924ZM5.6875 6.73937H10.3125V8.92332C10.3125 10.1985 9.27514 11.2358 7.99999 11.2358C6.72485 11.2358 5.6875 10.1985 5.6875 8.92332V6.73937Z" fill="white"/>
<path id="Vector_2" d="M7.23828 4.69775H8.75903C8.93164 4.69775 9.07153 4.55786 9.07153 4.38525C9.07153 4.21265 8.93164 4.07275 8.75903 4.07275H7.23828C7.06567 4.07275 6.92578 4.21265 6.92578 4.38525C6.92578 4.55786 7.06567 4.69775 7.23828 4.69775Z" fill="white"/>
<path id="Vector_3" d="M7.23828 3.53271H8.75903C8.93164 3.53271 9.07153 3.39282 9.07153 3.22021C9.07153 3.04761 8.93164 2.90771 8.75903 2.90771H7.23828C7.06567 2.90771 6.92578 3.04761 6.92578 3.22021C6.92578 3.39282 7.06567 3.53271 7.23828 3.53271Z" fill="white"/>
<path id="Vector_4" d="M12.0019 8.61072C11.8295 8.61072 11.6894 8.75061 11.6894 8.92322C11.6894 10.957 10.0348 12.6117 8.00097 12.6117C5.96716 12.6117 4.3125 10.957 4.3125 8.92322C4.3125 8.75061 4.17261 8.61072 4 8.61072C3.82739 8.61072 3.6875 8.75061 3.6875 8.92322C3.6875 10.9855 5.14245 12.7141 7.07958 13.1373V14.7172H7.05505C6.19238 14.7172 5.4906 15.4189 5.4906 16.2816C5.4906 16.4542 5.63049 16.5941 5.8031 16.5941H10.1988C10.3714 16.5941 10.5113 16.4542 10.5113 16.2816C10.5113 15.4191 9.80956 14.7172 8.94689 14.7172H8.92235V13.1373C10.8596 12.7141 12.3144 10.9855 12.3144 8.92322C12.3144 8.75061 12.1745 8.61072 12.0019 8.61072ZM9.833 15.9691H6.16906C6.29809 15.6042 6.64648 15.3422 7.05505 15.3422H8.94701C9.35546 15.3422 9.70385 15.6042 9.833 15.9691ZM8.29735 14.7172H7.70458V13.2263C7.8026 13.233 7.90136 13.2367 8.00097 13.2367C8.10058 13.2367 8.19933 13.233 8.29735 13.2263V14.7172Z" fill="white"/>
<path id="Vector_5" d="M1.5625 3.51318C1.38989 3.51318 1.25 3.65308 1.25 3.82568V6.87609C1.25 7.04858 1.38989 7.18859 1.5625 7.18859C1.73511 7.18859 1.875 7.04858 1.875 6.87609V3.82568C1.875 3.65308 1.73511 3.51318 1.5625 3.51318Z" fill="white"/>
<path id="Vector_6" d="M4.0625 6.40759C4.23511 6.40759 4.375 6.2677 4.375 6.09509V4.60657C4.375 4.43396 4.23511 4.29407 4.0625 4.29407C3.88989 4.29407 3.75 4.43396 3.75 4.60657V6.09509C3.75 6.2677 3.88989 6.40759 4.0625 6.40759Z" fill="white"/>
<path id="Vector_7" d="M0.312499 2.28174C0.139892 2.28174 0 2.42163 0 2.59424V7.7921C0 7.96471 0.139892 8.1046 0.312499 8.1046C0.485106 8.1046 0.624999 7.96471 0.624999 7.7921V2.59424C0.624999 2.42163 0.485106 2.28174 0.312499 2.28174Z" fill="white"/>
<path id="Vector_8" d="M2.8125 3.19788C2.63989 3.19788 2.5 3.33777 2.5 3.51038V7.73437C2.5 7.90697 2.63989 8.04687 2.8125 8.04687C2.98511 8.04687 3.125 7.90697 3.125 7.73437V3.51038C3.125 3.33777 2.98511 3.19788 2.8125 3.19788Z" fill="white"/>
<path id="Vector_9" d="M14.4375 3.51318C14.2649 3.51318 14.125 3.65308 14.125 3.82568V6.87609C14.125 7.04858 14.2649 7.18859 14.4375 7.18859C14.6101 7.18859 14.75 7.04858 14.75 6.87609V3.82568C14.75 3.65308 14.6101 3.51318 14.4375 3.51318Z" fill="white"/>
<path id="Vector_10" d="M11.9375 6.40759C12.1101 6.40759 12.25 6.2677 12.25 6.09509V4.60657C12.25 4.43396 12.1101 4.29407 11.9375 4.29407C11.7649 4.29407 11.625 4.43396 11.625 4.60657V6.09509C11.625 6.2677 11.7649 6.40759 11.9375 6.40759Z" fill="white"/>
<path id="Vector_11" d="M15.6875 2.28174C15.5149 2.28174 15.375 2.42163 15.375 2.59424V7.7921C15.375 7.96471 15.5149 8.1046 15.6875 8.1046C15.8601 8.1046 16 7.96471 16 7.7921V2.59424C16 2.42163 15.8601 2.28174 15.6875 2.28174Z" fill="white"/>
<path id="Vector_12" d="M13.1875 7.422C13.1053 7.422 13.0247 7.4552 12.9666 7.51331C12.9084 7.57178 12.875 7.6521 12.875 7.7345C12.875 7.81677 12.9084 7.89734 12.9666 7.95544C13.0247 8.01367 13.1053 8.047 13.1875 8.047C13.2697 8.047 13.3503 8.01367 13.4084 7.95544C13.4666 7.89734 13.5 7.81677 13.5 7.7345C13.5 7.6521 13.4666 7.57178 13.4084 7.51331C13.3503 7.4552 13.2697 7.422 13.1875 7.422Z" fill="white"/>
<path id="Vector_13" d="M13.1875 3.19788C13.0149 3.19788 12.875 3.33777 12.875 3.51038V6.40759C12.875 6.58019 13.0149 6.72009 13.1875 6.72009C13.3601 6.72009 13.5 6.58019 13.5 6.40759V3.51038C13.5 3.33777 13.3601 3.19788 13.1875 3.19788Z" fill="white"/>
<path id="Vector_14" d="M8 10.5474C8.89551 10.5474 9.62414 9.81885 9.62414 8.92334C9.62414 8.75073 9.48413 8.61084 9.31164 8.61084C9.13904 8.61084 8.99914 8.75073 8.99914 8.92334C8.99914 9.47412 8.5509 9.92236 8 9.92236C7.82739 9.92236 7.6875 10.0623 7.6875 10.2349C7.6875 10.4075 7.82739 10.5474 8 10.5474Z" fill="white"/>
<path id="Vector_15" d="M9.3125 8.15674C9.39477 8.15674 9.47534 8.12329 9.53345 8.06518C9.59155 8.00708 9.625 7.92639 9.625 7.84424C9.625 7.76208 9.59167 7.6814 9.53345 7.62329C9.47534 7.56519 9.39477 7.53174 9.3125 7.53174C9.23035 7.53174 9.14978 7.56519 9.09167 7.62329C9.03357 7.6814 9 7.76208 9 7.84424C9 7.92639 9.03345 8.00708 9.09167 8.06518C9.14978 8.12329 9.23035 8.15674 9.3125 8.15674Z" fill="white"/>
</g>
<defs>
<clipPath id="clip0_1426_24412">
<rect width="16" height="16" fill="white" transform="translate(0 0.594238)"/>
</clipPath>
</defs>
</svg>
