<?xml version="1.0" encoding="UTF-8"?>
<svg id="Layer_2" data-name="Layer 2" xmlns="http://www.w3.org/2000/svg" viewBox="0 0 92.89 96">
  <defs>
    <style>
      .cls-1 {
        fill: #229e79;
        stroke-width: 0px;
      }
    </style>
  </defs>
  <g id="Layer_1-2" data-name="Layer 1">
    <g>
      <path class="cls-1" d="M87.64,22.13h-24.72c-1.15,0-2.08.93-2.08,2.08s.93,2.08,2.08,2.08h24.72c.6,0,1.09.49,1.09,1.09v7.43h-24.94c-1.15,0-2.08.93-2.08,2.08s.93,2.08,2.08,2.08h24.94v51.79c0,.6-.49,1.09-1.09,1.09H5.25c-.6,0-1.09-.49-1.09-1.09v-51.79h24.93c1.15,0,2.08-.93,2.08-2.08s-.93-2.08-2.08-2.08H4.16v-7.43c0-.6.49-1.09,1.09-1.09h24.72c1.15,0,2.08-.93,2.08-2.08s-.93-2.08-2.08-2.08H5.25c-2.89,0-5.25,2.35-5.25,5.25v63.38c0,2.89,2.35,5.25,5.25,5.25h82.39c2.89,0,5.25-2.35,5.25-5.25V27.37c0-2.89-2.35-5.25-5.25-5.25Z"/>
      <path class="cls-1" d="M6.94,29.07h0c-.38.41-.6.93-.6,1.47s.21,1.06.61,1.48c.41.38.93.6,1.47.6s1.06-.22,1.48-.61c.38-.4.59-.93.59-1.46s-.22-1.07-.61-1.48c-.8-.77-2.17-.77-2.95,0Z"/>
      <path class="cls-1" d="M13.28,29.07h0c-.38.41-.6.94-.6,1.47s.22,1.07.61,1.48c.4.38.93.6,1.46.6s1.07-.22,1.48-.61c.38-.4.6-.93.6-1.46s-.22-1.07-.61-1.48c-.79-.77-2.17-.77-2.94,0Z"/>
      <path class="cls-1" d="M19.62,29.07h0c-.38.41-.6.94-.6,1.47s.22,1.08.6,1.46c.4.4.92.62,1.47.62s1.06-.21,1.48-.61c.38-.41.59-.93.59-1.46s-.22-1.07-.6-1.47c-.74-.74-2.21-.74-2.95,0Z"/>
      <path class="cls-1" d="M32.17,41.48l-9.59,13.19h0c-.42.58-.52,1.33-.25,2l3.17,7.92c.23.59.72,1.03,1.32,1.21.59.18,1.26.09,1.77-.26l8.32-5.61c.38,1.04.78,2.08,1.2,3.09l.04.08c.1.23.25.43.42.61.09.09.18.14.25.18l.11.08c.07.05.17.13.3.18.22.09.45.14.68.16l-1.67,3.33c-.32.65-.29,1.41.09,2.02.38.62,1.04.99,1.77.99h12.68c.73,0,1.39-.37,1.77-.99.38-.62.42-1.37.09-2.02l-1.67-3.33c.8-.05,1.49-.54,1.8-1.28.42-1.02.82-2.06,1.2-3.09l8.32,5.61c.52.35,1.18.45,1.77.26.6-.19,1.08-.63,1.32-1.21l3.17-7.92c.27-.67.17-1.41-.25-2l-9.59-13.19c.94-7.55.43-14.68-1.5-21.22-2.09-7.07-5.87-13.67-11.23-19.63-.76-.84-2.33-.84-3.09,0-5.36,5.96-9.14,12.56-11.22,19.63-1.93,6.54-2.44,13.68-1.5,21.22ZM49.42,66.49h-5.95l1.09-2.18h3.77l1.09,2.18ZM26.62,56.19l6.52-8.96c.59,2.77,1.37,5.61,2.37,8.64l-7.1,4.79-1.79-4.46ZM37.66,21.44c1.7-5.76,4.66-11.22,8.78-16.23,4.12,5.01,7.08,10.47,8.78,16.23,1.85,6.26,2.29,13.08,1.3,20.26v.1c-.97,6.87-3.02,12.65-4.24,16.1-.3.86-.59,1.61-.84,2.25h-10.01c-.25-.64-.54-1.4-.84-2.26-1.22-3.45-3.26-9.23-4.24-16.19-.99-7.19-.56-14.01,1.3-20.27ZM57.38,55.87c1-3.03,1.77-5.87,2.37-8.64l6.52,8.96-1.78,4.46-7.1-4.79Z"/>
      <path class="cls-1" d="M44.36,78.08v4.75c0,1.15.93,2.08,2.08,2.08s2.08-.93,2.08-2.08v-4.75c0-1.15-.93-2.08-2.08-2.08s-2.08.93-2.08,2.08Z"/>
      <path class="cls-1" d="M38.03,74.91v4.75c0,1.15.93,2.08,2.08,2.08s2.08-.93,2.08-2.08v-4.75c0-1.15-.93-2.08-2.08-2.08s-2.08.93-2.08,2.08Z"/>
      <path class="cls-1" d="M52.78,72.83c-1.15,0-2.08.93-2.08,2.08v4.75c0,1.15.93,2.08,2.08,2.08s2.08-.93,2.08-2.08v-4.75c0-1.15-.93-2.08-2.08-2.08Z"/>
      <path class="cls-1" d="M46.44,37.38c4.64,0,8.42-3.78,8.42-8.42s-3.78-8.42-8.42-8.42-8.42,3.78-8.42,8.42c0,4.64,3.78,8.42,8.42,8.42ZM42.19,28.96c0-2.35,1.91-4.26,4.26-4.26s4.26,1.91,4.26,4.26-1.91,4.26-4.26,4.26-4.26-1.91-4.26-4.26Z"/>
    </g>
  </g>
</svg>