<svg width="46" height="56" viewBox="0 0 46 56" fill="none" xmlns="http://www.w3.org/2000/svg">
<path d="M30.5746 27.1656C26.8329 29.5217 22.0435 29.5397 18.2725 27.1656C18.1476 27.0974 18.1021 26.9495 18.159 26.8245C19.0797 24.5847 21.0811 23.0384 23.423 22.6973C23.3661 23.3113 23.1274 23.9025 22.8659 24.4483C23.7414 24.7552 24.6738 24.7211 25.572 24.3118C25.3103 23.7888 25.1284 23.2317 25.0604 22.6519C27.5617 22.8793 29.7218 24.471 30.6884 26.8245C30.7453 26.9495 30.6884 27.0974 30.5746 27.1656Z" fill="#83D6BD"/>
<path d="M8.83556 12.7892L8.60496 13.0483L8.95179 13.0555C9.97973 13.0767 10.9247 13.4775 11.6386 14.1583C10.7368 16.9623 7.10444 17.9066 4.94231 15.8405C5.26142 14.8852 5.92535 14.0785 6.79487 13.5801L7.31622 13.2813H6.72929C4.92577 12.463 5.43081 9.96602 7.2442 9.75745C8.606 9.61764 9.61226 10.9649 9.19136 12.1247L9.19115 12.1246L9.18871 12.1326C9.11412 12.3775 8.99894 12.6056 8.83556 12.7892Z" stroke="#229E79" stroke-width="0.32"/>
<path d="M40.504 15.9089L40.1398 15.9472L40.4155 16.1884C40.9945 16.695 41.3359 17.3901 41.4104 18.1224C39.5952 19.234 37.0419 18.0748 36.79 15.8228C37.4439 15.4397 38.2185 15.3078 38.9409 15.4626L39.0257 15.221L39.0842 15.1936C39.0916 15.2028 39.0955 15.2104 39.0964 15.2122C39.0966 15.2126 39.0967 15.2129 39.0967 15.2129C39.0967 15.2129 39.0965 15.2124 39.0959 15.2112L39.0958 15.2108C39.095 15.2091 39.0931 15.2048 39.091 15.2005C39.0886 15.1956 39.0847 15.1882 39.0795 15.1799C38.4769 13.8612 39.9587 12.6921 41.0544 13.4589L41.0569 13.4606C42.1162 14.1728 41.642 15.7889 40.504 15.9089Z" stroke="#229E79" stroke-width="0.32"/>
<path d="M29.5375 10.5987C28.2657 7.69102 25.3473 7.57694 24.7016 9.36318C21.9789 6.49835 17.2109 8.01614 16.7273 11.4106C16.5347 12.7526 17.2783 14.4569 18.6876 14.8681C17.7493 18.4631 19.054 20.3976 19.9293 21.2332C20.7581 22.0078 21.9901 22.3029 23.1313 22.383C23.1492 22.9856 22.9928 23.4673 22.7228 24.069C22.6768 24.0484 22.6304 24.0328 22.5844 24.0099C22.2552 23.8386 21.9865 24.3494 22.3299 24.5211C23.4895 25.106 24.9379 25.1008 26.2842 24.2516C26.5982 24.0523 26.3073 23.5688 25.9784 23.7683C25.8919 23.823 25.8026 23.8606 25.715 23.9066C25.35 23.0645 25.3376 22.6169 25.3218 22.2219C26.6151 21.9496 27.7708 21.3663 28.6681 20.5021C29.3154 19.877 29.8188 19.0787 30.1416 18.1922C31.4038 17.8249 31.9598 16.5726 31.5328 15.5927C31.8129 14.4767 31.9191 13.5406 31.6101 12.4123C31.3272 11.3408 30.6213 10.4208 29.5375 10.5987ZM23.2686 24.2498C23.5352 23.6474 23.7213 23.0513 23.7139 22.4073C24.0487 22.4062 24.3902 22.3816 24.7474 22.3336C24.7812 22.9199 24.8899 23.4778 25.1787 24.1423C24.4918 24.3947 23.9795 24.4321 23.2686 24.2498ZM30.0989 17.6182C29.8065 17.7265 29.4828 17.751 29.2328 17.7599C28.8605 17.7744 28.8716 18.3314 29.2429 18.3314C29.2917 18.3314 29.4231 18.3163 29.4773 18.3124C29.1854 18.9901 28.7786 19.6013 28.2708 20.0909C26.777 21.5321 25.1009 21.6799 24.9764 21.7204C23.4865 21.9751 21.4045 21.8284 20.3221 20.818C19.5392 20.0711 18.3737 18.3225 19.2415 15.0049C22.0077 15.6783 25.0409 15.3675 27.6212 14.1361C27.2568 15.133 27.4358 16.1779 28.5068 16.4673C28.6299 16.7838 29.0376 16.6758 29.0398 16.3743L29.0587 16.2918C29.1163 15.9204 29.4214 15.6808 29.7641 15.5295C31.366 14.7694 31.6176 17.0233 30.0989 17.6182Z" fill="#229E79"/>
<path d="M24.7629 4.17059L24.8243 0.713556C24.8297 0.331649 24.2582 0.324994 24.2528 0.703511L24.1914 4.16054C24.186 4.54245 24.7575 4.54911 24.7629 4.17059Z" fill="#229E79"/>
<path d="M26.601 4.50052L27.6747 3.36826C27.9355 3.09266 27.5171 2.70032 27.2595 2.97541L26.1858 4.10655C25.927 4.38009 26.3379 4.7739 26.601 4.50052Z" fill="#229E79"/>
<path d="M22.2345 4.35616C22.4779 4.64251 22.917 4.27854 22.672 3.98785C22.3283 3.58049 21.9466 3.196 21.5381 2.84332C21.2551 2.59764 20.8779 3.02784 21.1653 3.27636C21.5504 3.60895 21.9109 3.97223 22.2345 4.35616Z" fill="#229E79"/>
<path d="M45.0917 14.6096C44.1549 9.64212 37.5511 8.60004 35.1035 12.9553C31.5222 4.30251 19.6159 3.21267 14.5956 11.2883C13.1649 5.71794 5.95849 4.19175 2.36294 8.64695C0.0523212 11.5074 0.37173 15.5328 2.87969 18.0432C5.61795 20.7814 10.1021 20.7685 12.8682 17.9084C12.9639 20.0162 13.6266 22.0266 14.8032 23.7814C12.4591 24.0192 6.24021 24.8071 4.57388 26.4734C3.92668 27.1217 3.97602 27.8019 4.55044 28.3774C5.38502 29.2157 7.75691 29.9724 7.96785 29.8612C8.05937 29.813 8.17935 29.7678 8.28035 29.7206C17.5991 32.1692 35.6971 31.5073 41.3348 28.969C41.4411 28.9975 41.5585 29.024 41.6609 29.0532C41.9517 29.1417 43.1833 28.2124 43.1833 27.7898C43.3283 27.4566 43.2768 26.9685 42.7826 26.4734C41.276 24.9668 36.0401 24.1984 33.9151 23.9365C34.8911 22.5201 35.5326 20.9249 35.8052 19.2562C39.4836 23.266 46.0929 19.9197 45.0917 14.6096ZM3.2837 17.6391C0.962439 15.3166 0.698931 11.6183 2.80714 9.00577C6.27666 4.7065 13.2864 6.51954 14.1632 12.035C13.3763 13.5402 12.9165 15.238 12.8643 17.0383C10.7523 19.9356 6.09287 20.4509 3.2837 17.6391ZM4.67544 27.4371C4.67544 27.2641 4.77477 27.0811 4.9779 26.8774C6.53188 25.3275 12.9759 24.527 15.1721 24.3144C16.2142 25.698 17.6583 26.7775 17.5437 26.6754C17.7776 26.8479 18.0167 27.0119 18.2639 27.1673C13.4963 27.5658 9.72622 28.333 7.80268 29.3038C7.53714 29.1975 4.67544 28.4406 4.67544 27.4371ZM42.3786 26.8774C43.0284 27.529 42.5291 28.0092 41.7045 28.4723C39.0605 27.7334 35.2435 27.2094 30.8641 26.9801C31.8834 26.2976 32.342 25.8223 32.9478 25.1559C33.1537 24.9288 33.3677 24.7094 33.556 24.4656C35.5317 24.6993 40.9746 25.4771 42.3786 26.8774ZM15.5359 23.8462C10.267 16.6497 15.4081 6.37072 24.4232 6.37072C29.0549 6.37072 33.2017 9.29783 34.7678 13.6605C34.082 15.4314 34.3411 17.2256 35.3286 18.664C34.2015 28.5239 21.4179 31.8872 15.5359 23.8462ZM37.0538 19.5951C33.5067 17.1737 34.6878 11.6558 38.8908 10.8629C41.5314 10.3629 44.04 12.1067 44.5304 14.7156C45.3314 18.9557 40.5884 22.0146 37.0538 19.5951Z" fill="#229E79"/>
<g clip-path="url(#clip0_1683_14563)">
<path d="M4.85606 29.4442C4.85003 29.4471 4.8438 29.45 4.83735 29.4529L4.81966 29.3847C7.15304 28.3388 11.4953 27.546 17.0551 27.1965L17.7374 27.1537L17.6566 27.0683C17.7134 27.0544 17.7681 27.0401 17.8205 27.0262C17.8528 27.0176 17.8887 27.0109 17.9389 27.0015L17.947 27L17.9471 27C17.9561 26.9983 17.9658 26.9965 17.9761 26.9945C22.0481 29.3598 27.0048 29.2705 30.9977 27.1986C31.2805 27.2525 31.5896 27.2938 31.914 27.3008C31.9855 27.3024 32.0535 27.294 32.0979 27.2885L32.1042 27.2878C32.1196 27.2859 32.1327 27.2843 32.1439 27.2831L32.1435 27.2914C37.2552 27.6849 41.694 28.3785 44.8005 29.3009L44.7936 29.3705C44.7809 29.3672 44.7683 29.364 44.756 29.361L44.6516 29.3351L44.5527 29.3776C42.8884 30.093 40.2857 30.6601 37.1212 31.0533C33.9638 31.4456 30.2713 31.662 26.4419 31.6868C18.7763 31.7364 10.5973 31.0182 5.08314 29.4253L4.96601 29.3915L4.85606 29.4442Z" fill="#F8F8F8" stroke="#229E79" stroke-width="0.64"/>
</g>
<path d="M38.922 39.6158C37.0288 41.0882 34.5891 42.0014 32.737 43.527C30.5311 45.3575 29.2237 48.0748 29.1554 50.9741C29.1326 51.5539 29.1326 52.5772 29.1326 53.6232C29.1326 56.2263 18.1838 56.2333 18.1838 53.6232C18.1838 52.5772 18.1838 51.5539 18.1724 50.9741C18.0927 48.0748 16.7851 45.3575 14.568 43.527C12.7298 41.9912 10.33 41.1115 8.38303 39.6158C4.76757 36.8302 3.08488 31.9868 4.11942 27.2684C4.1308 27.2684 4.1308 27.257 4.1308 27.2456C4.21682 26.8732 4.76652 27.0305 4.6879 27.3707C4.6879 27.3821 4.6879 27.3821 4.67652 27.3821C4.6879 29.1103 12.4876 30.9635 23.6865 30.9635C34.7605 30.9635 42.4464 29.1785 42.6627 27.5072C42.7123 27.2097 43.1477 27.1626 43.2311 27.4958C44.1632 32.1233 42.4806 36.8758 38.922 39.6158Z" fill="black"/>
<path d="M28.5863 50.6945C25.5383 51.2637 22.3195 51.2793 19.0193 50.7402C18.651 50.672 18.5507 51.2432 18.9278 51.3039C22.2779 51.8515 25.5665 51.8398 28.6912 51.2559C29.0685 51.1853 28.9519 50.6185 28.5863 50.6945Z" fill="#229E79"/>
<defs>
<clipPath id="clip0_1683_14563">
<rect width="37.12" height="5.76" fill="white" transform="translate(5.78711 26.3208) rotate(1.23444)"/>
</clipPath>
</defs>
</svg>
