<svg width="64" height="64" viewBox="0 0 64 64" fill="none" xmlns="http://www.w3.org/2000/svg">
<g id="Layer_1">
<g id="_x33_6">
<path id="Vector" d="M42.9019 23.9011C42.9019 24.0954 42.879 24.2897 42.8678 24.4725C42.4373 29.4315 40.3401 34.0044 37.4621 37.2497C37.1876 37.5582 36.7992 37.7411 36.3762 37.7411H28.285C27.862 37.7411 27.4733 37.5582 27.1993 37.2497C24.4075 34.1029 22.2322 29.5106 21.7933 24.4725C21.7819 24.2897 21.759 24.0954 21.759 23.9011C21.2571 15.7783 25.7483 8.73975 31.6449 4.64397C32.0564 4.35826 32.605 4.35826 33.0163 4.64397C38.9538 8.76839 43.4031 15.8189 42.9019 23.9011Z" fill="black"/>
<g id="Group">
<path id="Vector_2" d="M49.9973 48.992C49.5565 47.1706 47.8846 45.7141 46.0219 45.5266C44.5732 45.386 43.1245 45.9943 42.1614 47.0523C42.3948 44.0284 40.7685 42.2038 39.0431 41.8659C37.7989 41.6223 36.5068 42.2457 35.9672 43.2708C35.3 42.35 34.8584 41.2685 34.6792 40.1459C34.8572 40.065 35.0101 39.9102 35.1187 39.6855C35.4044 39.0912 35.6787 38.4627 35.9415 37.7427C35.6445 37.7427 28.1816 37.7427 28.7186 37.7427C28.9814 38.4512 29.2557 39.0912 29.5414 39.6855C29.8726 40.3709 30.4025 40.1792 30.5408 40.2112C30.3637 41.257 29.9571 42.2637 29.3542 43.1368C28.067 41.2477 24.6321 42.4017 24.9382 45.7465C23.8991 45.2097 22.581 45.3949 21.6603 45.9441C19.1679 47.428 18.8587 50.9549 21.0866 52.8435C20.6534 57.2011 26.293 59.6852 29.7172 56.0674C33.7884 61.3084 41.3799 60.0204 43.0953 56.4352C43.1003 56.4369 43.105 56.439 43.11 56.4407C45.5006 57.2465 48.5417 55.9804 48.1636 53.7937C49.6519 52.7487 50.4237 50.7615 49.9973 48.992ZM47.98 53.2158C47.5061 52.1772 46.6087 51.7155 45.5609 51.2052C45.226 51.0378 44.9685 51.5514 45.3109 51.7186C45.9002 52.0054 46.5107 52.3023 46.975 52.7543C49.0281 54.7555 45.9831 56.8029 43.3065 55.9016C43.7078 54.5803 43.3091 53.4108 42.4158 52.386C42.1652 52.1007 41.737 52.4783 41.985 52.761C43.8941 54.9484 42.6378 57.3558 39.9036 58.4273C35.9153 59.9848 31.1587 58.3188 29.1759 54.155C29.0159 53.8164 28.4966 54.0571 28.6603 54.4005C28.8617 54.8242 29.1053 55.2221 29.3665 55.6062C27.1242 58.0708 23.4258 57.6006 22.0699 55.0724C20.8056 52.7147 22.4348 49.9936 24.1391 50.1037C24.4819 50.1621 24.581 49.5601 24.177 49.5345C23.0442 49.4522 21.6839 50.3765 21.2152 52.1508C19.4929 50.3636 19.9733 47.6144 21.9527 46.4351C22.8567 45.8994 24.2786 45.7688 25.1379 46.5836C25.3493 46.7822 25.6798 46.5791 25.6112 46.3068C25.1473 44.4276 26.0919 43.0074 27.3266 42.8235C27.9337 42.7383 28.6633 43.0037 28.9686 43.6399C28.7596 43.8913 28.54 44.1333 28.2975 44.3525C28.017 44.6064 28.3999 45.0287 28.6815 44.7766C29.8644 43.7066 30.8323 42.0703 31.1229 40.2112H34.1072C34.379 41.9485 35.2445 43.597 36.5487 44.7766C36.8279 45.0274 37.2135 44.6067 36.9326 44.3525C36.7353 44.1742 36.5506 43.9826 36.3754 43.7826C36.6982 42.8441 37.8511 42.2131 38.9337 42.4262C40.6367 42.7598 42.158 44.7153 41.417 48.1952C41.344 48.5259 41.8139 48.6799 41.9549 48.3749C42.6491 46.8905 44.3466 45.9329 45.9638 46.0958C47.5944 46.2588 49.0565 47.5333 49.4415 49.126C49.8006 50.6145 49.1859 52.2778 47.98 53.2158Z" fill="#229E79"/>
<path id="Vector_3" d="M45.1875 39.5709C45.8274 40.2103 47.0413 40.0014 47.279 39.0224C48.0106 35.9824 48.0106 32.7709 47.3019 29.7195C46.6992 27.1968 45.4297 24.7032 42.9704 23.9138C42.9475 23.9023 42.9247 23.9023 42.9018 23.9023C42.9018 24.0967 42.8789 24.2909 42.8677 24.4738C45.1156 25.2883 46.1851 27.5219 46.7419 29.8567C47.4392 32.8167 47.4277 35.9367 46.719 38.8853C46.5908 39.3976 45.9545 39.526 45.5876 39.1595C42.9379 36.6239 40.605 35.3716 39.519 34.531C39.5075 34.531 39.5075 34.5195 39.4961 34.5195C39.3934 34.6795 39.2905 34.8395 39.1875 34.9995C40.3687 35.8852 42.617 37.0913 45.1875 39.5709Z" fill="#229E79"/>
<path id="Vector_4" d="M25.4751 34.9995C25.3725 34.8395 25.2695 34.6795 25.1665 34.5195C25.1554 34.5195 25.1554 34.531 25.1439 34.531C23.8421 35.5776 21.9278 36.4387 19.0867 39.1595C18.6986 39.5473 18.0661 39.3608 17.9439 38.8967C17.2466 35.9138 17.2352 32.7938 17.921 29.8567C18.4589 27.5519 19.5627 25.262 21.7952 24.4738C21.7837 24.2909 21.7608 24.0967 21.7608 23.9023C21.738 23.9023 21.7154 23.9023 21.7039 23.9138C19.2187 24.7115 17.9544 27.1643 17.3725 29.7195C16.6637 32.7481 16.6637 35.9595 17.3953 39.0338C17.6221 39.9679 18.8279 40.2293 19.4869 39.5709C22.3963 36.7868 24.1783 36.0481 25.4751 34.9995Z" fill="#229E79"/>
<path id="Vector_5" d="M25.5471 34.8375H39.1207C39.4984 34.8375 39.4988 34.2661 39.1207 34.2661H25.5471C25.1694 34.2661 25.169 34.8375 25.5471 34.8375Z" fill="#229E79"/>
<path id="Vector_6" d="M27.2445 9.32387H37.4197C37.7977 9.32387 37.7977 8.75244 37.4197 8.75244H27.2445C26.8664 8.75244 26.8664 9.32387 27.2445 9.32387Z" fill="#229E79"/>
<path id="Vector_7" d="M27.625 17.7494C27.625 20.3574 29.7355 22.4677 32.3231 22.4677C34.9314 22.4677 37.0416 20.3574 37.0416 17.7494C37.0416 15.1415 34.9314 13.0312 32.3231 13.0312C29.7355 13.0313 27.625 15.1415 27.625 17.7494Z" fill="#229E79"/>
<path id="Vector_8" d="M29.8184 17.7495C29.8184 19.1436 30.9465 20.2716 32.3296 20.2716C33.7238 20.2716 34.8518 19.1436 34.8518 17.7495C34.8518 16.3555 33.7238 15.2275 32.3296 15.2275C30.9465 15.2275 29.8184 16.3555 29.8184 17.7495Z" fill="white"/>
<path id="Vector_9" d="M17.913 42.7501C17.76 42.4038 17.239 42.634 17.3907 42.98L18.2467 44.9242C18.3978 45.2695 18.9218 45.04 18.769 44.6943L17.913 42.7501Z" fill="#229E79"/>
<path id="Vector_10" d="M14.2812 44.487C13.9374 44.3362 13.7048 44.8586 14.0535 45.0115C14.9712 45.4093 16.924 46.1132 17.7935 46.4914C18.1492 46.6424 18.361 46.1133 18.0212 45.9669C17.105 45.571 15.1574 44.8694 14.2812 44.487Z" fill="#229E79"/>
<path id="Vector_11" d="M17.4064 47.6743L16.0571 48.2814C15.7188 48.4335 15.9383 48.9595 16.2914 48.8037L17.6408 48.1944C17.9878 48.0383 17.7457 47.5152 17.4064 47.6743Z" fill="#229E79"/>
</g>
</g>
</g>
</svg>
