<svg width="64" height="64" viewBox="0 0 64 64" fill="none" xmlns="http://www.w3.org/2000/svg">
<g id="Layer_1">
<circle id="Ellipse 34" cx="32.0013" cy="18.347" r="5.55598" fill="#229E79"/>
<g id="_x34_7">
<g id="Group">
<g id="Group_2">
<path id="Vector" d="M38.6747 36.4932V40.8018C38.6747 40.8246 38.6747 40.8361 38.6632 40.859C38.5491 40.8246 38.4347 40.8018 38.3089 40.8018C25.6378 40.8131 25.9113 40.7623 25.4746 40.8246C25.4746 39.2532 25.4746 38.2247 25.4746 36.4932C25.4746 35.9332 25.9205 35.4761 26.4919 35.4761H37.6576C38.2176 35.4761 38.6747 35.9332 38.6747 36.4932Z" fill="black"/>
</g>
</g>
<g id="Group_3">
<path id="Vector_2" d="M49.3026 11.557L44.2055 11.6712C44.1368 11.0541 44.057 10.437 43.9426 9.81982C43.9197 9.68269 43.7939 9.59131 43.6569 9.59131H20.331C20.194 9.59131 20.0682 9.68269 20.0453 9.81982C19.9312 10.437 19.8625 11.0541 19.7939 11.6712C19.6766 11.6687 14.2741 11.5494 14.6167 11.557C13.4347 11.5162 12.7234 12.0335 12.7426 13.6827C12.8121 18.6294 16.2926 23.2948 21.8397 24.2313C23.8282 28.2999 27.0054 31.1341 30.6625 31.6827C32.2225 31.8777 32.6097 31.7581 33.4968 31.6599C37.0855 31.0313 40.194 28.2427 42.1597 24.2313C47.5841 23.3095 51.1922 18.7168 51.2454 13.6941C51.2848 11.9793 50.5403 11.557 49.3026 11.557ZM15.9312 14.9856C15.9312 14.1822 16.201 14.1458 16.6854 14.1741C17.6683 14.1855 18.651 14.2084 19.634 14.2313V14.2656C19.634 16.5627 19.9541 18.7455 20.5255 20.757C17.5807 19.9661 15.9768 17.4164 15.9312 14.9856ZM31.9884 23.6141C29.0855 23.6141 26.7311 21.2484 26.7311 18.3456C26.7311 15.4313 29.0855 13.077 31.9884 13.077C34.9142 13.077 37.2682 15.4313 37.2682 18.3456C37.2682 21.2484 34.9142 23.6141 31.9884 23.6141ZM43.4739 20.757C44.0341 18.7455 44.3653 16.5627 44.3653 14.2656C44.3653 14.2541 44.3539 14.2427 44.3539 14.2313C45.3369 14.2084 46.331 14.1855 47.3254 14.1627C47.7807 14.1627 48.057 14.1589 48.057 14.9856C48.0263 17.4411 46.3759 19.9776 43.4739 20.757Z" fill="black"/>
</g>
<g id="Group_4">
<path id="Vector_3" d="M34.4358 18.1644C33.4498 18.8432 33.3682 18.8294 33.4273 18.9998C33.7925 20.0515 33.9007 20.3165 33.889 20.5229C33.8758 20.876 33.5623 21.0999 33.0437 20.6949C32.0966 19.9665 32.0841 19.8836 31.9405 19.9923C31.0182 20.6894 30.8387 20.8466 30.6317 20.9034C30.2861 20.9984 29.9878 20.7691 30.2061 20.1539C30.5638 19.1533 30.6902 18.9961 30.5313 18.8856C29.6186 18.2499 29.3758 18.0974 29.2622 17.9249C29.0653 17.6195 29.1941 17.2721 29.8454 17.2881C31.0453 17.3206 31.0988 17.3783 31.1513 17.2062C31.4839 16.1151 31.5414 15.8668 31.6742 15.7017C31.8939 15.422 32.2728 15.4285 32.4605 16.0566C32.5642 16.4186 32.6702 16.7896 32.7744 17.1533C32.8196 17.3103 32.8565 17.2814 34.0893 17.2571C34.2385 17.2571 34.3935 17.2542 34.5344 17.3078C34.8733 17.4391 34.9738 17.7951 34.4358 18.1644Z" fill="#E8E8E8"/>
</g>
<g id="Group_5">
<path id="Vector_4" d="M35.0296 35.4773C34.1152 34.3115 33.5667 32.9173 33.498 31.6602C32.5912 31.7606 32.2313 31.8789 30.6638 31.683C30.584 32.9287 30.0354 34.323 29.1211 35.4773C29.3319 35.4773 35.2659 35.4773 35.0296 35.4773Z" fill="black"/>
<path id="Vector_5" d="M29.0059 37.8136V39.1676C29.0059 39.307 29.1189 39.42 29.2584 39.42H34.8984C35.0377 39.42 35.1509 39.307 35.1509 39.1676V37.8136C35.1509 37.6741 35.0377 37.561 34.8984 37.561H29.2584C29.1189 37.561 29.0059 37.6741 29.0059 37.8136Z" fill="black"/>
<path id="Vector_6" d="M19.7324 9.91309H44.2681C44.7503 9.91309 45.1431 9.52079 45.1431 9.03864V7.05371C45.1431 6.57101 44.7503 6.17871 44.2681 6.17871H19.7324C19.2503 6.17871 18.8574 6.57101 18.8574 7.05371V9.03864C18.8574 9.52079 19.2503 9.91309 19.7324 9.91309ZM19.4289 9.34166C19.4289 9.17425 19.565 9.34166 19.7324 9.34166H44.5717C44.7391 9.34166 44.5717 8.87123 44.5717 9.03864C44.5717 9.2055 44.5717 9.34166 44.5717 9.34166H19.7324C19.565 9.34166 19.4289 9.2055 19.4289 9.03864V9.34166Z" fill="#229E79"/>
<path id="Vector_7" d="M37.5566 18.3466C37.5566 15.2841 35.06 12.7925 31.9908 12.7925C28.9339 12.7925 26.4473 15.2841 26.4473 18.3466C26.4473 21.4091 28.9339 23.9007 31.9908 23.9007C35.06 23.9007 37.5566 21.4091 37.5566 18.3466ZM31.9908 23.3293C29.2497 23.3293 27.0187 21.0938 27.0187 18.3466C27.0187 15.5994 29.2497 13.3639 31.9908 13.3639C34.7453 13.3639 36.9852 15.5994 36.9852 18.3466C36.9852 21.0938 34.7453 23.3293 31.9908 23.3293Z" fill="black"/>
<path id="Vector_8" d="M38.3099 40.5176H25.7039C24.8231 40.5176 24.1417 41.256 24.1269 42.0924C24.0436 51.5605 24.0331 52.8102 24.0119 56.2274C23.9981 57.103 24.7047 57.8206 25.5778 57.8206H38.3546C39.2251 57.8206 39.9327 57.108 39.9327 56.2319C39.9327 56.2313 39.9327 56.2324 39.9327 56.2319L39.8746 42.0946C39.8746 41.1777 39.0602 40.5176 38.3099 40.5176ZM34.8992 41.094H38.272C38.8255 41.094 39.2775 41.546 39.2798 42.1013L39.3322 56.233C39.3345 56.788 38.8833 57.2464 38.3255 57.2464H34.8992V41.094ZM24.5833 56.2335C24.6053 52.6894 24.6164 51.4075 24.6983 42.0996C24.7087 41.5336 25.1815 41.089 25.7039 41.089H34.3278V57.2492H25.5778C25.0264 57.2492 24.5741 56.7967 24.5833 56.2335Z" fill="#229E79"/>
<path id="Vector_9" d="M20.1535 50.8228C20.1513 49.9572 19.4448 49.2524 18.581 49.2524H18.5475C16.3456 49.2524 10.9056 49.2524 5.97605 49.2524C5.11556 49.2524 4.41021 49.9539 4.40351 50.8166C4.39905 51.3998 4.2986 54.4433 4.28521 56.2307C4.27834 57.0975 4.97722 57.8177 5.85775 57.8177H18.6011H18.6345C19.4999 57.8177 20.2094 57.1135 20.2071 56.2363C20.2003 54.4423 20.1695 54.7595 20.1535 50.8228ZM4.85664 56.2351C4.8611 55.6526 4.96155 52.6101 4.97494 50.8211C4.9794 50.2714 5.42806 49.8239 5.97606 49.8239H14.6033V57.2463H5.85775C5.30216 57.2463 4.85203 56.7918 4.85664 56.2351ZM15.1747 57.2463V49.8239H18.5475C19.1011 49.8239 19.5531 50.2759 19.5553 50.8317C19.5666 53.827 19.5894 51.4644 19.6089 56.2324C19.6112 56.7845 19.1599 57.2463 18.6011 57.2463H15.1747Z" fill="#229E79"/>
<path id="Vector_10" d="M59.6624 45.8421C59.6579 44.9727 58.9537 44.2651 58.0921 44.2651H58.0564C55.8533 44.2651 50.4104 44.2651 45.4783 44.2651C44.6211 44.2651 43.918 44.9688 43.9113 45.8332C43.869 51.522 43.8355 50.57 43.793 56.2255C43.7884 57.1132 44.5002 57.8187 45.3633 57.8187H58.1122H58.1457C59.0115 57.8187 59.7172 57.1075 59.7149 56.2305C59.6936 50.2373 59.6827 51.5876 59.6624 45.8421ZM44.3644 56.2294C44.407 50.5731 44.4404 51.5409 44.4827 45.8377C44.4872 45.2858 44.9336 44.8366 45.4783 44.8366H54.1111V57.2473H45.3633C44.8089 57.2473 44.3599 56.7892 44.3644 56.2294ZM54.6825 57.2473V44.8366H58.0564C58.61 44.8366 59.0608 45.2897 59.0631 45.8472C59.0841 51.8737 59.0959 50.4651 59.1167 56.2328C59.1189 56.7836 58.6696 57.2473 58.1122 57.2473H54.6825Z" fill="#229E79"/>
<path id="Vector_11" d="M51.2952 34.3689C51.5927 34.5904 51.9413 34.1343 51.6322 33.908L46.2818 29.9934C45.985 29.7701 45.6354 30.2277 45.9447 30.4543L51.2952 34.3689Z" fill="#229E79"/>
<path id="Vector_12" d="M44.1685 32.3337L45.1607 35.2159C45.285 35.5719 45.8252 35.3903 45.7009 35.0295L44.7087 32.1484C44.5868 31.792 44.0452 31.9759 44.1685 32.3337Z" fill="#229E79"/>
<path id="Vector_13" d="M14.047 34.3696L19.3964 30.455C19.7064 30.2279 19.3547 29.7691 19.0593 29.994L13.71 33.9086C13.403 34.1335 13.7462 34.5936 14.047 34.3696Z" fill="#229E79"/>
<path id="Vector_14" d="M20.6332 32.1481L19.6411 35.0293C19.5182 35.3871 20.0596 35.5738 20.1812 35.2157L21.1734 32.3334C21.2967 31.9757 20.7549 31.7923 20.6332 32.1481Z" fill="#229E79"/>
</g>
</g>
</g>
</svg>
