<svg width="24" height="24" viewBox="0 0 24 24" fill="none" xmlns="http://www.w3.org/2000/svg">
<path fill-rule="evenodd" clip-rule="evenodd" d="M7 20.1058H17C20 20.1058 22 18.6753 22 15.3376V8.6622C22 5.32449 20 3.89404 17 3.89404H7C4 3.89404 2 5.32449 2 8.6622V15.3376C2 18.6753 4 20.1058 7 20.1058ZM17.2981 8.87874C17.5198 8.71412 17.5661 8.40093 17.4014 8.17922C17.2368 7.95752 16.9236 7.91124 16.7019 8.07585L13.5726 10.3994L13.5722 10.3997C13.1588 10.7055 12.5887 10.873 11.995 10.873C11.4014 10.873 10.8314 10.7056 10.418 10.3999L10.4174 10.3994L7.29869 8.07631C7.07723 7.91135 6.76398 7.95715 6.59902 8.17861C6.43406 8.40007 6.47986 8.71332 6.70131 8.87828L9.82131 11.2023L9.82255 11.2032C10.4391 11.6595 11.2289 11.873 11.995 11.873C12.7611 11.873 13.5509 11.6595 14.1674 11.2032L14.1681 11.2028L17.2981 8.87874Z" fill="none" stroke="#229E79"/>
</svg>
