<svg width="16" height="16" viewBox="0 0 16 16" fill="none" xmlns="http://www.w3.org/2000/svg">
<g id="Frame">
<g id="9-Home">
<path id="Vector" d="M10.912 14.999H5.09205C4.43388 15.0234 3.79265 14.7872 3.30768 14.3415C2.82272 13.8959 2.53321 13.2769 2.50205 12.619V9.49899C2.50205 9.36639 2.55472 9.23921 2.64849 9.14544C2.74226 9.05167 2.86944 8.99899 3.00205 8.99899C3.13465 8.99899 3.26183 9.05167 3.3556 9.14544C3.44937 9.23921 3.50205 9.36639 3.50205 9.49899V12.619C3.53278 13.0117 3.71676 13.3766 4.01427 13.6348C4.31177 13.893 4.6989 14.0238 5.09205 13.999H10.912C11.3052 14.0238 11.6923 13.893 11.9898 13.6348C12.2873 13.3766 12.4713 13.0117 12.502 12.619V9.49899C12.502 9.36639 12.5547 9.23921 12.6485 9.14544C12.7423 9.05167 12.8694 8.99899 13.002 8.99899C13.1347 8.99899 13.2618 9.05167 13.3556 9.14544C13.4494 9.23921 13.502 9.36639 13.502 9.49899V12.619C13.4709 13.2769 13.1814 13.8959 12.6964 14.3415C12.2114 14.7872 11.5702 15.0234 10.912 14.999ZM14.857 8.35399C14.9039 8.30751 14.9411 8.25221 14.9665 8.19128C14.9919 8.13035 15.0049 8.065 15.0049 7.99899C15.0049 7.93299 14.9919 7.86763 14.9665 7.80671C14.9411 7.74578 14.9039 7.69047 14.857 7.64399L8.35705 1.14399C8.31056 1.09713 8.25526 1.05993 8.19433 1.03455C8.13341 1.00916 8.06805 0.996094 8.00205 0.996094C7.93604 0.996094 7.87069 1.00916 7.80976 1.03455C7.74883 1.05993 7.69353 1.09713 7.64705 1.14399L1.14705 7.64399C1.05289 7.73815 1 7.86584 1 7.99899C1 8.13214 1.05289 8.25984 1.14705 8.35399C1.2412 8.44815 1.3689 8.50104 1.50205 8.50104C1.6352 8.50104 1.76289 8.44815 1.85705 8.35399L8.00205 2.20399L14.147 8.35399C14.1935 8.40086 14.2488 8.43806 14.3098 8.46344C14.3707 8.48882 14.436 8.50189 14.502 8.50189C14.5681 8.50189 14.6334 8.48882 14.6943 8.46344C14.7553 8.43806 14.8106 8.40086 14.857 8.35399Z" fill="#7D8995"/>
</g>
</g>
</svg>
