<svg width="18" height="17" viewBox="0 0 18 17" fill="none" xmlns="http://www.w3.org/2000/svg">
<path id="Vector" d="M3.8856 2.56186C3.88536 3.04009 3.69515 3.49863 3.35683 3.83662C3.0185 4.17461 2.55977 4.36435 2.08155 4.36411C1.60332 4.36387 1.14478 4.17367 0.80679 3.83535C0.468803 3.49702 0.279058 3.03829 0.279297 2.56006C0.279536 2.08184 0.46974 1.62329 0.808065 1.28531C1.14639 0.947318 1.60512 0.757574 2.08335 0.757813C2.56157 0.758052 3.02012 0.948255 3.3581 1.28658C3.69609 1.62491 3.88584 2.08364 3.8856 2.56186ZM3.93969 5.69935H0.333392V16.9871H3.93969V5.69935ZM9.63765 5.69935H6.04938V16.9871H9.60158V11.0637C9.60158 7.76395 13.9021 7.45742 13.9021 11.0637V16.9871H17.4633V9.83757C17.4633 4.27486 11.0982 4.48222 9.60158 7.21399L9.63765 5.69935Z" fill="white"/>
</svg>
