<svg width="10" height="10" viewBox="0 0 10 10" fill="none" xmlns="http://www.w3.org/2000/svg">
<g id="teenyicons:arrow-solid" clip-path="url(#clip0_1426_24020)">
<path id="Vector" d="M7 5.33767e-07H9.66667C9.75507 5.33767e-07 9.83986 0.0351195 9.90237 0.0976316C9.96488 0.160144 10 0.244928 10 0.333334V3C10.0001 3.06601 9.98063 3.13058 9.94401 3.1855C9.90739 3.24043 9.85529 3.28324 9.79431 3.30852C9.73333 3.3338 9.66621 3.3404 9.60147 3.32749C9.53673 3.31458 9.47729 3.28274 9.43067 3.236L8.33333 2.138L0.569333 9.90267L0.097333 9.43067L7.862 1.66667L6.764 0.569334C6.71726 0.522714 6.68542 0.463267 6.67251 0.398528C6.6596 0.333789 6.6662 0.266674 6.69148 0.205692C6.71676 0.144709 6.75957 0.0926061 6.8145 0.0559871C6.86942 0.019368 6.93399 -0.000117576 7 5.33767e-07Z" fill="white"/>
</g>
<defs>
<clipPath id="clip0_1426_24020">
<rect width="10" height="10" fill="white" transform="matrix(-1 0 0 1 10 0)"/>
</clipPath>
</defs>
</svg>
