<svg width="17" height="16" viewBox="0 0 17 16" fill="none" xmlns="http://www.w3.org/2000/svg">
<path id="Icon metro-link" d="M7.49791 9.7838C7.39359 9.78382 7.29029 9.76323 7.19394 9.72323C7.0976 9.68323 7.01012 9.6246 6.93651 9.55071C6.23848 8.85132 5.84647 7.90372 5.84647 6.91579C5.84647 5.92786 6.23848 4.98026 6.93651 4.28088L9.86644 1.34826C10.2104 0.992404 10.6218 0.708572 11.0766 0.513327C11.5315 0.318083 12.0207 0.215334 12.5156 0.211076C13.0106 0.206817 13.5015 0.301134 13.9597 0.488525C14.4178 0.675915 14.834 0.952626 15.184 1.30252C15.5341 1.65241 15.8109 2.06847 15.9983 2.52643C16.1858 2.9844 16.2802 3.4751 16.2759 3.9699C16.2716 4.4647 16.1689 4.9537 15.9735 5.40837C15.7782 5.86304 15.4943 6.27428 15.1383 6.6181L13.7975 7.95836C13.6484 8.10736 13.4463 8.19107 13.2355 8.19107C13.0247 8.19107 12.8225 8.10736 12.6734 7.95836C12.5244 7.80935 12.4406 7.60726 12.4406 7.39654C12.4406 7.18581 12.5244 6.98372 12.6734 6.83472L14.0142 5.49446C14.407 5.09175 14.6252 4.55058 14.6216 3.98817C14.6181 3.42576 14.393 2.88741 13.9951 2.48972C13.5973 2.09203 13.0587 1.86703 12.4961 1.86346C11.9335 1.85988 11.3921 2.07803 10.9892 2.47064L8.05551 5.40325C7.65503 5.80458 7.43013 6.3483 7.43013 6.91516C7.43013 7.48201 7.65503 8.02573 8.05551 8.42707C8.16666 8.53785 8.24249 8.67906 8.27345 8.83287C8.30441 8.98669 8.2891 9.14623 8.22945 9.29136C8.1698 9.43649 8.06849 9.56071 7.9383 9.64835C7.80811 9.73599 7.65487 9.78312 7.49791 9.7838ZM4.6795 15.5299C3.94265 15.5288 3.22267 15.3094 2.61047 14.8995C1.99828 14.4896 1.52132 13.9075 1.23982 13.2268C0.958326 12.5461 0.884921 11.7973 1.02888 11.0749C1.17283 10.3526 1.52769 9.68904 2.04864 9.16814L3.38435 7.82788C3.53341 7.67887 3.73558 7.59516 3.94638 7.59516C4.15719 7.59516 4.35935 7.67887 4.50842 7.82788C4.65748 7.97688 4.74122 8.17897 4.74122 8.3897C4.74122 8.60042 4.65748 8.80251 4.50842 8.95152L3.16638 10.2905C2.76474 10.6915 2.5389 11.2355 2.53854 11.803C2.53818 12.3704 2.76334 12.9147 3.16448 13.3162C3.56561 13.7177 4.10987 13.9435 4.67752 13.9438C5.24517 13.9442 5.78971 13.7191 6.19135 13.3181L9.12508 10.3855C9.52556 9.98418 9.75046 9.44047 9.75046 8.87361C9.75046 8.30675 9.52556 7.76303 9.12508 7.3617C8.97602 7.2127 8.89228 7.0106 8.89228 6.79988C8.89228 6.58916 8.97602 6.38706 9.12508 6.23806C9.27414 6.08906 9.47631 6.00535 9.68712 6.00535C9.89792 6.00535 10.1001 6.08906 10.2492 6.23806C10.9472 6.93745 11.3392 7.88504 11.3392 8.87298C11.3392 9.86091 10.9472 10.8085 10.2492 11.5079L7.31542 14.438C6.97009 14.7851 6.55931 15.0604 6.10686 15.2478C5.65441 15.4353 5.16926 15.5312 4.6795 15.5299Z" fill="white"/>
</svg>
