<svg width="1104" height="976" viewBox="0 0 1104 976" fill="none" xmlns="http://www.w3.org/2000/svg">
<g filter="url(#filter0_di_2292_18681)">
<path d="M593.584 489.005C604.291 482.728 618.078 487.72 622.283 499.398L705.559 730.664C711.245 746.456 695.946 761.709 680.156 755.991L384.832 649.041C369.042 643.323 367.057 621.81 381.536 613.322L593.584 489.005Z" fill="white" fill-opacity="0.01" shape-rendering="crispEdges"/>
<path d="M594.225 488.713C604.934 482.435 618.722 487.429 622.928 499.108L706.214 730.402C711.902 746.196 696.6 761.451 680.808 755.732L385.448 648.77C369.655 643.051 367.67 621.535 382.152 613.046L594.225 488.713Z" fill="white" fill-opacity="0.01" shape-rendering="crispEdges"/>
<path d="M887.755 652.278C886.78 648.899 746.625 259.579 746.625 259.579C743.604 251.172 739.044 243.371 733.228 236.575C724.884 226.845 714.395 219.798 703.071 215.65C691.58 211.806 679.04 210.786 666.448 213.181C657.663 214.862 649.232 218.113 641.624 222.797L222.146 480.023C219.532 481.637 217.534 484.07 216.501 487.021C214.02 494.103 217.699 501.837 224.713 504.354L373.796 557.061C376.051 557.851 378.405 558.013 380.732 557.563L385.346 555.746L567.263 442.986C574.416 438.565 582.359 435.504 590.621 433.941C602.705 431.79 614.669 432.909 625.638 436.691C636.589 440.527 646.617 447.172 654.717 456.394C660.197 462.772 664.494 470.12 667.325 478.038L733.192 663.198L735.664 667.497C737.202 669.301 739.196 670.662 741.397 671.433H875.518C885.43 670.906 886.358 665.987 887.345 663.317C888.181 659.985 888.73 655.658 887.755 652.278Z" fill="white" fill-opacity="0.01" shape-rendering="crispEdges"/>
<path d="M887.755 652.278C886.78 648.899 746.625 259.579 746.625 259.579C743.604 251.172 739.044 243.371 733.228 236.575C724.884 226.845 714.395 219.798 703.071 215.65C691.58 211.806 679.04 210.786 666.448 213.181C657.663 214.862 649.232 218.113 641.624 222.797L222.146 480.023C219.532 481.637 217.534 484.07 216.501 487.021C214.02 494.103 217.699 501.837 224.713 504.354L373.796 557.061C376.051 557.851 378.405 558.013 380.732 557.563L385.346 555.746L567.263 442.986C574.416 438.565 582.359 435.504 590.621 433.941C602.705 431.79 614.669 432.909 625.638 436.691C636.589 440.527 646.617 447.172 654.717 456.394C660.197 462.772 664.494 470.12 667.325 478.038L733.192 663.198C733.192 663.198 734.126 665.694 735.664 667.497C737.202 669.301 737.336 670.011 741.397 671.433C745.458 672.856 875.518 671.433 875.518 671.433C885.43 670.906 886.358 665.987 887.345 663.317C888.181 659.985 888.73 655.658 887.755 652.278Z" fill="white" fill-opacity="0.01" shape-rendering="crispEdges"/>
<path d="M745.831 259.865L746.625 259.579C745.831 259.865 745.832 259.867 745.833 259.869L745.838 259.883L745.857 259.936L745.933 260.147L746.233 260.982L747.405 264.238L751.855 276.6C755.69 287.252 761.168 302.473 767.746 320.749C780.9 357.3 798.45 406.071 816.031 454.947C833.611 503.823 851.221 552.805 864.498 589.779C871.136 608.265 876.691 623.75 880.616 634.719C882.579 640.203 884.135 644.558 885.214 647.594C885.754 649.112 886.175 650.3 886.468 651.134C886.615 651.551 886.729 651.879 886.811 652.115C886.851 652.233 886.883 652.327 886.907 652.396C886.918 652.431 886.927 652.459 886.934 652.48L886.942 652.504L886.944 652.512C887.852 655.658 887.357 659.784 886.537 663.069C886.463 663.272 886.39 663.481 886.316 663.694C885.876 664.956 885.392 666.345 884.175 667.588C882.775 669.019 880.299 670.33 875.496 670.59H741.543C739.559 669.869 737.759 668.633 736.356 667.008L733.962 662.844L668.12 477.755L668.119 477.754C665.253 469.737 660.903 462.299 655.357 455.845L655.351 455.838C647.154 446.506 637.005 439.779 625.917 435.895L625.913 435.893C614.812 432.066 602.704 430.933 590.473 433.111L590.464 433.112C582.102 434.694 574.062 437.792 566.819 442.268L566.818 442.269L384.967 554.989L380.497 556.749C378.339 557.153 376.163 556.996 374.075 556.265L224.998 503.56C224.997 503.559 224.997 503.559 224.996 503.559C218.422 501.199 214.969 493.946 217.297 487.3C218.265 484.536 220.135 482.257 222.589 480.742C222.589 480.742 222.589 480.742 222.589 480.741L642.065 223.516L642.067 223.515C649.585 218.886 657.92 215.672 666.606 214.01C679.048 211.643 691.437 212.65 702.792 216.447C713.98 220.546 724.343 227.511 732.587 237.124C738.338 243.843 742.845 251.556 745.831 259.865ZM621.489 499.684L704.765 730.95C708.472 741.244 702.864 751.301 694.133 754.941C690.192 756.414 685.665 756.594 681.095 754.939L385.735 647.976C370.613 642.5 368.715 621.901 382.578 613.773L594.652 489.441C595.135 489.158 595.625 488.899 596.119 488.663C606 484.396 617.734 489.256 621.489 499.684Z" stroke="#229E79" stroke-opacity="0.2" stroke-width="1.68748" shape-rendering="crispEdges"/>
</g>
<defs>
<filter id="filter0_di_2292_18681" x="0.618744" y="0.151448" width="1102.76" height="975.539" filterUnits="userSpaceOnUse" color-interpolation-filters="sRGB">
<feFlood flood-opacity="0" result="BackgroundImageFix"/>
<feColorMatrix in="SourceAlpha" type="matrix" values="0 0 0 0 0 0 0 0 0 0 0 0 0 0 0 0 0 0 127 0" result="hardAlpha"/>
<feOffset dy="3.36473"/>
<feGaussianBlur stdDeviation="107.554"/>
<feComposite in2="hardAlpha" operator="out"/>
<feColorMatrix type="matrix" values="0 0 0 0 0.133333 0 0 0 0 0.619608 0 0 0 0 0.47451 0 0 0 0.2 0"/>
<feBlend mode="normal" in2="BackgroundImageFix" result="effect1_dropShadow_2292_18681"/>
<feBlend mode="normal" in="SourceGraphic" in2="effect1_dropShadow_2292_18681" result="shape"/>
<feColorMatrix in="SourceAlpha" type="matrix" values="0 0 0 0 0 0 0 0 0 0 0 0 0 0 0 0 0 0 127 0" result="hardAlpha"/>
<feOffset/>
<feGaussianBlur stdDeviation="27.3628"/>
<feComposite in2="hardAlpha" operator="arithmetic" k2="-1" k3="1"/>
<feColorMatrix type="matrix" values="0 0 0 0 0.133333 0 0 0 0 0.619608 0 0 0 0 0.47451 0 0 0 0.25 0"/>
<feBlend mode="normal" in2="shape" result="effect2_innerShadow_2292_18681"/>
</filter>
</defs>
</svg>
