<svg width="20" height="20" viewBox="0 0 20 20" fill="none" xmlns="http://www.w3.org/2000/svg">
<path d="M1.52269 0.5H7.26476C7.82818 0.5 8.28731 0.959071 8.28745 1.52269C8.28745 1.52272 8.28745 1.52274 8.28745 1.52277V7.26476C8.28745 7.82828 7.82828 8.28745 7.26476 8.28745H1.52269C0.95917 8.28745 0.5 7.82828 0.5 7.26476V1.52269C0.5 0.95917 0.95917 0.5 1.52269 0.5Z" fill="currentColor" stroke="#229E79"/>
<path d="M12.7356 0.5H18.4776C19.0412 0.5 19.5003 0.95917 19.5003 1.52269V7.26476C19.5003 7.82828 19.0412 8.28745 18.4776 8.28745H12.7356C12.1721 8.28745 11.7129 7.82828 11.7129 7.26476V1.52269C11.7129 0.95917 12.1721 0.5 12.7356 0.5Z" fill="none" stroke="#229E79"/>
<path d="M1.52269 11.7124H7.26476C7.8282 11.7124 8.28731 12.1714 8.28745 12.735C8.28745 12.735 8.28745 12.7351 8.28745 12.7351V18.4771C8.28745 19.0406 7.82828 19.4998 7.26476 19.4998H1.52269C0.95917 19.4998 0.5 19.0406 0.5 18.4771V12.735C0.5 12.1715 0.959141 11.7124 1.52269 11.7124Z" fill="none" stroke="#229E79"/>
<path d="M12.7356 11.7124H18.4776C19.0412 11.7124 19.5003 12.1715 19.5003 12.735V18.4771C19.5003 19.0406 19.0412 19.4998 18.4776 19.4998C18.4776 19.4998 18.4776 19.4998 18.4776 19.4998H12.7356C12.1721 19.4998 11.7129 19.0407 11.7129 18.4772V12.7351C11.7129 12.1716 12.1721 11.7124 12.7356 11.7124Z" fill="none" stroke="#229E79"/>
</svg>
