<svg width="152" height="36" viewBox="0 0 152 36" fill="none" xmlns="http://www.w3.org/2000/svg">
<g id="Valoriz-logo 2" clip-path="url(#clip0_2323_2702)">
<g id="Layer 1">
<g id="Group 3">
<g id="Group 1">
<path id="Path 1" d="M26.812 31.0293C26.6513 31.0611 26.4847 31.0313 26.3444 30.9458C26.2042 30.8602 26.1002 30.725 26.0525 30.5662L22.7178 21.6326C22.4538 20.8417 21.9214 20.1716 21.2155 19.7416C20.5096 19.3117 19.6761 19.1498 18.8635 19.2848C18.4469 19.3574 18.0471 19.5076 17.6844 19.7277L8.46546 25.3293L8.23134 25.4191C8.11447 25.439 7.99449 25.4281 7.88303 25.3872L0.44278 22.5879C0.322637 22.5424 0.217596 22.4635 0.139756 22.3602C0.0619167 22.2569 0.0144447 22.1334 0.0028086 22.0039C-0.00882752 21.8744 0.0158455 21.7442 0.0739858 21.6283C0.132126 21.5124 0.221368 21.4156 0.331434 21.3489L21.5844 8.57664C21.9706 8.34436 22.3953 8.18543 22.8377 8.10766C23.6967 7.95573 24.581 8.1214 25.3297 8.57456C26.0784 9.02771 26.6418 9.73826 26.9176 10.577L33.4585 30.0596C33.4909 30.1537 33.5023 30.2539 33.4919 30.353C33.4815 30.4521 33.4497 30.5476 33.3986 30.6327C33.3488 30.7186 33.2811 30.7924 33.2002 30.8489C33.1193 30.9054 33.0272 30.9433 32.9303 30.9599L26.812 31.0265V31.0293Z" fill="#049E76"/>
<path id="Path 2" d="M23.4803 35.4873C23.317 35.514 23.1497 35.497 22.9949 35.4381L8.60265 30.0304C8.43577 29.968 8.2897 29.8591 8.18135 29.716C8.073 29.573 8.00678 29.4018 7.99036 29.2223C7.97393 29.0427 8.00797 28.8621 8.08853 28.7013C8.1691 28.5405 8.2929 28.4062 8.44562 28.3137L18.9465 21.9797C19.0467 21.9194 19.157 21.8782 19.2719 21.8582C19.4939 21.8162 19.7234 21.8581 19.917 21.976C20.1105 22.0939 20.2548 22.2795 20.3226 22.4979L24.2169 34.2367C24.2609 34.3664 24.2766 34.5043 24.2628 34.6408C24.2489 34.7772 24.206 34.909 24.1369 35.027C24.0667 35.1471 23.9716 35.2505 23.8583 35.3299C23.7449 35.4094 23.616 35.4631 23.4803 35.4873Z" fill="#049E76"/>
</g>
<g id="Group 2">
<path id="Path 3" d="M33.2021 9.0835H38.9892L42.4239 20.3909C43.0548 22.4723 43.3889 23.8763 43.3889 23.8763H43.4745C43.4745 23.8763 43.7657 22.4723 44.3967 20.3909L47.917 9.0835H53.6156L46.1126 30.8878H40.6595L33.1992 9.0835H33.2021Z" fill="white"/>
<path id="Path 4" d="M64.1222 8.53317C57.8468 8.53317 55.0232 11.8883 54.8804 15.7067H59.931C60.1023 13.6253 61.4156 12.641 64.0965 12.641C66.4919 12.641 67.691 13.6832 67.691 15.2435C67.691 16.8936 66.0636 17.2091 62.4977 17.7013C57.7041 18.396 53.8555 19.9274 53.8555 24.73C53.8555 29.0695 56.9646 31.4114 61.3585 31.4114C65.0672 31.4114 66.6061 30.1087 67.691 28.4615H67.7767C67.9194 29.4458 68.1193 30.4561 68.4619 30.8903H73.1984V16.5723C73.1984 11.4512 70.6032 8.53027 64.1279 8.53027L64.1222 8.53317ZM67.8309 23.1986C67.8309 25.309 66.0065 27.3644 62.7518 27.3644C60.7276 27.3644 59.3857 26.6407 59.3857 24.5882C59.3857 22.5357 60.8703 21.8699 63.8367 21.2041C65.2642 20.8567 66.8031 20.5093 67.8309 19.9303V23.1986Z" fill="white"/>
<path id="Path 5" d="M76.8652 0.5H82.5668V30.8876H76.8652V0.5Z" fill="white"/>
<path id="Path 6" d="M85.2832 20.0085C85.2832 13.5066 89.8513 8.49268 96.5149 8.49268C103.179 8.49268 107.75 13.5066 107.75 20.0085C107.75 26.5104 103.181 31.5273 96.5149 31.5273C89.8484 31.5273 85.2832 26.5104 85.2832 20.0085ZM101.968 20.0085C101.968 15.7588 99.9952 12.8668 96.5149 12.8668C93.0346 12.8668 91.0647 15.7588 91.0647 20.0085C91.0647 24.2582 92.9947 27.1068 96.5149 27.1068C100.035 27.1068 101.968 24.2582 101.968 20.0085Z" fill="white"/>
<path id="Path 7" d="M115.873 12.5687H115.999C117.301 10.1023 118.765 8.82856 121.281 8.82856C121.734 8.80196 122.189 8.85985 122.622 8.99935V14.0596H122.497C118.762 13.6746 116.081 15.6721 116.081 20.2662V30.8905H110.383V9.08331H115.873V12.5687Z" fill="white"/>
<path id="Path 8" d="M125.092 9.08333H130.791V30.8876H125.092V9.08333ZM131.205 3.80596C131.205 4.45981 131.013 5.09899 130.655 5.64265C130.297 6.18631 129.788 6.61004 129.192 6.86026C128.596 7.11048 127.94 7.17595 127.308 7.04839C126.676 6.92083 126.095 6.60597 125.639 6.14362C125.183 5.68127 124.872 5.09221 124.746 4.45092C124.62 3.80962 124.685 3.14491 124.932 2.54082C125.179 1.93674 125.596 1.42042 126.133 1.05715C126.669 0.693891 127.299 0.5 127.944 0.5C128.809 0.5 129.638 0.848305 130.25 1.46829C130.861 2.08828 131.205 2.92916 131.205 3.80596Z" fill="white"/>
<path id="Path 9" d="M133.766 26.4673L144.835 13.7587V13.6314H135.025V9.0835H151.455V13.7153L140.641 26.1286V26.2559H152.001V30.8878H133.766V26.4673Z" fill="white"/>
</g>
</g>
</g>
</g>
<defs>
<clipPath id="clip0_2323_2702">
<rect width="152" height="35" fill="white" transform="translate(0 0.5)"/>
</clipPath>
</defs>
</svg>
