<svg width="26" height="27" viewBox="0 0 26 27" fill="none" xmlns="http://www.w3.org/2000/svg">
<g id="Vector">
<path d="M26 26.3176V16.7951C26 12.1151 24.9925 8.54013 19.5325 8.54013C16.9 8.54013 15.145 9.97013 14.43 11.3351H14.365V8.96263H9.1975V26.3176H14.5925V17.7051C14.5925 15.4301 15.015 13.2526 17.81 13.2526C20.5725 13.2526 20.605 15.8201 20.605 17.8351V26.2851H26V26.3176Z" fill="#D4D4D8"/>
<path d="M0.4225 8.96263H5.8175V26.3176H0.4225V8.96263Z" fill="#D4D4D8"/>
<path d="M3.12 0.317627C1.3975 0.317627 0 1.71513 0 3.43763C0 5.16013 1.3975 6.59013 3.12 6.59013C4.8425 6.59013 6.24 5.16013 6.24 3.43763C6.24 1.71513 4.8425 0.317627 3.12 0.317627Z" fill="#D4D4D8"/>
</g>
</svg>
