<svg width="18" height="19" viewBox="0 0 18 19" fill="none" xmlns="http://www.w3.org/2000/svg">
<g id="Capa_1" clip-path="url(#clip0_1265_51957)">
<path id="Vector" d="M9 18.1663C13.9706 18.1663 18 14.1368 18 9.16626C18 4.1957 13.9706 0.16626 9 0.16626C4.02944 0.16626 0 4.1957 0 9.16626C0 14.1368 4.02944 18.1663 9 18.1663Z" fill="#229E79"/>
<path id="Vector_2" d="M13.5 11.027C12.5291 11.027 11.6033 10.8155 10.7494 10.3981C10.6155 10.334 10.4602 10.3239 10.3185 10.3723C10.1767 10.4218 10.0609 10.5253 9.99563 10.6591L9.59062 11.4973C8.37562 10.7998 7.36762 9.79063 6.669 8.57563L7.50825 8.17063C7.64325 8.10538 7.74562 7.98951 7.79513 7.84776C7.8435 7.70601 7.8345 7.55076 7.76925 7.41688C7.35075 6.56413 7.13925 5.63826 7.13925 4.66626C7.13925 4.35576 6.88725 4.10376 6.57675 4.10376H4.5C4.1895 4.10376 3.9375 4.35576 3.9375 4.66626C3.9375 9.93913 8.22713 14.2288 13.5 14.2288C13.8105 14.2288 14.0625 13.9768 14.0625 13.6663V11.5895C14.0625 11.279 13.8105 11.027 13.5 11.027Z" fill="white"/>
</g>
<defs>
<clipPath id="clip0_1265_51957">
<rect width="18" height="18" fill="white" transform="translate(0 0.16626)"/>
</clipPath>
</defs>
</svg>
