<svg width="26" height="27" viewBox="0 0 26 27" fill="none" xmlns="http://www.w3.org/2000/svg">
<g id="Capa_1" clip-path="url(#clip0_1867_1951)">
<g id="Group">
<g id="Group_2">
<g id="Group_3">
<path id="Vector" d="M12.9883 0.31958C5.80903 0.31958 -0.0117188 6.14033 -0.0117188 13.3196C-0.0117188 20.4999 5.80903 26.3196 12.9883 26.3196C20.1686 26.3196 25.9883 20.4999 25.9883 13.3196C25.9883 6.14033 20.1686 0.31958 12.9883 0.31958ZM18.9499 19.0699C18.7159 19.4534 18.2175 19.5726 17.8362 19.3397C14.7834 17.4742 10.9408 17.0527 6.4157 18.0862C5.97912 18.1859 5.5447 17.9129 5.44503 17.4774C5.34537 17.0419 5.61728 16.6064 6.05495 16.5078C11.0069 15.3757 15.2546 15.8632 18.6812 17.9573C19.0636 18.1892 19.1839 18.6886 18.9499 19.0699ZM20.5413 15.5307C20.2477 16.0073 19.6237 16.1568 19.147 15.8643C15.6533 13.7172 10.3265 13.0942 6.19253 14.3498C5.65736 14.5112 5.09078 14.209 4.92828 13.6738C4.76686 13.1376 5.06911 12.5732 5.60428 12.4096C10.3254 10.9763 16.1949 11.6707 20.2076 14.1364C20.6843 14.43 20.8338 15.054 20.5413 15.5307ZM20.6778 11.8441C16.4874 9.35566 9.57578 9.12708 5.57503 10.3415C4.93261 10.5365 4.25336 10.1736 4.05836 9.53116C3.86336 8.88875 4.22628 8.2095 4.8687 8.0145C9.46095 6.62025 17.0941 6.89 21.9182 9.75325C22.4956 10.0967 22.6852 10.842 22.3429 11.4194C22.0016 11.9968 21.2541 12.1875 20.6778 11.8441Z" fill="#D4D4D8"/>
</g>
</g>
</g>
</g>
<defs>
<clipPath id="clip0_1867_1951">
<rect width="26" height="26" fill="white" transform="translate(0 0.317627)"/>
</clipPath>
</defs>
</svg>
