<svg width="30" height="23" viewBox="0 0 30 23" fill="none" xmlns="http://www.w3.org/2000/svg">
<path id="Vector" d="M29.3732 3.7532C29.028 2.40112 28.0115 1.33604 26.7208 0.974761C24.3812 0.317627 15 0.317627 15 0.317627C15 0.317627 5.61884 0.317627 3.27947 0.974431C1.98853 1.33571 0.972 2.4008 0.627158 3.75287C0 6.20422 0 11.3176 0 11.3176C0 11.3176 5.88204e-08 16.4314 0.626842 18.8824C0.971684 20.2345 1.98821 21.2992 3.27916 21.6608C5.61884 22.3176 15 22.3176 15 22.3176C15 22.3176 24.3815 22.3176 26.7208 21.6608C28.0118 21.2992 29.028 20.2345 29.3732 18.8824C30 16.431 30 11.3176 30 11.3176C30 11.3176 30 6.20422 29.3732 3.7532ZM11.9318 15.9603V6.67496L19.7728 11.318L11.9318 15.9603Z" fill="#D4D4D8"/>
</svg>
