<svg width="48" height="48" viewBox="0 0 48 48" fill="none" xmlns="http://www.w3.org/2000/svg">
<path d="M24.0165 32.2489C27.8142 32.2489 30.9138 29.1771 30.9138 25.4135C30.9138 21.6499 27.8142 18.5781 24.0165 18.5781C20.2188 18.5781 17.1192 21.6499 17.1192 25.4135C17.1192 29.1771 20.2188 32.2489 24.0165 32.2489ZM24.0165 21.0531C26.4414 21.0531 28.414 23.0104 28.414 25.4111C28.414 27.8142 26.439 29.7691 24.0165 29.7691C21.5916 29.7691 19.619 27.8118 19.619 25.4111C19.619 23.008 21.594 21.0531 24.0165 21.0531Z" fill="url(#paint0_linear_1797_533)"/>
<path d="M37.3355 30.3171C40.6085 30.3171 43.2582 27.6912 43.2582 24.4476C43.2582 21.2041 40.6085 18.5781 37.3355 18.5781C34.0626 18.5781 31.4128 21.2041 31.4128 24.4476C31.4128 27.6912 34.0626 30.3171 37.3355 30.3171ZM37.3355 21.0531C39.2356 21.0531 40.7584 22.5646 40.7584 24.4452C40.7584 26.3282 39.2332 27.8374 37.3355 27.8374C35.4355 27.8374 33.9127 26.3259 33.9127 24.4452C33.9127 22.5622 35.4379 21.0531 37.3355 21.0531Z" fill="url(#paint1_linear_1797_533)"/>
<path d="M37.3355 31.5546C34.161 31.5546 31.1621 32.9919 29.1637 35.3926C27.5893 34.6983 25.865 34.2781 24.0165 34.2781C22.168 34.2781 20.4179 34.6983 18.8177 35.4181C16.7935 33.0406 13.8204 31.6034 10.6459 31.6034C4.77235 31.6034 0 36.3329 0 42.1537C0 42.8479 0.550569 43.3912 1.24872 43.3912C1.94924 43.3912 2.49743 42.8455 2.49743 42.1537C2.49743 37.6958 6.14522 34.0808 10.6435 34.0808C12.9184 34.0808 15.041 35.0722 16.592 36.7067C13.469 38.9844 11.3932 42.625 11.3932 46.7625C11.3932 47.4567 11.9438 48 12.6419 48C13.3424 48 13.8906 47.4544 13.8906 46.7625C13.8906 41.2389 18.4381 36.7323 24.0117 36.7323C29.5853 36.7323 34.1328 41.2389 34.1328 46.7625C34.1328 47.4567 34.6833 48 35.3815 48C36.082 48 36.6302 47.4544 36.6302 46.7625C36.6302 42.6018 34.5568 38.9357 31.408 36.6836C32.9332 35.049 35.0816 34.0344 37.3565 34.0344C41.8548 34.0344 45.5026 37.6494 45.5026 42.1073C45.5026 42.8015 46.0531 43.3448 46.7513 43.3448C47.4518 43.3448 48 42.7992 48 42.1073C48 36.2865 43.2276 31.557 37.3541 31.557L37.3355 31.5546Z" fill="url(#paint2_linear_1797_533)"/>
<path d="M10.6459 30.3659C13.9188 30.3659 16.5686 27.7399 16.5686 24.4964C16.5686 21.2528 13.9188 18.6268 10.6459 18.6268C7.37294 18.6268 4.72317 21.2528 4.72317 24.4964C4.72317 27.7399 7.37294 30.3659 10.6459 30.3659ZM10.6459 21.1042C12.5201 21.1042 14.0687 22.6157 14.0687 24.4964C14.0687 26.3794 12.5435 27.8885 10.6459 27.8885C8.74581 27.8885 7.223 26.377 7.223 24.4964C7.223 22.6134 8.74821 21.1042 10.6459 21.1042Z" fill="url(#paint3_linear_1797_533)"/>
<path d="M21.0668 16.6951C20.8677 16.6951 20.6662 16.6463 20.5163 16.521C20.2164 16.3236 20.0922 15.9521 20.1414 15.6038L20.617 12.8293L18.5928 10.872C18.3421 10.6235 18.2437 10.252 18.3679 9.93164C18.4686 9.58569 18.7685 9.3628 19.1176 9.28852L21.9173 8.89149L23.166 6.36537C23.316 6.04263 23.6416 5.84528 24.0165 5.84528C24.3656 5.84528 24.6912 6.04263 24.867 6.36537L26.1157 8.89149L28.9154 9.28852C29.2645 9.33728 29.5643 9.58571 29.6651 9.93164C29.7658 10.2776 29.6651 10.6259 29.4402 10.872L27.416 12.8293L27.8916 15.6038C27.9408 15.9498 27.8166 16.2981 27.5167 16.521C27.2168 16.7183 26.842 16.7694 26.5163 16.5953L24.0165 15.2835L21.5166 16.5953C21.3925 16.6696 21.2168 16.6951 21.0926 16.6951H21.0668ZM21.266 10.8743L22.2898 11.8657C22.5147 12.0886 22.6154 12.3858 22.5639 12.683L22.3132 14.0691L23.5619 13.426C23.836 13.2774 24.1617 13.2774 24.4358 13.426L25.6845 14.0691L25.4338 12.683C25.3846 12.3858 25.483 12.0631 25.7079 11.8657L26.7317 10.8743L25.3331 10.677C25.0332 10.6282 24.7591 10.4541 24.6325 10.1569L24.007 8.89381L23.3814 10.1569C23.2573 10.4285 22.9808 10.6282 22.6809 10.677L21.2822 10.8743H21.266Z" fill="url(#paint4_linear_1797_533)"/>
<path d="M33.6362 15.0118C33.6362 15.0118 33.437 15.0118 33.3363 14.963L30.0118 13.823C29.5127 13.6489 29.2621 13.1288 29.4378 12.6343C29.6135 12.1397 30.1383 11.8913 30.6373 12.0654L33.9618 13.2054C34.4608 13.3796 34.7115 13.8997 34.5358 14.3942C34.4117 14.7912 34.0368 15.0141 33.662 15.0141L33.6362 15.0118Z" fill="url(#paint5_linear_1797_533)"/>
<path d="M29.3886 7.95352C29.1145 7.95352 28.8146 7.83046 28.6389 7.58203C28.339 7.16178 28.414 6.5906 28.838 6.29341L31.6611 4.23863C32.0618 3.94144 32.6616 4.01574 32.9614 4.43598C33.2613 4.85623 33.1864 5.42741 32.7623 5.7246L29.9392 7.77938C29.7635 7.90244 29.5901 7.95352 29.3886 7.95352Z" fill="url(#paint6_linear_1797_533)"/>
<path d="M23.9415 5.32754C23.4425 5.32754 23.0161 4.93051 22.9927 4.43597L22.8685 0.969531C22.8685 0.449447 23.2691 0.029219 23.7682 0.00366058C24.3422 -0.0450972 24.717 0.40069 24.7428 0.895233L24.867 4.36167C24.867 4.88175 24.4663 5.30198 23.9673 5.32754H23.9415Z" fill="url(#paint7_linear_1797_533)"/>
<path d="M18.6678 8.29945C18.4921 8.29945 18.3187 8.25069 18.1687 8.15085L15.2191 6.26785C14.795 5.9962 14.6685 5.42502 14.945 4.97923C15.2191 4.55899 15.8188 4.43361 16.2453 4.70758L19.1949 6.59058C19.619 6.86223 19.7455 7.43342 19.469 7.8792C19.2933 8.15085 18.9934 8.29945 18.6701 8.29945H18.6678Z" fill="url(#paint8_linear_1797_533)"/>
<path d="M14.8934 15.6062C14.5186 15.6062 14.1695 15.3833 14.0196 15.0373C13.8204 14.566 14.0196 14.0227 14.5186 13.823L17.7681 12.4857C18.2437 12.2883 18.7919 12.5112 18.9935 12.9802C19.1926 13.4515 18.9935 13.9948 18.4944 14.1945L15.2449 15.5319C15.2449 15.5319 14.9942 15.6062 14.8958 15.6062H14.8934Z" fill="url(#paint9_linear_1797_533)"/>
<defs>
<linearGradient id="paint0_linear_1797_533" x1="24" y1="0" x2="24" y2="48" gradientUnits="userSpaceOnUse">
<stop stop-color="#049E76"/>
<stop offset="1" stop-color="white"/>
</linearGradient>
<linearGradient id="paint1_linear_1797_533" x1="24" y1="0" x2="24" y2="48" gradientUnits="userSpaceOnUse">
<stop stop-color="#049E76"/>
<stop offset="1" stop-color="white"/>
</linearGradient>
<linearGradient id="paint2_linear_1797_533" x1="24" y1="0" x2="24" y2="48" gradientUnits="userSpaceOnUse">
<stop stop-color="#049E76"/>
<stop offset="1" stop-color="white"/>
</linearGradient>
<linearGradient id="paint3_linear_1797_533" x1="24" y1="0" x2="24" y2="48" gradientUnits="userSpaceOnUse">
<stop stop-color="#049E76"/>
<stop offset="1" stop-color="white"/>
</linearGradient>
<linearGradient id="paint4_linear_1797_533" x1="24" y1="0" x2="24" y2="48" gradientUnits="userSpaceOnUse">
<stop stop-color="#049E76"/>
<stop offset="1" stop-color="white"/>
</linearGradient>
<linearGradient id="paint5_linear_1797_533" x1="24" y1="0" x2="24" y2="48" gradientUnits="userSpaceOnUse">
<stop stop-color="#049E76"/>
<stop offset="1" stop-color="white"/>
</linearGradient>
<linearGradient id="paint6_linear_1797_533" x1="24" y1="0" x2="24" y2="48" gradientUnits="userSpaceOnUse">
<stop stop-color="#049E76"/>
<stop offset="1" stop-color="white"/>
</linearGradient>
<linearGradient id="paint7_linear_1797_533" x1="24" y1="0" x2="24" y2="48" gradientUnits="userSpaceOnUse">
<stop stop-color="#049E76"/>
<stop offset="1" stop-color="white"/>
</linearGradient>
<linearGradient id="paint8_linear_1797_533" x1="24" y1="0" x2="24" y2="48" gradientUnits="userSpaceOnUse">
<stop stop-color="#049E76"/>
<stop offset="1" stop-color="white"/>
</linearGradient>
<linearGradient id="paint9_linear_1797_533" x1="24" y1="0" x2="24" y2="48" gradientUnits="userSpaceOnUse">
<stop stop-color="#049E76"/>
<stop offset="1" stop-color="white"/>
</linearGradient>
</defs>
</svg>
