<svg width="49" height="48" viewBox="0 0 49 48" fill="none" xmlns="http://www.w3.org/2000/svg">
<path d="M1.30422 37.2387V46.2714C1.30422 46.9926 1.72789 47.6945 2.41349 47.9112C3.55513 48.2766 4.61596 47.4325 4.61596 46.3459V37.3131C4.61596 36.5919 4.19229 35.89 3.50669 35.6734C2.36505 35.3079 1.30422 36.152 1.30422 37.2387Z" fill="url(#paint0_linear_1797_1478)"/>
<path d="M15.3791 28.9593V46.2714C15.3791 46.9926 15.8028 47.6945 16.4884 47.9112C17.63 48.2766 18.6908 47.4325 18.6908 46.3459V29.0338C18.6908 28.3126 18.2672 27.6107 17.5816 27.394C16.4399 27.0286 15.3791 27.8727 15.3791 28.9593Z" fill="url(#paint1_linear_1797_1478)"/>
<path d="M32.7657 46.346V33.1735C32.7657 32.4523 32.3421 31.7505 31.6565 31.5338C30.5148 31.1683 29.454 32.0124 29.454 33.0991V46.2715C29.454 46.9927 29.8777 47.6946 30.5633 47.9112C31.7049 48.2767 32.7657 47.4326 32.7657 46.346Z" fill="url(#paint2_linear_1797_1478)"/>
<path d="M46.8406 46.346V28.1314C46.8406 27.2193 46.0968 26.4755 45.1847 26.4755C44.2727 26.4755 43.5289 27.2194 43.5289 28.1314V46.346C43.5289 47.258 44.2727 48.0018 45.1847 48.0018C46.0968 48.0018 46.8406 47.258 46.8406 46.346Z" fill="url(#paint3_linear_1797_1478)"/>
<path d="M3.39062 25.8968L16.2137 13.0738C16.6373 12.6501 17.2324 12.4108 17.8534 12.4108C18.4743 12.4108 19.0695 12.6501 19.4931 13.0738L24.4704 18.051C25.4471 19.0278 26.7214 19.7166 28.0958 19.8396C29.8002 19.9883 31.4237 19.3997 32.6171 18.2095L45.1785 5.6481V14.8978C45.1785 15.3603 45.3758 15.8098 45.7251 16.1235C46.0744 16.4372 46.5272 16.586 47.0091 16.5472C47.8467 16.4631 48.5 15.6772 48.5 14.7587V4.9659C48.5 2.22659 46.2717 -0.00170898 43.5324 -0.00170898H33.7396C32.8114 -0.00170898 32.0255 0.651581 31.9511 1.48924C31.9026 1.96789 32.0578 2.42389 32.3748 2.77319C32.6885 3.12248 33.138 3.31976 33.6005 3.31976H42.8502L30.273 15.8969C29.8494 16.3206 29.2543 16.5599 28.6333 16.5599C28.0124 16.5599 27.4172 16.3206 26.9936 15.8969L22.026 10.9293C21.0493 9.95259 19.775 9.26375 18.4006 9.1408C16.6962 8.99203 15.0727 9.58064 13.8793 10.7708L0.988349 23.6618C0.674636 23.9755 0.5 24.3895 0.5 24.8293C0.5 25.2433 0.648771 25.6314 0.930136 25.9386C1.57696 26.6501 2.73478 26.5919 3.41394 25.9127L3.39062 25.8968Z" fill="url(#paint4_linear_1797_1478)"/>
<defs>
<linearGradient id="paint0_linear_1797_1478" x1="24.5" y1="-0.00170898" x2="24.5" y2="48.0018" gradientUnits="userSpaceOnUse">
<stop stop-color="#049E76"/>
<stop offset="1" stop-color="white"/>
</linearGradient>
<linearGradient id="paint1_linear_1797_1478" x1="24.5" y1="-0.00170898" x2="24.5" y2="48.0018" gradientUnits="userSpaceOnUse">
<stop stop-color="#049E76"/>
<stop offset="1" stop-color="white"/>
</linearGradient>
<linearGradient id="paint2_linear_1797_1478" x1="24.5" y1="-0.00170898" x2="24.5" y2="48.0018" gradientUnits="userSpaceOnUse">
<stop stop-color="#049E76"/>
<stop offset="1" stop-color="white"/>
</linearGradient>
<linearGradient id="paint3_linear_1797_1478" x1="24.5" y1="-0.00170898" x2="24.5" y2="48.0018" gradientUnits="userSpaceOnUse">
<stop stop-color="#049E76"/>
<stop offset="1" stop-color="white"/>
</linearGradient>
<linearGradient id="paint4_linear_1797_1478" x1="24.5" y1="-0.00170898" x2="24.5" y2="48.0018" gradientUnits="userSpaceOnUse">
<stop stop-color="#049E76"/>
<stop offset="1" stop-color="white"/>
</linearGradient>
</defs>
</svg>
