<svg width="49" height="48" viewBox="0 0 49 48" fill="none" xmlns="http://www.w3.org/2000/svg">
<path d="M5.4212 28.7645L15.595 32.9023L19.7328 43.0761C20.5228 45.0211 22.3976 46.2799 24.4966 46.2799C26.5957 46.2799 28.4637 45.0211 29.2605 43.0761L33.3983 32.9023L43.572 28.7645C45.5171 27.9745 46.7759 26.0997 46.7759 24.0007C46.7759 21.9016 45.5171 20.0336 43.572 19.2368L33.3983 15.099L29.2605 4.92524C28.4637 2.98022 26.5957 1.72142 24.4966 1.72142C22.3976 1.72142 20.5295 2.98022 19.7328 4.92524L15.595 15.099L5.4212 19.2368C3.47618 20.0269 2.21738 21.9016 2.21738 24.0007C2.21738 26.0997 3.47618 27.9678 5.4212 28.7645ZM6.71677 22.4138L16.8905 18.276C17.7475 17.9245 18.4238 17.2482 18.7753 16.3912L22.9131 6.21746C23.1776 5.55796 23.7868 5.14618 24.5 5.14618C25.2097 5.14618 25.819 5.55796 26.0868 6.21746L30.2246 16.3912C30.5762 17.2482 31.2524 17.9245 32.1094 18.276L42.2832 22.4138C42.9427 22.6783 43.3544 23.2875 43.3544 24.0007C43.3544 24.7104 42.9427 25.3197 42.2832 25.5875L32.1094 29.7253C31.2524 30.0769 30.5761 30.7531 30.2246 31.6101L26.0868 41.7839C25.8224 42.4434 25.2131 42.8551 24.5 42.8551C23.7902 42.8551 23.1809 42.4434 22.9131 41.7839L18.7753 31.6101C18.4238 30.7531 17.7475 30.0768 16.8905 29.7253L6.71677 25.5875C6.05726 25.3231 5.64548 24.7138 5.64548 24.0007C5.64548 23.2909 6.05726 22.6816 6.71677 22.4138Z" fill="url(#paint0_linear_1797_795)"/>
<path d="M40.3381 44.3812L42.5845 45.014C42.7318 45.0809 42.8423 45.2014 42.9193 45.3487L43.552 47.5951C43.8265 48.1441 44.6066 48.1441 44.8811 47.5951L45.5071 45.3487C45.5741 45.2014 45.6946 45.091 45.8419 45.014L48.0882 44.3812C48.6373 44.1067 48.6373 43.3267 48.0882 43.0522L45.8419 42.4194C45.6946 42.3525 45.5841 42.232 45.5071 42.0847L44.8811 39.8383C44.6066 39.2893 43.8265 39.2893 43.552 39.8383L42.9193 42.0847C42.8523 42.232 42.7318 42.3424 42.5845 42.4194L40.3381 43.0522C39.7891 43.3267 39.7891 44.1067 40.3381 44.3812Z" fill="url(#paint1_linear_1797_795)"/>
<path d="M3.49289 5.91536L4.12562 8.16171C4.40013 8.71074 5.18019 8.71074 5.45469 8.16171L6.08072 5.91536C6.14768 5.76806 6.2682 5.65759 6.4155 5.58058L8.66185 4.94786C9.21088 4.67334 9.21088 3.89329 8.66185 3.61878L6.4155 2.98606C6.2682 2.9191 6.15773 2.79858 6.08072 2.65128L5.45469 0.404935C5.18018 -0.144093 4.40012 -0.144093 4.12562 0.404935L3.49289 2.65128C3.42594 2.79859 3.30542 2.90906 3.15812 2.98606L0.911771 3.61878C0.362743 3.8933 0.362743 4.67335 0.911771 4.94786L3.15812 5.58058C3.30543 5.64754 3.4159 5.76806 3.49289 5.91536Z" fill="url(#paint2_linear_1797_795)"/>
<defs>
<linearGradient id="paint0_linear_1797_795" x1="24.5" y1="-0.00683594" x2="24.5" y2="48.0069" gradientUnits="userSpaceOnUse">
<stop stop-color="#049E76"/>
<stop offset="1" stop-color="white"/>
</linearGradient>
<linearGradient id="paint1_linear_1797_795" x1="24.5" y1="-0.00683594" x2="24.5" y2="48.0069" gradientUnits="userSpaceOnUse">
<stop stop-color="#049E76"/>
<stop offset="1" stop-color="white"/>
</linearGradient>
<linearGradient id="paint2_linear_1797_795" x1="24.5" y1="-0.00683594" x2="24.5" y2="48.0069" gradientUnits="userSpaceOnUse">
<stop stop-color="#049E76"/>
<stop offset="1" stop-color="white"/>
</linearGradient>
</defs>
</svg>
