<svg width="48" height="48" viewBox="0 0 48 48" fill="none" xmlns="http://www.w3.org/2000/svg">
<path d="M5.13689 47.9999H42.8564C45.6928 47.9999 48 45.7718 48 43.0328V4.95163C48 3.03076 46.8346 1.26835 45.0431 0.456641C43.2683 -0.34534 41.075 -0.0736965 39.5647 1.13574L26.5249 11.6263L19.1176 8.64468C17.4634 7.97529 15.3705 8.25663 13.964 9.32378L1.96236 18.4301C0.709985 19.3808 0 20.7973 0 22.3366V43.0329C0 45.7719 2.30724 48 5.14357 48L5.13689 47.9999ZM29.1402 44.6885H16.9071C17.0544 44.4492 17.1382 44.1678 17.1382 43.8703V29.7323L28.2826 33.9201C28.5572 34.0268 28.8485 34.0947 29.1398 34.1529V44.6914L29.1402 44.6885ZM44.5709 43.0328C44.5709 43.9448 43.8008 44.6885 42.8564 44.6885H32.5693V33.7517C32.9108 33.5933 33.2457 33.4025 33.5538 33.1729L44.5713 24.9041L44.5709 43.0328ZM3.42236 22.3365C3.42236 21.8223 3.66347 21.3502 4.08205 21.0365L16.0837 11.9302C16.365 11.7135 16.7602 11.5906 17.172 11.5906C17.3964 11.5906 17.6174 11.6327 17.8049 11.707L25.2122 14.6886C26.3943 15.1672 27.7404 14.97 28.7283 14.1745L41.7681 3.68392C42.247 3.29587 43.0273 3.20532 43.5932 3.46079C44.1926 3.73242 44.5776 4.32101 44.5776 4.95804V20.7129L31.4538 30.5627C30.9147 30.9669 30.178 31.0768 29.535 30.8343L17.7142 26.3975C16.1638 25.8187 14.4559 25.9512 13.026 26.7629L3.4324 32.2086V22.339L3.42236 22.3365ZM3.42236 36.0474L13.7095 30.2104V43.8798C13.7095 44.1774 13.7966 44.4587 13.9406 44.698H5.13649C4.19212 44.698 3.42196 43.9542 3.42196 43.0423L3.42236 36.0474Z" fill="url(#paint0_linear_1797_631)"/>
<defs>
<linearGradient id="paint0_linear_1797_631" x1="24" y1="0" x2="24" y2="48" gradientUnits="userSpaceOnUse">
<stop stop-color="#049E76"/>
<stop offset="1" stop-color="white"/>
</linearGradient>
</defs>
</svg>
