<svg width="17" height="16" viewBox="0 0 17 16" fill="none" xmlns="http://www.w3.org/2000/svg">
<g id="Layer_1" clip-path="url(#clip0_1815_27203)">
<path id="Vector" fill-rule="evenodd" clip-rule="evenodd" d="M4.04757 6.11656C4.40683 6.11656 4.75801 6.21883 5.05672 6.41043C5.35542 6.60204 5.58824 6.87437 5.72572 7.193C5.86319 7.51163 5.89917 7.86224 5.82908 8.20049C5.75899 8.53875 5.586 8.84946 5.33197 9.09332C5.07794 9.33719 4.75429 9.50327 4.40194 9.57055C4.04959 9.63783 3.68437 9.6033 3.35247 9.47132C3.02056 9.33934 2.73688 9.11584 2.53729 8.82908C2.3377 8.54232 2.23117 8.20519 2.23117 7.86031C2.23168 7.39798 2.42321 6.95474 2.76374 6.62783C3.10427 6.30092 3.56599 6.11704 4.04757 6.11656ZM13.2787 1.00009C13.638 1.00002 13.9892 1.10223 14.2879 1.2938C14.5867 1.48536 14.8196 1.75767 14.9571 2.0763C15.0946 2.39492 15.1306 2.74554 15.0606 3.08382C14.9906 3.42209 14.8176 3.73283 14.5636 3.97673C14.3096 4.22064 13.9859 4.38675 13.6335 4.45406C13.2812 4.52137 12.916 4.48686 12.584 4.35489C12.2521 4.22292 11.9684 3.99941 11.7688 3.71265C11.5692 3.42588 11.4626 3.08873 11.4626 2.74384C11.4632 2.28158 11.6547 1.8384 11.9951 1.5115C12.3356 1.1846 12.7972 1.00068 13.2787 1.00009ZM13.2787 11.5129C13.638 11.5129 13.9892 11.6151 14.288 11.8067C14.5867 11.9982 14.8196 12.2706 14.9571 12.5892C15.0946 12.9079 15.1306 13.2585 15.0606 13.5968C14.9905 13.9351 14.8175 14.2458 14.5634 14.4897C14.3094 14.7336 13.9857 14.8997 13.6333 14.9669C13.2809 15.0342 12.9157 14.9997 12.5838 14.8676C12.2519 14.7356 11.9682 14.5121 11.7686 14.2252C11.5691 13.9384 11.4626 13.6012 11.4626 13.2563C11.4633 12.7941 11.6548 12.3511 11.9952 12.0242C12.3357 11.6974 12.7972 11.5135 13.2787 11.513L13.2787 11.5129ZM4.04757 10.6038C4.79337 10.6043 5.5096 10.3239 6.04237 9.82287L10.5847 12.3407C10.3448 12.9871 10.3652 13.6962 10.6419 14.3289C10.9186 14.9616 11.4315 15.4723 12.0802 15.7606C12.7288 16.0489 13.4662 16.0941 14.1478 15.8874C14.8294 15.6806 15.4058 15.2368 15.7641 14.643C16.1224 14.0493 16.2366 13.3484 16.0843 12.6779C15.932 12.0075 15.5242 11.4159 14.941 11.0192C14.3577 10.6225 13.6411 10.4494 12.9318 10.5338C12.2224 10.6182 11.5715 10.9541 11.1068 11.4755L6.64559 9.00265C6.95499 8.35464 6.98939 7.61644 6.74152 6.94449L11.1068 4.5249C11.5688 5.04191 12.2153 5.3746 12.9195 5.45774C13.6238 5.54089 14.335 5.36849 14.9137 4.97435C15.4924 4.58022 15.8969 3.99277 16.0479 3.32718C16.1988 2.6616 16.0853 1.96588 15.7297 1.37645C15.374 0.787014 14.8019 0.346372 14.1253 0.140917C13.4488 -0.0645382 12.7168 -0.0199875 12.0727 0.265834C11.4286 0.551656 10.919 1.05813 10.6437 1.68596C10.3684 2.31379 10.3474 3.01769 10.5847 3.65965L6.21945 6.07909C5.90806 5.72915 5.50996 5.46004 5.06181 5.29656C4.61365 5.13308 4.12986 5.08048 3.65497 5.1436C3.18008 5.20672 2.72937 5.38353 2.34435 5.65775C1.95932 5.93197 1.65235 6.29479 1.45172 6.71279C1.25108 7.13078 1.16322 7.59052 1.19624 8.04967C1.22925 8.50882 1.38207 8.95261 1.64063 9.34018C1.89919 9.72775 2.25517 10.0466 2.67579 10.2675C3.09642 10.4883 3.56816 10.604 4.04757 10.6039V10.6038Z" fill="white"/>
</g>
<defs>
<clipPath id="clip0_1815_27203">
<rect width="16.6667" height="16" fill="white" transform="translate(0.333984)"/>
</clipPath>
</defs>
</svg>
