<svg width="24" height="24" viewBox="0 0 24 24" fill="none" xmlns="http://www.w3.org/2000/svg">
<g clip-path="url(#clip0_7_2)">
<path d="M2.53991 22L3.5544 17.305C2.25048 15.255 1.74182 12.8012 2.12385 10.404C2.50588 8.00675 3.75234 5.83084 5.62938 4.2845C7.50642 2.73816 9.88503 1.92766 12.3189 2.00507C14.7528 2.08249 17.0748 3.04249 18.8491 4.70497C20.6234 6.36745 21.7282 8.61815 21.9561 11.0348C22.184 13.4514 21.5194 15.8679 20.087 17.8309C18.6547 19.7939 16.5529 21.1684 14.1761 21.6966C11.7993 22.2248 9.31086 21.8704 7.17758 20.6999L2.53991 22Z" stroke="white"/>
<path d="M14.4984 13.894C14.2929 13.7458 14.0875 13.6717 13.882 13.9681L13.0602 15.1536C12.8548 15.3018 12.7178 15.3759 12.4439 15.2277C11.4166 14.6349 9.97849 13.9681 8.74579 11.7452C8.67731 11.4488 8.81427 11.3006 8.95124 11.1524L9.56759 10.115C9.70456 9.96684 9.63607 9.81865 9.56759 9.67045L8.74579 7.52164C8.54034 6.92887 8.33489 7.00296 8.12944 7.00296H7.58157C7.44461 7.00296 7.17067 7.07706 6.89674 7.37345C5.3901 9.00358 6.00646 11.3006 7.10219 12.7825C7.30764 13.0789 8.67731 15.7464 11.6221 17.1542C13.8136 18.1916 14.2929 18.0434 14.9093 17.8952C15.6626 17.8211 16.4159 17.1542 16.7583 16.4874C16.8268 16.2651 17.1692 15.3018 16.8953 15.1536" fill="white"/>
</g>
<defs>
<clipPath id="clip0_7_2">
<rect width="24" height="24" fill="white"/>
</clipPath>
</defs>
</svg>
