<?xml version="1.0" encoding="UTF-8"?>
<svg id="Layer_2" data-name="Layer 2" xmlns="http://www.w3.org/2000/svg" viewBox="0 0 1067.31 266.36">
  <defs>
    <style>
      .cls-1 {
        fill: #363636;
      }

      .cls-2 {
        fill: #6e5faa;
      }
    </style>
  </defs>
  <g id="Layer_1-2" data-name="Layer 1">
    <g>
      <path class="cls-2" d="M0,103.66v-49.03c0-5.64,4.57-10.22,10.22-10.22h49.03c9.1,0,13.66,11.01,7.23,17.44l-49.03,49.03c-6.44,6.44-17.44,1.88-17.44-7.23Z"/>
      <path class="cls-2" d="M147.78,177.77l70.77,70.77c6.44,6.44,1.88,17.44-7.23,17.44h-70.77c-5.64,0-10.22-4.57-10.22-10.22v-70.77c0-9.1,11.01-13.66,17.44-7.23Z"/>
      <path class="cls-2" d="M0,255.74v-76.76c0-2.71,1.08-5.31,2.99-7.23L127.35,47.41c1.92-1.92,4.52-2.99,7.23-2.99h76.76c9.1,0,13.66,11.01,7.23,17.44L17.44,262.97c-6.44,6.44-17.44,1.88-17.44-7.23Z"/>
      <g>
        <path class="cls-1" d="M312.15,101.19h1.11c13.02-20.46,30.51-31.25,56.55-31.25,39.43,0,65.84,29.76,65.84,71.42v124.62h-50.59v-117.18c0-20.46-11.91-34.97-33.11-34.97-22.32,0-38.69,17.86-38.69,43.9v108.25h-50.59V75.14h49.48v26.04Z"/>
        <path class="cls-1" d="M466.9,0h50.59v45.39h-50.59V0ZM466.9,75.14h50.59v190.84h-50.59V75.14Z"/>
        <path class="cls-1" d="M539.07,75.14h26.41V15.62h49.48v59.52h32.74v33.48h-32.74v101.18c0,14.14,7.81,18.97,18.97,18.97,6.32,0,14.88-.37,14.88-.37v37.2s-11.53.75-31.62.75c-24.55,0-51.71-9.67-51.71-45.76v-111.97h-26.41v-33.48Z"/>
        <path class="cls-1" d="M722.47,105.65h1.12c11.53-21.58,24.55-32.74,46.87-32.74,5.58,0,8.93.37,11.91,1.49v44.27h-1.12c-33.11-3.35-56.92,14.14-56.92,54.31v93h-50.59V75.14h48.73v30.5Z"/>
        <path class="cls-1" d="M804.31,0h50.59v45.39h-50.59V0ZM804.31,75.14h50.59v190.84h-50.59V75.14Z"/>
        <path class="cls-1" d="M943.81,164.8l-62.13-89.65h57.66l33.85,54.69h.75l31.99-54.69h52.45l-59.15,89.28,68.08,101.56h-60.26l-35.34-63.24h-.74l-41.29,63.24h-55.43l69.57-101.19Z"/>
      </g>
    </g>
  </g>
</svg>