<svg width="156" height="29" viewBox="0 0 156 29" fill="none" xmlns="http://www.w3.org/2000/svg">
<path d="M0.0566406 0.0695972H7.1021L11.3918 14.4295C12.0047 16.4973 12.657 19.257 12.657 19.257H12.7321C12.7321 19.257 13.4201 16.4618 13.9973 14.4295L18.2475 0.0695972H25.1032L16.1046 27.4531H9.09476L0.0566406 0.0695972Z" fill="black"/>
<path d="M39.6979 22.0109C41.9199 22.0109 43.2997 20.7457 43.2997 18.7926C43.2997 16.6101 41.6905 15.4991 39.6228 15.4991H33.6488V22.0109H39.6979ZM39.1602 10.9049C41.1133 10.9049 42.4536 9.94806 42.4536 8.14911C42.4536 6.42529 41.1924 5.42895 39.1997 5.42895H33.6488V10.9049H39.1602ZM26.9473 0.0676861H40.1565C42.9913 0.0676861 45.0986 0.755634 46.5536 1.94175C48.1232 3.24648 48.9258 5.00589 48.9258 7.18835C48.9258 9.90852 47.5104 11.6323 45.0986 12.5496V12.6682C48.0836 13.5855 50.0012 16.1119 50.0012 19.3698C50.0012 22.1255 49.0049 24.1182 47.2059 25.4941C45.5968 26.7593 43.3353 27.4473 40.4649 27.4473H26.9473V0.0676861Z" fill="black"/>
<path d="M52.2578 7.84072H58.2318V10.9049H58.3465C59.7263 8.5682 61.3355 7.53233 63.7077 7.53233C64.281 7.53233 64.6645 7.57186 64.9333 7.68652V13.0478H64.7791C60.952 12.514 58.5007 14.3881 58.5007 18.6423V27.4473H52.2578V7.84072Z" fill="black"/>
<path d="M78.0676 20.4391V18.1025C77.265 18.5255 76.1145 18.83 74.8493 19.1384C72.4376 19.6721 71.4412 20.2849 71.4412 21.7794C71.4412 23.3491 72.5918 23.9619 74.1218 23.9619C76.4585 23.9619 78.0676 22.5465 78.0676 20.4391ZM65.4316 21.9692C65.4316 17.6438 68.8753 16.3431 72.9357 15.8054C76.6127 15.3467 77.9134 14.9632 77.9134 13.6229C77.9134 12.3577 77.1108 11.5156 75.2328 11.5156C73.2441 11.5156 72.2478 12.3972 72.0541 14.042H66.3094C66.4636 10.4046 69.2588 7.30484 75.1972 7.30484C78.1427 7.30484 80.1354 7.83859 81.5508 8.91006C83.239 10.1357 84.0416 12.0533 84.0416 14.5046V24.385C84.0416 25.9546 84.1958 26.8363 84.7296 27.1802V27.6903H77.9529V25.2627C76.8024 26.9114 75.0786 27.9473 72.1331 27.9473C68.2269 27.9473 65.4316 25.8399 65.4316 21.9692Z" fill="black"/>
<path d="M87.0684 7.84072H93.0819V10.5214H93.1966C94.6515 8.41401 96.5256 7.26743 99.2457 7.26743C103.535 7.26743 106.062 10.3316 106.062 14.6965V27.4473H99.819V15.9577C99.819 13.8899 98.7871 12.4745 96.7588 12.4745C94.6911 12.4745 93.3112 14.1983 93.3112 16.6101V27.4473H87.0684V7.84072Z" fill="black"/>
<path d="M122.338 17.6405C122.338 14.3471 120.998 11.9709 118.277 11.9709C115.791 11.9709 114.336 14.2719 114.336 17.5654C114.336 20.9735 115.791 23.1164 118.202 23.1164C120.808 23.1164 122.338 20.8589 122.338 17.6405ZM108.014 17.6405C108.014 11.5122 111.536 7.26198 116.593 7.26198C119.349 7.26198 120.922 8.41251 122.069 10.0573H122.184V0.0622368H128.427V27.4458H122.453V24.8007H122.377C121.187 26.8329 119.159 28.0586 116.593 28.0586C111.576 28.0586 108.014 24.1879 108.014 17.6405Z" fill="black"/>
<path d="M146.371 15.9516C146.231 16.2942 146.056 16.6264 145.845 16.9479L144.694 18.6994L142.682 21.7596L140.179 25.571C139.471 26.6504 138.289 27.3225 137 27.3739L131.323 27.627L138.997 15.9555L139.151 15.7223C140.005 14.4175 139.934 12.7095 138.961 11.4878L138.882 11.389L130.137 0.306688L135.814 0.0615559C137.099 0.00620461 138.337 0.575542 139.135 1.58374L142.682 6.07913L144.232 8.04018L145.532 9.68493C145.946 10.2121 146.265 10.7788 146.489 11.385C147.023 12.8558 146.995 14.4927 146.371 15.9516Z" fill="#229E79"/>
<path d="M155.943 27.627L150.269 27.3779C148.977 27.3225 147.798 26.6504 147.091 25.571L144.58 21.7596L146.593 18.7034L147.743 16.9479C147.954 16.6316 148.129 16.2995 148.269 15.9516L155.943 27.627Z" fill="#229E79"/>
<ellipse cx="149.219" cy="4.6678" rx="4.46657" ry="4.46663" fill="#049E76"/>
</svg>
