<svg width="335" height="61" viewBox="0 0 335 61" fill="none" xmlns="http://www.w3.org/2000/svg">
<path d="M0 0.0791473H15.0973L24.2896 30.8503C25.6027 35.2813 27.0006 41.1949 27.0006 41.1949H27.1616C27.1616 41.1949 28.6357 35.205 29.8727 30.8503L38.9802 0.0791473H53.6708L34.3883 58.7578H19.3673L0 0.0791473Z" fill="white"/>
<path d="M84.9437 47.0948C89.705 47.0948 92.6618 44.3837 92.6618 40.1984C92.6618 35.5218 89.2136 33.1411 84.7827 33.1411H71.9813V47.0948H84.9437ZM83.7915 23.2963C87.9767 23.2963 90.8487 21.246 90.8487 17.3912C90.8487 13.6973 88.1461 11.5623 83.8762 11.5623H71.9813V23.2963H83.7915ZM57.6211 0.0739326H85.9264C92.0009 0.0739326 96.5166 1.5481 99.6343 4.08977C102.998 6.88561 104.718 10.6558 104.718 15.3324C104.718 21.1613 101.685 24.8552 96.5166 26.8208V27.0749C102.913 29.0405 107.022 34.4543 107.022 41.4354C107.022 47.3405 104.887 51.6105 101.032 54.5589C97.5841 57.27 92.738 58.7441 86.5873 58.7441H57.6211V0.0739326Z" fill="white"/>
<path d="M111.859 16.7303H124.661V23.2963H124.906C127.863 18.2892 131.311 16.0695 136.395 16.0695C137.623 16.0695 138.445 16.1542 139.021 16.3999V27.8883H138.691C130.49 26.7445 125.237 30.7604 125.237 39.8765V58.7441H111.859V16.7303Z" fill="white"/>
<path d="M167.167 43.7296V38.7225C165.447 39.629 162.981 40.2814 160.27 40.9422C155.102 42.086 152.967 43.3992 152.967 46.6017C152.967 49.9652 155.433 51.2783 158.712 51.2783C163.719 51.2783 167.167 48.2453 167.167 43.7296ZM140.09 47.0083C140.09 37.7397 147.469 34.9524 156.17 33.8001C164.049 32.8174 166.836 31.9956 166.836 29.1235C166.836 26.4124 165.116 24.6078 161.092 24.6078C156.831 24.6078 154.696 26.4971 154.281 30.0215H141.971C142.301 22.2271 148.291 15.5848 161.016 15.5848C167.328 15.5848 171.598 16.7286 174.631 19.0246C178.248 21.651 179.968 25.76 179.968 31.0128V52.1849C179.968 55.5484 180.298 57.4377 181.442 58.1747V59.2677H166.921V54.0657C164.456 57.5986 160.762 59.8184 154.45 59.8184C146.08 59.8184 140.09 55.3027 140.09 47.0083Z" fill="white"/>
<path d="M186.453 16.7303H199.339V22.4745H199.585C202.703 17.9588 206.718 15.5019 212.547 15.5019C221.739 15.5019 227.153 22.0679 227.153 31.4212V58.7441H213.776V34.1238C213.776 29.6929 211.564 26.6598 207.218 26.6598C202.787 26.6598 199.831 30.3537 199.831 35.5218V58.7441H186.453V16.7303Z" fill="white"/>
<path d="M262.03 37.7343C262.03 30.6769 259.158 25.5851 253.33 25.5851C248.001 25.5851 244.883 30.5159 244.883 37.5733C244.883 44.8764 248.001 49.4683 253.169 49.4683C258.752 49.4683 262.03 44.6307 262.03 37.7343ZM231.336 37.7343C231.336 24.6023 238.885 15.4947 249.72 15.4947C255.625 15.4947 258.997 17.9601 261.454 21.4845H261.7V0.0667305H275.077V58.7454H262.276V53.0775H262.115C259.565 57.4322 255.219 60.0586 249.72 60.0586C238.969 60.0586 231.336 51.7643 231.336 37.7343Z" fill="white"/>
<path d="M313.529 34.1163C313.229 34.8505 312.854 35.5622 312.402 36.2513L309.937 40.0045L305.624 46.562L300.261 54.7292C298.745 57.0421 296.212 58.4824 293.45 58.5925L281.284 59.1348L297.728 34.1247L298.059 33.6249C299.889 30.829 299.736 27.169 297.652 24.5511L297.483 24.3393L278.742 0.591663L290.908 0.0663834C293.662 -0.052227 296.313 1.16777 298.025 3.32819L305.624 12.9611L308.945 17.1633L311.733 20.6878C312.619 21.8174 313.303 23.0318 313.783 24.3308C314.927 27.4825 314.867 30.99 313.529 34.1163Z" fill="#229E79"/>
<path d="M334.04 59.1348L321.883 58.601C319.112 58.4824 316.588 57.0421 315.071 54.7292L309.691 46.562L314.004 40.0129L316.469 36.2513C316.921 35.5735 317.297 34.8618 317.596 34.1163L334.04 59.1348Z" fill="#229E79"/>
<ellipse cx="319.63" cy="9.93067" rx="9.57116" ry="9.57129" fill="#049E76"/>
</svg>
