<svg xmlns="http://www.w3.org/2000/svg" xmlns:xlink="http://www.w3.org/1999/xlink" width="170" height="40" viewBox="0 0 170 40">
  <defs>
    <clipPath id="clip-valoriz-logo-white">
      <rect width="170" height="40"/>
    </clipPath>
  </defs>
  <g id="valoriz-logo-white" clip-path="url(#clip-valoriz-logo-white)">
    <g id="Valoriz-logo_2" data-name="Valoriz-logo 2" transform="translate(1 0.444)">
      <path id="Path_1" data-name="Path 1" d="M29.791,34.477a.727.727,0,0,1-.519-.093.744.744,0,0,1-.324-.422l-3.705-9.926a3.905,3.905,0,0,0-1.669-2.1,3.818,3.818,0,0,0-2.613-.507,3.773,3.773,0,0,0-1.31.492L9.406,28.144l-.26.1a.755.755,0,0,1-.387-.035L.492,25.1a.759.759,0,0,1-.337-.253.776.776,0,0,1-.073-.813.763.763,0,0,1,.286-.31L23.983,9.53a4.069,4.069,0,0,1,1.392-.521,4,4,0,0,1,2.769.519,4.092,4.092,0,0,1,1.764,2.225L37.176,33.4a.774.774,0,0,1-.287.877.744.744,0,0,1-.3.123l-6.8.074Z" fill="#049e76"/>
      <path id="Path_2" data-name="Path 2" d="M26.089,39.43a1.043,1.043,0,0,1-.539-.055L9.558,33.367a1.047,1.047,0,0,1-.468-.349,1.074,1.074,0,0,1-.1-1.127,1.056,1.056,0,0,1,.4-.431l11.668-7.038a1.051,1.051,0,0,1,.362-.135,1.015,1.015,0,0,1,.717.131,1.039,1.039,0,0,1,.451.58l4.327,13.043a1.065,1.065,0,0,1-.818,1.39Z" fill="#049e76"/>
      <path id="Path_3" data-name="Path 3" d="M36.891,10.093h6.43l3.816,12.564c.7,2.313,1.072,3.873,1.072,3.873h.1s.324-1.56,1.025-3.873l3.911-12.564h6.332L51.236,34.32H45.177L36.888,10.093Z" fill="#fff"/>
      <path id="Path_4" data-name="Path 4" d="M71.247,9.481c-6.973,0-10.11,3.728-10.269,7.971H66.59c.19-2.313,1.65-3.406,4.628-3.406,2.662,0,3.994,1.158,3.994,2.892,0,1.833-1.808,2.184-5.77,2.731-5.326.772-9.6,2.473-9.6,7.81,0,4.822,3.454,7.424,8.337,7.424,4.121,0,5.831-1.447,7.036-3.278h.1a6.837,6.837,0,0,0,.761,2.7h5.263V18.414c0-5.69-2.884-8.936-10.078-8.936Zm4.121,16.295c0,2.345-2.027,4.629-5.644,4.629-2.249,0-3.74-.8-3.74-3.085s1.65-3.02,4.946-3.76a19.044,19.044,0,0,0,4.438-1.415Z" fill="#fff"/>
      <path id="Path_5" data-name="Path 5" d="M85.406.556h6.335V34.32H85.406Z" fill="#fff"/>
      <path id="Path_6" data-name="Path 6" d="M94.759,22.232c0-7.224,5.076-12.8,12.48-12.8s12.483,5.571,12.483,12.8-5.077,12.8-12.483,12.8S94.759,29.456,94.759,22.232Zm18.539,0c0-4.722-2.192-7.935-6.059-7.935s-6.056,3.213-6.056,7.935,2.144,7.887,6.056,7.887S113.3,26.954,113.3,22.232Z" fill="#fff"/>
      <path id="Path_7" data-name="Path 7" d="M128.748,13.965h.14c1.446-2.74,3.073-4.156,5.869-4.156a4.084,4.084,0,0,1,1.49.19v5.623h-.139c-4.15-.428-7.129,1.792-7.129,6.9v11.8h-6.331V10.093h6.1Z" fill="#fff"/>
      <path id="Path_8" data-name="Path 8" d="M138.991,10.093h6.332V34.32h-6.332Zm6.792-5.864a3.711,3.711,0,0,1-.611,2.041,3.631,3.631,0,0,1-1.625,1.353,3.586,3.586,0,0,1-3.948-.8,3.7,3.7,0,0,1,.549-5.652,3.584,3.584,0,0,1,4.574.457A3.7,3.7,0,0,1,145.783,4.229Z" fill="#fff"/>
      <path id="Path_9" data-name="Path 9" d="M148.629,29.408l12.3-14.121v-.141h-10.9V10.093h18.255v5.146L156.268,29.032v.141H168.89V34.32H148.629Z" fill="#fff"/>
    </g>
  </g>
</svg>
