<svg width="32" height="33" viewBox="0 0 32 33" fill="none" xmlns="http://www.w3.org/2000/svg">
<g clip-path="url(#clip0_1668_2918)">
<path d="M27.2858 5.00719C24.2909 2.01018 20.3085 0.358762 16.0655 0.356934C7.32225 0.356934 0.206983 7.46993 0.203483 16.2128C0.202464 19.0075 0.932682 21.7356 2.32063 24.1403L0.0703125 32.3569L8.47897 30.1521C10.7957 31.4155 13.4042 32.0813 16.0587 32.0824H16.0655H16.0655C24.8074 32.0824 31.9237 24.9681 31.9275 16.2257C31.9289 11.9885 30.2804 8.00442 27.2858 5.00719ZM16.0655 29.4043H16.0604C13.6943 29.403 11.374 28.7678 9.35019 27.5669L8.86855 27.2814L3.87868 28.5896L5.21091 23.7263L4.8971 23.2277C3.57728 21.1292 2.88053 18.704 2.88152 16.2138C2.88442 8.94703 8.79836 3.03516 16.0705 3.03516C19.5921 3.03662 22.9019 4.40928 25.3913 6.90031C27.8804 9.39132 29.2502 12.7028 29.2492 16.2245C29.2461 23.4916 23.3319 29.4043 16.0655 29.4043Z" fill="#E0E0E0"/>
<path d="M0.800781 31.4453L2.94831 23.604C1.62342 21.3091 0.92669 18.7055 0.927526 16.0389C0.931 7.6956 7.72131 0.907715 16.0645 0.907715C20.1138 0.909543 23.9144 2.48544 26.7719 5.34563C29.63 8.20579 31.203 12.0076 31.2014 16.0508C31.1979 24.3943 24.4072 31.1828 16.0651 31.1828C16.0645 31.1828 16.0655 31.1828 16.0651 31.1828H16.0583C13.5251 31.182 11.0359 30.5461 8.82518 29.3412L0.800781 31.4453Z" fill="url(#paint0_linear_1668_2918)"/>
<path fill-rule="evenodd" clip-rule="evenodd" d="M12.1462 9.48105C11.8527 8.8286 11.5437 8.81554 11.2645 8.80412C11.0362 8.79433 10.7748 8.79493 10.5137 8.79493C10.2525 8.79493 9.82804 8.8931 9.46907 9.28514C9.10989 9.67718 8.09766 10.6249 8.09766 12.5524C8.09766 14.4802 9.50172 16.3428 9.69743 16.6044C9.89334 16.8656 12.4078 20.9476 16.39 22.518C19.6995 23.8231 20.373 23.5635 21.0914 23.4982C21.8097 23.4329 23.4093 22.5507 23.7358 21.6358C24.0623 20.7211 24.0623 19.937 23.9644 19.7731C23.8664 19.6099 23.6052 19.5119 23.2134 19.316C22.8215 19.1201 20.8955 18.1721 20.5363 18.0415C20.1771 17.9109 19.9159 17.8456 19.6547 18.2379C19.3934 18.6297 18.643 19.5119 18.4145 19.7731C18.1859 20.035 17.9573 20.0676 17.5655 19.8717C17.1737 19.6752 15.9118 19.2619 14.4149 17.9272C13.2502 16.8889 12.4639 15.6064 12.2353 15.2142C12.0068 14.8224 12.2108 14.6101 12.4074 14.4148C12.5833 14.2393 12.7992 13.9575 12.9951 13.7287C13.1906 13.4999 13.2559 13.3366 13.3865 13.0754C13.5172 12.8138 13.4519 12.585 13.3539 12.3891C13.2559 12.1932 12.4945 10.2557 12.1462 9.48105Z" fill="white"/>
<path d="M27.157 4.95675C24.1964 1.99414 20.2598 0.361718 16.0655 0.359863C7.4226 0.359863 0.38901 7.3912 0.385536 16.0337C0.384517 18.7964 1.10635 21.4931 2.47836 23.8702L0.253906 31.9925L8.56604 29.8129C10.8562 31.0619 13.4348 31.7201 16.0588 31.7211H16.0655H16.0655C24.707 31.7211 31.7417 24.6885 31.7453 16.0464C31.7468 11.8579 30.1172 7.91958 27.157 4.95675ZM16.0655 29.0738H16.0604C13.7215 29.0726 11.4278 28.4446 9.42726 27.2575L8.95113 26.9752L4.01855 28.2685L5.33547 23.461L5.02527 22.9682C3.7206 20.8937 3.03184 18.4964 3.03285 16.0348C3.0357 8.8514 8.88175 3.00739 16.0705 3.00739C19.5516 3.00883 22.8234 4.36574 25.2842 6.82817C27.7448 9.29059 29.0989 12.564 29.0978 16.0454C29.0948 23.229 23.2485 29.0738 16.0655 29.0738Z" fill="white"/>
</g>
<defs>
<linearGradient id="paint0_linear_1668_2918" x1="16.0011" y1="31.4453" x2="16.0011" y2="0.907766" gradientUnits="userSpaceOnUse">
<stop stop-color="#20B038"/>
<stop offset="1" stop-color="#60D66A"/>
</linearGradient>
<clipPath id="clip0_1668_2918">
<rect width="31.8592" height="32" fill="white" transform="translate(0.0703125 0.356934)"/>
</clipPath>
</defs>
</svg>
