<svg width="81" height="24" viewBox="0 0 81 24" fill="none" xmlns="http://www.w3.org/2000/svg">
<g id="Frame">
<g id="Group">
<path id="Vector" d="M19.8036 10.7341C16.015 8.48414 9.76573 8.27726 6.14902 9.37508C5.56811 9.55122 4.95394 9.22337 4.77808 8.64259C4.60194 8.0614 4.92952 7.44765 5.51071 7.27108C9.66257 6.01087 16.5642 6.25438 20.9257 8.84344C21.4483 9.15347 21.6196 9.82814 21.3099 10.3497C21 10.8721 20.3247 11.0443 19.8036 10.7341ZM19.6796 14.0666C19.4139 14.4979 18.8499 14.633 18.4192 14.3683C15.2606 12.4269 10.444 11.8643 6.7072 12.9987C6.22271 13.1452 5.71085 12.8719 5.56362 12.3883C5.41766 11.9036 5.69092 11.3928 6.17471 11.2454C10.4435 9.94996 15.7503 10.5773 19.3781 12.8068C19.8088 13.0721 19.9444 13.6363 19.6796 14.0666ZM18.2414 17.267C18.0303 17.6133 17.5792 17.7219 17.2342 17.5108C14.4741 15.8239 11.0001 15.4429 6.90888 16.3775C6.51464 16.4679 6.12166 16.2207 6.03183 15.8266C5.94145 15.4323 6.18762 15.0395 6.58271 14.9495C11.0599 13.9261 14.9005 14.3665 17.9984 16.2596C18.3438 16.4705 18.4526 16.9218 18.2414 17.267ZM12.8511 0.314453C6.35997 0.314453 1.09766 5.57663 1.09766 12.0677C1.09766 18.5594 6.35997 23.8213 12.8511 23.8213C19.3426 23.8213 24.6046 18.5594 24.6046 12.0677C24.6046 5.57663 19.3426 0.314453 12.8511 0.314453Z" fill="#1ED760"/>
<path id="Vector_2" d="M33.0743 11.1645C31.045 10.6805 30.6836 10.3408 30.6836 9.62728C30.6836 8.95304 31.3185 8.49928 32.2625 8.49928C33.1776 8.49928 34.0848 8.84398 35.0363 9.55332C35.0651 9.57465 35.1011 9.58335 35.1366 9.57774C35.1721 9.5724 35.2034 9.5529 35.2244 9.52356L36.2152 8.12679C36.2559 8.06925 36.2448 7.98995 36.19 7.94602C35.0578 7.03739 33.7828 6.5957 32.2926 6.5957C30.1014 6.5957 28.5709 7.91065 28.5709 9.79205C28.5709 11.8097 29.8912 12.524 32.1727 13.0754C34.1146 13.5227 34.4423 13.8975 34.4423 14.5674C34.4423 15.3097 33.7796 15.7711 32.7131 15.7711C31.5286 15.7711 30.5623 15.3721 29.4815 14.4361C29.4547 14.4131 29.4179 14.4024 29.3839 14.4044C29.3483 14.4074 29.3156 14.4239 29.2928 14.4513L28.1818 15.7735C28.1352 15.8284 28.1411 15.9104 28.1949 15.9578C29.4526 17.0805 30.9991 17.6736 32.6681 17.6736C35.0293 17.6736 36.555 16.3834 36.555 14.3866C36.555 12.6991 35.5467 11.7658 33.0743 11.1645Z" fill="#1ED760"/>
<path id="Vector_3" d="M43.6115 13.4272C43.6115 14.8521 42.7337 15.8464 41.4769 15.8464C40.2344 15.8464 39.2971 14.8069 39.2971 13.4272C39.2971 12.0476 40.2344 11.0079 41.4769 11.0079C42.7135 11.0079 43.6115 12.0251 43.6115 13.4272ZM41.8975 9.16406C40.8741 9.16406 40.0346 9.56701 39.3424 10.393V9.46329C39.3424 9.39003 39.2829 9.33024 39.2095 9.33024H37.3925C37.3191 9.33024 37.2598 9.39003 37.2598 9.46329V19.7934C37.2598 19.8668 37.3191 19.9266 37.3925 19.9266H39.2095C39.2829 19.9266 39.3424 19.8668 39.3424 19.7934V16.5328C40.0348 17.3097 40.8744 17.6893 41.8975 17.6893C43.7991 17.6893 45.7242 16.2254 45.7242 13.4272C45.7242 10.6282 43.7991 9.16406 41.8975 9.16406Z" fill="#1ED760"/>
<path id="Vector_4" d="M50.6586 15.8613C49.356 15.8613 48.374 14.8147 48.374 13.4272C48.374 12.0337 49.322 11.0224 50.6286 11.0224C51.9396 11.0224 52.9282 12.069 52.9282 13.4575C52.9282 14.8508 51.9737 15.8613 50.6586 15.8613ZM50.6586 9.16406C48.2096 9.16406 46.291 11.0498 46.291 13.4575C46.291 15.8391 48.1964 17.7051 50.6286 17.7051C53.0862 17.7051 55.0107 15.8257 55.0107 13.4272C55.0107 11.0365 53.0994 9.16406 50.6586 9.16406Z" fill="#1ED760"/>
<path id="Vector_5" d="M60.2408 9.32989H58.2412V7.2854C58.2412 7.21213 58.182 7.15234 58.1086 7.15234H56.2917C56.2182 7.15234 56.1584 7.21213 56.1584 7.2854V9.32989H55.2847C55.2114 9.32989 55.1523 9.38968 55.1523 9.46294V11.0246C55.1523 11.098 55.2114 11.1578 55.2847 11.1578H56.1584V15.1987C56.1584 16.8316 56.9712 17.6596 58.5741 17.6596C59.2259 17.6596 59.7667 17.525 60.2763 17.236C60.3177 17.2128 60.3435 17.1682 60.3435 17.1208V15.6336C60.3435 15.5877 60.3195 15.5445 60.2803 15.5203C60.2408 15.4955 60.1915 15.4942 60.1509 15.5143C59.8009 15.6904 59.4625 15.7717 59.0843 15.7717C58.5014 15.7717 58.2412 15.5072 58.2412 14.9139V11.1578H60.2408C60.3142 11.1578 60.3733 11.098 60.3733 11.0246V9.46294C60.3733 9.38968 60.3142 9.32989 60.2408 9.32989Z" fill="#1ED760"/>
<path id="Vector_6" d="M67.2074 9.33771V9.08662C67.2074 8.34795 67.4906 8.01855 68.1258 8.01855C68.5047 8.01855 68.8089 8.09392 69.1497 8.20746C69.1917 8.22066 69.2355 8.21406 69.2696 8.18908C69.3046 8.16395 69.3244 8.12367 69.3244 8.08101V6.54978C69.3244 6.49125 69.2868 6.43932 69.2305 6.4222C68.8705 6.31511 68.4099 6.20508 67.7202 6.20508C66.0418 6.20508 65.1548 7.15034 65.1548 8.93729V9.32185H64.2818C64.2085 9.32185 64.1484 9.38164 64.1484 9.45504V11.0246C64.1484 11.098 64.2085 11.1578 64.2818 11.1578H65.1548V17.3906C65.1548 17.464 65.214 17.5237 65.2872 17.5237H67.1042C67.1776 17.5237 67.2374 17.464 67.2374 17.3906V11.1578H68.934L71.5329 17.3889C71.2378 18.0437 70.9477 18.1739 70.5517 18.1739C70.2315 18.1739 69.8944 18.0783 69.5497 17.8897C69.5173 17.8719 69.479 17.8689 69.4439 17.8797C69.4092 17.8921 69.38 17.9178 69.3653 17.9516L68.7494 19.3028C68.7201 19.3666 68.7451 19.4416 68.8065 19.4747C69.4495 19.8229 70.03 19.9715 70.7472 19.9715C72.0889 19.9715 72.8305 19.3464 73.4844 17.665L76.6369 9.51918C76.6526 9.4782 76.648 9.43189 76.6228 9.39553C76.5978 9.35946 76.5576 9.33771 76.5135 9.33771H74.6218C74.5653 9.33771 74.5145 9.37378 74.4959 9.42697L72.5581 14.962L70.4356 9.42332C70.4162 9.37181 70.3667 9.33771 70.3115 9.33771H67.2074Z" fill="#1ED760"/>
<path id="Vector_7" d="M63.1689 9.33008H61.3518C61.2784 9.33008 61.2188 9.38987 61.2188 9.46313V17.3909C61.2188 17.4643 61.2784 17.5239 61.3518 17.5239H63.1689C63.2422 17.5239 63.302 17.4643 63.302 17.3909V9.46313C63.302 9.38987 63.2422 9.33008 63.1689 9.33008Z" fill="#1ED760"/>
<path id="Vector_8" d="M62.2688 5.7207C61.5491 5.7207 60.9648 6.30344 60.9648 7.0233C60.9648 7.74358 61.5491 8.32702 62.2688 8.32702C62.9884 8.32702 63.572 7.74358 63.572 7.0233C63.572 6.30344 62.9884 5.7207 62.2688 5.7207Z" fill="#1ED760"/>
<path id="Vector_9" d="M78.2613 10.1185H77.9284V10.5431H78.2613C78.4275 10.5431 78.5267 10.4618 78.5267 10.3307C78.5267 10.1926 78.4275 10.1185 78.2613 10.1185ZM78.4772 10.7241L78.8389 11.2307H78.5339L78.2083 10.7661H77.9284V11.2307H77.6731V9.88835H78.2717C78.5834 9.88835 78.7886 10.0479 78.7886 10.3164C78.7886 10.5365 78.6615 10.6709 78.4772 10.7241ZM78.1937 9.44161C77.5387 9.44161 77.0429 9.96231 77.0429 10.5999C77.0429 11.2373 77.5351 11.7509 78.1869 11.7509C78.8418 11.7509 79.338 11.2307 79.338 10.5926C79.338 9.95544 78.8455 9.44161 78.1937 9.44161ZM78.1869 11.8788C77.4678 11.8788 76.9082 11.3013 76.9082 10.5999C76.9082 9.89859 77.4751 9.31445 78.1937 9.31445C78.9127 9.31445 79.4724 9.89186 79.4724 10.5926C79.4724 11.2941 78.906 11.8788 78.1869 11.8788Z" fill="#1ED760"/>
</g>
</g>
</svg>
