<svg width="179" height="56" viewBox="0 0 179 56" fill="none" xmlns="http://www.w3.org/2000/svg">
<g clip-path="url(#clip0_1_156)">
<path d="M0 0H6.07979V33.9935H28.1881V39.2566H0V0Z" fill="#292C7E"/>
<path d="M66.6353 11.4263H72.5066V16.6353C74.6641 12.6019 79.3233 10.8164 83.6383 10.8164C84.5837 10.8164 85.4807 10.8951 86.3485 11.0574V16.6943C85.2673 16.4533 84.1377 16.3451 83.008 16.3451C77.6894 16.3451 72.5066 19.0652 72.5066 25.612V39.2566H66.6353V11.4263Z" fill="#292C7E"/>
<path d="M80.322 25.3167C80.322 16.7433 88.1375 10.5752 98.8523 10.5752C108.51 10.5752 117.223 15.7842 117.276 27.0776H86.6394C87.6139 32.2325 93.0634 35.2231 100.064 35.2231C105.223 35.2231 110.042 33.595 113.145 30.3338L116.461 33.9147C112.515 37.8103 106.75 40.0041 99.7492 40.0041C88.0599 40.0041 80.322 33.8901 80.322 25.3167ZM110.542 22.4048C109.252 17.6533 104.593 15.0611 98.8571 15.0611C93.1216 15.0611 88.2733 17.7025 86.8818 22.4048H110.546H110.542Z" fill="#292C7E"/>
<path d="M118.895 11.4261H124.767V15.8874C126.687 12.9214 131.108 10.6538 137.27 10.6538C143.433 10.6538 148.063 13.0296 150.327 17.2203C153.066 12.7885 158.38 10.6538 164.382 10.6538C173.07 10.6538 178.966 15.5676 178.966 23.8164V39.2514H173.124V25.1789C173.124 18.9321 168.964 15.484 162.487 15.484C156.009 15.484 151.878 18.6419 151.878 24.8887V39.2514H146.007V25.1789C146.007 18.9321 141.847 15.484 135.375 15.484C128.902 15.484 124.767 18.6419 124.767 24.8887V39.2514H118.895V11.4261Z" fill="#292C7E"/>
<path d="M62.9556 47.5347H64.3082L66.8633 54.3717L69.4523 47.5347H70.8098L73.3988 54.3717L75.9539 47.5347H77.3017L74.1552 55.8375H72.7346L70.1311 49.0496L67.5275 55.8375H66.107L62.9556 47.5347Z" fill="#292C7E"/>
<path d="M77.8979 47.5347H85.2819V48.6414H79.1828V51.0713H84.6226V52.1829H79.1828V54.7259H85.2868V55.8375H77.8979V47.5347Z" fill="#292C7E"/>
<path d="M86.5425 47.5347H87.8273V54.7259H93.4804V55.8375H86.5425V47.5347Z" fill="#292C7E"/>
<path d="M94.2805 47.5347H95.5653V54.7259H101.218V55.8375H94.2805V47.5347Z" fill="#292C7E"/>
<path d="M102.018 47.5347H103.303L109.383 54.0717V47.5347H110.668V55.8375H109.383L103.303 49.3005V55.8375H102.018V47.5347Z" fill="#292C7E"/>
<path d="M112.18 47.5347H119.564V48.6414H113.465V51.0713H118.905V52.1829H113.465V54.7259H119.569V55.8375H112.18V47.5347Z" fill="#292C7E"/>
<path d="M120.418 54.2194L121.237 53.3882C122.09 54.3867 123.472 54.913 124.98 54.913C126.488 54.913 127.7 54.4654 127.7 53.5849C127.7 52.7045 126.788 52.3995 125.159 52.2126L123.889 52.0601C121.795 51.8338 120.636 51.1255 120.636 49.7384C120.636 48.253 122.386 47.3774 124.563 47.3774C126.168 47.3774 127.719 47.8841 128.616 48.8678L127.802 49.7138C127.113 48.9023 125.809 48.4596 124.51 48.4596C123.21 48.4596 121.969 48.8481 121.969 49.6647C121.969 50.3582 122.619 50.7419 124.151 50.9042L125.455 51.0616C127.685 51.3174 129.028 51.8929 129.028 53.4816C129.028 55.0704 127.225 56 124.932 56C123.104 56 121.421 55.3753 120.418 54.2194Z" fill="#292C7E"/>
<path d="M129.746 54.2194L130.565 53.3882C131.419 54.3867 132.8 54.913 134.308 54.913C135.816 54.913 137.028 54.4654 137.028 53.5849C137.028 52.7045 136.117 52.3995 134.488 52.2126L133.217 52.0601C131.123 51.8338 129.964 51.1255 129.964 49.7384C129.964 48.253 131.714 47.3774 133.891 47.3774C135.496 47.3774 137.047 47.8841 137.944 48.8678L137.13 49.7138C136.441 48.9023 135.137 48.4596 133.838 48.4596C132.538 48.4596 131.297 48.8481 131.297 49.6647C131.297 50.3582 131.947 50.7419 133.479 50.9042L134.783 51.0616C137.013 51.3174 138.356 51.8929 138.356 53.4816C138.356 55.0704 136.553 56 134.26 56C132.432 56 130.749 55.3753 129.746 54.2194Z" fill="#292C7E"/>
<path d="M141.634 51.6912C141.634 49.1974 143.821 47.3774 146.87 47.3774C148.805 47.3774 150.477 48.0759 151.374 49.2466L150.473 49.9844C149.765 49.0449 148.436 48.4891 146.88 48.4891C144.756 48.4891 143.006 49.7188 143.006 51.6863C143.006 53.6538 144.761 54.8835 146.88 54.8835C148.436 54.8835 149.765 54.3178 150.473 53.3783L151.374 54.1211C150.477 55.2917 148.8 55.9951 146.87 55.9951C143.825 55.9951 141.634 54.1702 141.634 51.6814V51.6912Z" fill="#292C7E"/>
<path d="M155.786 47.5347H157.158L161.556 55.8375H160.135L158.913 53.506H154.017L152.795 55.8375H151.379L155.777 47.5347H155.786ZM158.336 52.3944L156.47 48.8234L154.603 52.3944H158.336Z" fill="#292C7E"/>
<path d="M162.157 47.5347H167.136C169.255 47.5347 170.196 48.5676 170.196 49.9793C170.196 51.3123 169.333 52.3059 167.495 52.419L170.758 55.8375H169.095L165.871 52.4288H163.447V55.8375H162.162V47.5347H162.157ZM167.044 51.3516C168.28 51.3516 168.857 50.8745 168.857 49.9891C168.857 49.1037 168.28 48.6266 167.044 48.6266H163.447V51.3516H167.044Z" fill="#292C7E"/>
<path d="M171.611 47.5347H178.995V48.6414H172.896V51.0713H178.336V52.1829H172.896V54.7259H179V55.8375H171.611V47.5347Z" fill="#292C7E"/>
<path d="M48.8178 40.0827C39.9696 40.0827 32.7747 33.3342 32.7747 25.0314C32.7747 16.7285 39.9696 9.97998 48.8178 9.97998C57.6659 9.97998 64.8608 16.7334 64.8608 25.0314C64.8608 33.3293 57.6659 40.0827 48.8178 40.0827ZM48.8178 11.6474C40.8714 11.6474 34.4134 17.6532 34.4134 25.0363C34.4134 32.4193 40.8762 38.4251 48.8178 38.4251C56.7593 38.4251 63.2221 32.4193 63.2221 25.0363C63.2221 17.6532 56.7593 11.6474 48.8178 11.6474Z" fill="#F29100"/>
<path d="M46.1124 40.0827C37.2642 40.0827 30.0693 33.3342 30.0693 25.0314C30.0693 16.7285 37.2642 9.97998 46.1124 9.97998C54.9606 9.97998 62.1555 16.7334 62.1555 25.0314C62.1555 33.3293 54.9606 40.0827 46.1124 40.0827ZM46.1124 11.6474C38.166 11.6474 31.7081 17.6532 31.7081 25.0363C31.7081 32.4193 38.1709 38.4251 46.1124 38.4251C54.054 38.4251 60.5168 32.4193 60.5168 25.0363C60.5168 17.6532 54.054 11.6474 46.1124 11.6474Z" fill="#D60B51"/>
<path d="M43.4117 40.0827C34.5636 40.0827 27.3687 33.3342 27.3687 25.0314C27.3687 16.7285 34.5636 9.97998 43.4117 9.97998C52.2599 9.97998 59.4548 16.7334 59.4548 25.0314C59.4548 33.3293 52.2599 40.0827 43.4117 40.0827ZM43.4117 11.6474C35.4653 11.6474 29.0074 17.6532 29.0074 25.0363C29.0074 32.4193 35.4702 38.4251 43.4117 38.4251C51.3533 38.4251 57.8161 32.4193 57.8161 25.0363C57.8161 17.6532 51.3533 11.6474 43.4117 11.6474Z" fill="#662482"/>
</g>
<defs>
<clipPath id="clip0_1_156">
<rect width="179" height="56" fill="white"/>
</clipPath>
</defs>
</svg>
