<svg width="22" height="21" viewBox="0 0 22 21" fill="none" xmlns="http://www.w3.org/2000/svg">
    <path d="M10.6333 0.00568306C4.97303 0.180802 0.297337 4.55702 0.0143244 9.95667C-0.0880026 11.9032 0.361868 13.7433 1.23672 15.3405L0.00786504 20.594C-0.0437594 20.8316 0.176569 21.042 0.425472 20.9927L5.929 19.8197H5.93269C7.59481 20.6486 9.50214 21.078 11.5266 20.9883C17.1739 20.7384 21.7731 16.3094 21.9916 10.9167C22.2386 4.80958 17.0236 -0.192316 10.6342 0.00568306H10.6333ZM10.9993 18.8279C9.3989 18.8279 7.89996 18.4152 6.61119 17.6945C6.48951 17.6293 6.37242 17.5607 6.25811 17.4877L2.74213 18.3817L3.67874 15.0254C2.79098 13.7222 2.27566 12.169 2.27566 10.4996C2.27566 5.90869 6.18989 2.17223 10.9993 2.17223C15.8086 2.17223 19.7229 5.90869 19.7229 10.4996C19.7229 15.0906 15.8086 18.827 10.9993 18.827V18.8279Z" fill="white"/>
    <path d="M15.8589 13.6159C15.7013 13.8312 15.5361 14.0317 15.2716 14.2712C14.6929 14.7973 13.8889 15.0629 13.0734 14.9874C11.6124 14.8511 9.53639 14.1176 7.75165 12.4988C5.96691 10.8765 5.16002 8.98939 5.01392 7.66134C4.93084 6.92006 5.22304 6.19006 5.80172 5.66318C6.06528 5.42361 6.28587 5.27257 6.52269 5.12588C6.96004 4.85766 7.55495 5.03647 7.72016 5.48784L8.31889 7.12057C8.48409 7.56846 8.4096 7.85143 8.19666 8.04066L7.72016 8.47814C7.48334 8.6934 7.44419 9.02585 7.62562 9.28365C7.88918 9.6595 8.38574 10.261 9.29959 11.0917C10.2134 11.9224 10.8752 12.3738 11.2887 12.6133C11.5723 12.7783 11.939 12.7427 12.1748 12.5274L12.6561 12.0943C12.8652 11.9007 13.1765 11.833 13.6683 11.9832L15.4645 12.5274C15.9611 12.6776 16.1578 13.2183 15.8589 13.6159Z" fill="white"/>
</svg>