<svg width="153" height="60" viewBox="0 0 153 60" fill="none" xmlns="http://www.w3.org/2000/svg">
<path d="M6.96991 59.6752C4.23018 58.9389 2.41782 57.526 1.26965 55.2312C0.581255 53.8553 0.00634232 51.4656 0.000252229 49.9548C-0.00356819 49.0069 0.0247469 48.9656 0.629917 49.0351C1.23752 49.1048 1.27037 49.1757 1.42859 50.7584C1.83057 54.7795 3.42425 57.0859 6.59683 58.2382C8.34286 58.8723 12.3386 58.9257 14.3248 58.3415C15.7977 57.9083 17.3693 56.8152 18.1222 55.7003C19.3418 53.8943 19.2478 51.0558 17.9181 49.5447C16.9284 48.4198 14.3814 47.2979 11.1718 46.5728C3.23556 44.78 1.22041 43.3715 0.967595 39.4404C0.728849 35.7281 2.55236 33.298 6.33289 32.2903C7.82528 31.8925 12.2215 31.8947 13.7243 32.2941C16.5952 33.057 18.601 35.2501 19.4689 38.5753C19.9443 40.3965 19.9241 40.5287 19.1832 40.4431C18.6333 40.3795 18.5209 40.225 18.2941 39.2207C17.6842 36.5189 16.3192 34.7152 14.1901 33.7973C11.9061 32.8127 7.40999 32.9608 5.1329 34.0956C2.95701 35.18 1.80369 37.5225 2.29141 39.8668C2.85217 42.5623 4.61822 43.6534 10.9031 45.1873C15.8319 46.3902 17.4875 47.1114 18.8401 48.6448C19.96 49.9144 20.3829 51.406 20.215 53.4941C19.9648 56.6046 17.739 58.7491 13.7992 59.6758C11.9687 60.1064 8.57328 60.1061 6.96991 59.6752Z" fill="white"/>
<path d="M95.8481 59.7913C92.481 58.9931 89.5043 56.4232 87.9899 53.0069C86.3371 49.2784 86.4492 42.612 88.2319 38.6151C89.5571 35.6439 92.0947 33.3639 95.1111 32.4342C96.8809 31.8887 100.636 31.8148 102.419 32.2903C105.832 33.1999 108.33 35.6611 109.421 39.1874C109.689 40.0543 109.908 40.8045 109.908 40.8544C109.908 40.9043 109.604 40.9451 109.233 40.9451C108.611 40.9451 108.529 40.8434 108.179 39.6419C106.906 35.2721 103.271 32.9048 98.2718 33.1889C95.4658 33.3483 93.8723 33.9902 92.0427 35.698C90.4461 37.1885 89.4659 38.8532 88.6826 41.405C88.2536 42.8027 88.1519 43.6743 88.1458 46.0037C88.1352 50.0264 88.8762 52.5361 90.8419 55.1358C94.3335 59.7536 102.234 60.0852 106.178 55.7794C107.507 54.328 108.728 51.654 108.923 49.7658C109.045 48.5923 109.083 48.533 109.71 48.533C110.278 48.533 110.369 48.6219 110.369 49.1745C110.369 50.2155 109.719 52.4515 108.97 53.9879C107.576 56.8463 105.088 58.8517 101.925 59.6654C100.427 60.0509 97.2234 60.1173 95.8481 59.7913Z" fill="white"/>
<path d="M22.8107 32.4357V46.0162V59.6038L23.4444 59.5248L24.0781 59.4529L24.1357 53.1872L24.2005 46.9215L29.205 46.9143C31.9594 46.9113 34.669 46.8051 35.2248 46.6772C36.8846 46.2954 38.7068 45.2784 39.5092 44.2845C40.7211 42.7835 41.0841 41.5073 40.971 39.1684C40.8226 36.1015 40.0353 34.7953 37.5146 33.3985C36.1319 32.6323 34.3126 32.4357 28.4129 32.4357H22.8107ZM24.1933 33.5423L29.5506 33.6429C35.5551 33.751 36.7918 33.9922 38.1267 35.3242C39.2942 36.4892 39.6893 37.5681 39.6893 39.6068C39.6893 41.063 39.5818 41.6147 39.1276 42.4953C38.5027 43.707 37.0701 44.9202 35.7649 45.3407C35.2401 45.5098 32.826 45.6556 29.5506 45.7144L24.1933 45.8078V39.6786V33.5423Z" fill="white"/>
<path d="M43.5463 46.0037V32.4376H52.1871H60.828V33.0125V33.5873H52.7632H44.6984V39.3356V45.084H52.1871H59.6759V45.6588V46.2337H52.1871H44.6984V52.2119V58.1902H52.7632H60.828V58.88V59.5698H52.1871H43.5463V46.0037Z" fill="white"/>
<path d="M63.5163 59.4165C63.4318 59.3322 63.3627 53.2274 63.3627 45.8504V32.4376H64.1473C65.036 32.4376 64.4752 31.7509 70.8657 40.6639C72.8856 43.4811 74.7456 46.1297 74.999 46.5495C75.2525 46.9694 77.1189 49.6211 79.1467 52.4422L82.8334 57.5714L82.893 45.0045L82.9526 32.4376H83.5267H84.1008V46.0037V59.5698H83.4299C82.8199 59.5698 82.4512 59.1376 79.36 54.7987C77.4905 52.1745 75.4075 49.2806 74.7311 48.3678C74.0547 47.4549 73.5013 46.6441 73.5013 46.566C73.5013 46.4879 71.8101 44.0789 69.7431 41.2128C67.6762 38.3466 65.732 35.5877 65.4227 35.0818L64.8604 34.1621L64.8009 46.8659L64.7413 59.5698H64.2056C63.911 59.5698 63.6008 59.5008 63.5163 59.4165Z" fill="white"/>
<path d="M112.904 46.0037V32.4376H121.429H129.955V33.0125V33.5873H122.005H114.056V39.3356V45.084H121.545H129.033V45.6588V46.2337H121.545H114.056V52.2119V58.1902H122.121H130.185V58.88V59.5698H121.545H112.904V46.0037Z" fill="white"/>
<path d="M132.953 32.407V45.9874V59.5679H133.529H134.105V52.8998V46.2317H137.85C141.583 46.2321 141.595 46.234 141.94 46.7994C142.13 47.1113 144.359 50.1113 146.894 53.4603C151.24 59.2031 151.545 59.5498 152.251 59.5607C152.663 59.5671 153 59.5241 153 59.4673C153 59.4105 150.761 56.4099 148.031 52.7992L143.07 46.2317H144.323C145.985 46.2317 148.517 45.4297 149.63 44.5503C150.998 43.4702 151.711 41.7289 151.718 39.4487C151.726 36.9876 151.205 35.5149 149.896 34.3111C148.178 32.7301 147.4 32.5912 139.693 32.4932L132.953 32.407ZM134.22 33.7003H140.096C146.698 33.7009 147.702 33.8792 149.011 35.2596C150.053 36.3589 150.266 36.9105 150.4 38.8738C150.509 40.4483 150.456 40.8001 149.932 41.942C149.243 43.4448 147.91 44.4399 146.051 44.8377C144.342 45.2035 134.35 45.1679 134.206 44.7946C134.144 44.6339 134.122 42.0731 134.156 39.1038L134.22 33.7003Z" fill="white"/>
<path d="M111.806 27.8383C107.853 27.008 105.488 24.4184 104.711 20.0705C104.216 17.3002 104.248 17.032 105.069 17.032C105.728 17.032 105.761 17.0775 105.764 18.0093C105.768 19.288 106.333 21.647 106.901 22.7569C108.489 25.863 112.089 27.3215 116.748 26.7461C121.218 26.1941 123.549 24.1168 123.549 20.6853C123.549 19.6458 123.411 19.1003 122.949 18.3137C121.852 16.4456 120.663 15.8853 114.606 14.3844C108.447 12.8581 106.501 11.7246 105.679 9.18288C104.618 5.90593 106.048 2.3878 108.998 1.01228C111.821 -0.303562 117.366 -0.34369 119.827 0.933902C122.178 2.15443 123.716 4.47233 124.29 7.66224C124.44 8.4929 124.422 8.5245 123.79 8.5245C123.172 8.5245 123.118 8.44355 122.839 7.09561C122.31 4.54123 121.112 3.01555 118.779 1.9269C117.485 1.32278 117.213 1.28288 114.517 1.30199C111.436 1.32381 110.364 1.5762 108.702 2.67118C106.411 4.17999 105.984 8.27118 107.903 10.3264C108.839 11.3287 111.041 12.2179 114.828 13.123C119.034 14.1281 119.52 14.2705 120.969 14.9253C123.668 16.1452 125.009 18.3095 124.838 21.1709C124.726 23.0412 124.173 24.2063 122.748 25.5753C121.026 27.2293 119.051 27.8881 115.554 27.9755C114.033 28.0135 112.346 27.9518 111.806 27.8383Z" fill="white"/>
<path d="M140.391 0.0150146C138.367 0.0150146 137.27 0.381628 136.035 1.46647C134.505 2.81034 134.034 3.8859 134.156 5.7418C134.239 7.01108 134.408 7.51855 135.214 8.86747C135.743 9.75271 136.537 10.9518 136.978 11.5333L137.785 12.5967L135.977 13.7823C133.795 15.2154 132.129 16.8231 131.549 18.0648C131 19.2385 130.953 22.1937 131.463 23.4108C132.393 25.6333 134.337 27.0975 137.446 27.9232C137.7 27.9905 138.737 28.0143 139.751 27.9735C142.142 27.8773 144.047 27.0408 146.001 25.2359C146.777 24.5184 147.504 23.9301 147.614 23.9281C147.724 23.9262 148.593 24.7584 149.544 25.782C151.059 27.4143 151.33 27.6223 151.79 27.449C152.306 27.2545 152.299 27.2285 151.329 26.1197C150.788 25.5001 149.904 24.5204 149.364 23.9425C148.823 23.3646 148.429 22.7382 148.485 22.5485C148.541 22.3588 148.859 21.5402 149.198 20.7306C149.537 19.921 149.834 18.7828 149.853 18.2013C149.883 17.2949 149.821 17.1451 149.436 17.1451C149.069 17.1451 148.94 17.3983 148.73 18.5247C148.588 19.2835 148.265 20.3504 148.01 20.8959L147.542 21.8875L145.605 19.7462C144.538 18.5684 143.603 17.5532 143.524 17.49C142.904 16.9932 139.638 12.9915 139.7 12.8051C139.781 12.5647 140.41 12.1463 142.012 11.2746C143.284 10.5819 145.542 8.32095 145.958 7.3226C146.458 6.12082 146.411 4.35464 145.842 3.14786C144.906 1.15915 142.921 0.0150146 140.391 0.0150146ZM140.312 1.16468C141.726 1.16468 142.08 1.25596 143.113 1.89041C144.474 2.72606 145.15 3.91937 145.158 5.49031C145.168 7.43774 143.798 9.08058 140.579 10.9944C139.675 11.5318 138.904 11.9716 138.865 11.9716C138.6 11.9716 136.68 9.28708 136.035 8.0124C135.105 6.17336 135.026 4.92056 135.747 3.57899C136.643 1.91029 138.053 1.16468 140.312 1.16468ZM138.174 13.5093C138.336 13.4122 139.676 14.7623 141.623 16.9726C143.377 18.9642 145.227 21.0457 145.734 21.5929C146.242 22.14 146.693 22.6818 146.735 22.8C146.839 23.0883 145.047 24.8652 143.898 25.6095C143.391 25.9381 142.357 26.3699 141.601 26.5652C138.572 27.3483 135.794 26.7169 133.889 24.8119C132.83 23.753 132.24 22.3399 132.204 20.7665C132.144 18.1445 133.81 16.1231 138.174 13.5093Z" fill="#DFD21D"/>
<path d="M1.14837 14.0297V0.450363L2.08189 0.521067L3.01542 0.59177L4.05814 2.89111C5.50566 6.08308 8.40312 12.411 9.42757 14.6177C9.89725 15.6294 11.2525 18.5525 12.4392 21.1134C13.6259 23.6742 14.6747 25.7695 14.7698 25.7695C14.8649 25.7695 15.0146 25.5367 15.1025 25.2522C15.1904 24.9676 17.3593 20.1821 19.9222 14.6177C22.4851 9.05333 24.9865 3.59793 25.4809 2.49462C26.378 0.492394 26.3814 0.488582 27.2438 0.482698L28.1079 0.476803V14.0429V27.609H27.5338H26.9597L26.9001 15.0429L26.8406 2.47681L26.1493 4.09749C25.7691 4.98887 23.1768 10.6464 20.3887 16.6698L15.3194 27.6214L14.6397 27.5577C14.0022 27.498 13.8611 27.2794 12.3712 24.045C11.4974 22.1481 10.2958 19.5613 9.70099 18.2967C9.10615 17.032 7.22361 12.9713 5.51758 9.27271L2.4157 2.54809L2.35612 15.0785L2.29655 27.609H1.72246H1.14837V14.0297Z" fill="white"/>
<path d="M43.5416 0.244949C43.0528 0.244949 42.8234 0.420134 42.5479 0.99942C42.1442 1.84837 41.6621 3.00523 41.5686 3.34906C41.5343 3.47552 40.6082 5.54492 39.5092 7.94773C38.4103 10.3505 37.218 13.0408 36.8594 13.926C36.5007 14.8113 35.0682 18.0408 33.6766 21.0971C32.2851 24.1533 31.0746 26.8694 30.9908 27.1328C30.8603 27.5429 30.9378 27.6071 31.5092 27.6071C32.2528 27.6071 31.9777 28.095 34.5767 22.1461L36.0097 18.8696H43.5272H51.0376L52.0745 21.2264C52.6422 22.5227 53.4652 24.4627 53.9107 25.5377C54.6797 27.3935 54.7653 27.5013 55.4949 27.5711C56.4638 27.6639 56.5928 28.0789 53.4138 21.0971C52.0223 18.0408 50.592 14.8113 50.2311 13.926C49.8702 13.0408 48.6773 10.3505 47.5813 7.94773C46.4852 5.54492 45.5653 3.47552 45.5362 3.34906C45.5072 3.22259 45.1901 2.47243 44.8306 1.68204C44.2591 0.425834 44.0954 0.244949 43.5416 0.244949ZM43.556 2.08442C43.6583 2.08442 43.9475 2.62764 44.1969 3.29157C44.4463 3.95551 45.5068 6.41292 46.5516 8.7525C47.5964 11.0921 48.6278 13.4719 48.8486 14.041C49.0693 14.6101 49.5193 15.6706 49.8495 16.3978L50.4543 17.7199H43.52C38.0627 17.7199 36.6074 17.6587 36.701 17.4325C36.9499 16.8307 38.3997 13.5127 40.5461 8.63753C41.7711 5.85533 42.91 3.24271 43.0736 2.8317C43.2372 2.4207 43.4538 2.08442 43.556 2.08442Z" fill="white"/>
<path d="M58.872 0.474884L58.9296 14.041L58.9944 27.6071H59.5633H60.1393V20.939V14.2709H64.2653H68.3914L73.3959 20.939C78.2542 27.4157 78.4157 27.6071 79.1853 27.6071C79.7603 27.6071 79.9336 27.5283 79.8045 27.3197C79.5673 26.9364 72.0545 16.997 70.8972 15.5355L69.9827 14.3859L71.7973 14.2422C74.1637 14.056 75.8577 13.3057 77.1042 11.8925C78.3204 10.5138 78.6547 9.31414 78.53 6.71184C78.4446 4.93043 78.3379 4.50705 77.7451 3.55025C77.3689 2.94308 76.6507 2.16449 76.1465 1.81856C74.4927 0.68368 72.8564 0.47493 65.5039 0.474884H58.872ZM60.1393 1.62455L65.7271 1.63174C69.7472 1.63461 71.7577 1.72666 72.9062 1.96945C76.0955 2.64364 77.2504 4.10697 77.2843 7.50942C77.3009 9.18438 77.2383 9.47669 76.6146 10.4986C76.0724 11.387 75.6252 11.7754 74.5408 12.3165L73.1582 13.0063L66.6488 13.0781L60.1393 13.1572V7.38727V1.62455Z" fill="white"/>
<path d="M82.9486 13.9678V0.326523L83.5823 0.419218L84.216 0.511927L84.1524 8.46809L84.0889 16.4243L84.6133 15.9856C84.9017 15.7443 85.9672 14.7667 86.9811 13.8131C87.9949 12.8596 90.0138 10.995 91.4675 9.66962C92.9211 8.34425 95.7371 5.73368 97.7252 3.86834C101.164 0.642113 101.386 0.476813 102.281 0.476813H103.222L101.784 1.78806C100.993 2.50924 100.086 3.36371 99.7696 3.68688C99.4527 4.01004 97.4563 5.86638 95.3331 7.81207C92.7973 10.1359 91.5415 11.437 91.673 11.6041C92.214 12.2915 102.909 25.3362 103.699 26.2721C104.199 26.8646 104.608 27.4079 104.608 27.4792C104.608 27.5506 104.26 27.609 103.835 27.609C103.153 27.609 102.908 27.4179 101.771 25.9937C101.062 25.1053 98.2331 21.6355 95.4849 18.2832L90.4882 12.1881L88.8498 13.7558C86.4697 16.0332 85.0996 17.2797 84.5683 17.6511C84.1239 17.9617 84.1008 18.2157 84.1008 22.7934V27.609H83.5247H82.9486V13.9678Z" fill="white"/>
</svg>
